<svg width="219" height="278" viewBox="0 0 219 278" fill="none" xmlns="http://www.w3.org/2000/svg">
<path d="M187.65 277.21L21.6499 268.79C15.5599 268.48 10.8799 263.29 11.1799 257.21L22.6399 31.19C22.9499 25.1 28.1399 20.41 34.2199 20.72L200.22 29.14C210.68 29.67 218.72 38.58 218.19 49.03L207.53 259.24C207.01 269.69 198.11 277.74 187.65 277.21Z" fill="#B76030"/>
<path d="M187.65 277.21L21.6499 268.79C15.5599 268.48 10.8799 263.29 11.1799 257.21L22.6399 31.19C22.9499 25.1 28.1399 20.41 34.2199 20.72L200.22 29.14C210.68 29.67 218.72 38.58 218.19 49.03L207.53 259.24C207.01 269.69 198.11 277.74 187.65 277.21Z" fill="#B76030"/>
<path d="M191.37 271.18L5.31988 261.75C4.76988 261.72 4.33989 261.25 4.36989 260.7L16.8399 14.64C16.8699 14.09 17.3399 13.66 17.8899 13.69L203.94 23.12C208.86 23.37 212.65 27.56 212.4 32.48L200.73 262.74C200.48 267.64 196.29 271.43 191.37 271.18Z" fill="#F9F4DE"/>
<path d="M2.43992 236.46C2.16992 236.76 1.76992 237.27 1.40992 237.96C-0.900078 242.42 2.12992 248.11 6.93992 256.86C9.89992 262.25 11.6199 263.82 12.6899 264.75C15.4699 267.16 19.9799 269.81 21.0599 268.75C22.0499 267.78 19.0699 262.96 13.0599 253.37C10.5599 249.39 6.91992 243.58 2.43992 236.46Z" fill="#B76030"/>
<path d="M181.3 263.76L45.4099 256.87C94.6299 258.89 143.86 260.92 193.08 262.94C189.16 263.22 185.23 263.49 181.3 263.76Z" fill="#F9F4DE"/>
<path d="M8.81983 249.56C9.25983 251.25 10.0298 252.29 11.0698 253.61C11.7698 254.5 12.2198 255.53 12.8598 256.46C13.7398 257.76 13.9698 259.38 14.9098 260.59C15.8398 261.79 16.8398 263.41 18.1798 264.12C19.9198 265.05 21.1598 262.25 19.4298 261.32C18.9098 261.04 18.5898 260.03 18.2398 259.58C17.6798 258.86 17.3298 258.43 16.9298 257.59C16.3698 256.39 15.7698 255.45 15.0598 254.35C15.3498 254.79 14.7798 253.6 14.7498 253.53C14.4998 252.99 14.1098 252.45 13.7598 251.98C13.2998 251.36 12.8798 251.06 12.5498 250.57C12.1398 249.96 11.8598 249.12 11.6798 248.42C11.1798 246.53 8.32983 247.67 8.81983 249.56Z" fill="white"/>
<path d="M177.43 257.35L11.4299 248.93C5.33994 248.62 0.659942 243.44 0.959942 237.35L12.4199 11.33C12.7299 5.23998 17.9199 0.549983 23.9999 0.859983L190 9.28C200.46 9.81 208.5 18.71 207.97 29.17L197.31 239.38C196.79 249.83 187.88 257.88 177.43 257.35Z" fill="#B76030"/>
<path d="M19.73 236.54C14.52 235.74 10.64 231.09 10.92 225.71L21.35 20.04C21.64 14.3 26.54 9.86995 32.28 10.1599L189.67 18.14C195.45 18.46 199.84 23.34 199.55 29.07L189.12 234.74C188.83 240.48 183.93 244.91 178.19 244.62L20.8 236.64C20.43 236.63 20.08 236.59 19.73 236.54ZM190.58 19.26C190.26 19.21 189.94 19.1799 189.61 19.1599L32.22 11.1799C29.71 11.0499 27.31 11.9099 25.45 13.5899C23.58 15.2699 22.49 17.5799 22.36 20.0899L11.93 225.76C11.67 230.93 15.61 235.36 20.84 235.62L178.23 243.6L178.2 244.11L178.23 243.6C180.74 243.73 183.14 242.87 185 241.19C186.87 239.51 187.96 237.2 188.09 234.69L198.52 29.0199C198.65 26.5099 197.79 24.1099 196.11 22.2399C194.64 20.6199 192.71 19.58 190.58 19.26Z" fill="#B76030"/>
<path d="M102.89 173.46C101.8 173.41 100.97 172.48 101.02 171.39L106.47 63.97C106.53 62.88 107.45 62.05 108.54 62.1C109.63 62.16 110.46 63.0801 110.41 64.1701L104.96 171.59C104.91 172.68 103.98 173.51 102.89 173.46Z" fill="#F7F000"/>
<path d="M137.81 96.95L75.8998 93.81C75.1298 93.77 74.5398 93.11 74.5798 92.34C74.6198 91.57 75.2798 90.98 76.0498 91.02L137.96 94.16C138.73 94.2 139.32 94.86 139.28 95.63C139.24 96.4 138.58 96.99 137.81 96.95Z" fill="#F7F000"/>
</svg>
