<svg width="390" height="415" viewBox="0 0 390 415" fill="none" xmlns="http://www.w3.org/2000/svg">
<path d="M339.67 41.7701L324.38 58.0001L320.17 57.2201H319.55C319.55 57.2201 318.56 55.85 316.48 53.12C314.61 50.67 311.85 47.1401 308.16 42.5501C300.36 32.8801 287.25 15.4101 287.25 15.4101C287.25 15.4101 293.65 9.63006 298.8 11.1901C303.94 12.7501 305.67 15.4101 305.67 15.4101C305.67 15.4101 311.75 9.79006 319.87 14.9401C327.98 20.0801 328.14 30.0701 328.14 30.0701C328.14 30.0701 338.28 31.4401 339.55 39.9501C339.63 40.5401 339.67 41.1301 339.67 41.7701Z" fill="white"/>
<path opacity="0.21" d="M339.67 41.7701L324.38 58.0001L320.17 57.2201H319.55C319.55 57.2201 318.56 55.8501 316.48 53.1201L339.54 39.9601C339.63 40.5401 339.67 41.1301 339.67 41.7701Z" fill="#D6A392"/>
<path d="M389.12 89.36C388.85 90.78 388.24 92.11 387.18 93.18C387.03 93.33 386.86 93.4901 386.7 93.6301C385.49 94.69 383.97 95.46 382.39 95.83C381.22 96.1 380.01 96.16 378.86 95.96C378.79 96.95 378.65 97.9201 378.41 98.8901C378.18 99.8901 377.85 100.86 377.45 101.8C377.33 102.08 377.2 102.36 377.06 102.63C376.77 103.18 376.42 103.69 375.96 104.12C375.29 104.73 374.47 105.11 373.59 105.36C373.32 105.43 373.06 105.5 372.79 105.55C368.34 106.42 362.98 105.06 359.8 101.82C359.15 102.94 358.22 103.84 357.13 104.5C356.57 104.84 355.98 105.12 355.35 105.33C353.51 105.97 351.43 106.07 349.55 105.54C345.79 104.48 342.85 101.34 341.32 97.7301C339.51 99.0801 337.42 100.12 335.19 100.35C332.94 100.56 330.39 99.7501 328.9 98.0701C330.08 97.0001 331.28 95.93 332.47 94.86C334.18 93.33 335.94 91.9301 337.62 90.4501C339.05 89.2001 340.42 87.89 341.66 86.43C333.07 87.21 324.31 83.54 318.43 77.21C317.85 76.59 317.3 75.9501 316.77 75.2701C316.58 75.0201 316.39 74.7701 316.2 74.5201C316.16 74.4601 316.11 74.41 316.08 74.3501C315.84 74.0201 315.61 73.67 315.38 73.33C315.3 73.22 315.23 73.1001 315.15 72.9901C314.93 72.66 314.71 72.31 314.49 71.98C314.41 71.86 314.34 71.73 314.26 71.61C314.07 71.32 313.88 71.0301 313.69 70.7401C313.61 70.62 313.54 70.5001 313.45 70.3801C313.26 70.09 313.06 69.8101 312.86 69.5201C312.77 69.4 312.7 69.28 312.6 69.17C312.45 68.96 312.31 68.7701 312.15 68.5701C312.09 68.4901 312.02 68.41 311.95 68.33C311.86 68.21 311.77 68.1001 311.68 67.9901C311.49 67.7701 311.29 67.55 311.11 67.34C310.92 67.14 310.73 66.9501 310.54 66.7701C309.38 65.6401 308.04 64.72 306.52 64.22C305.99 64.05 305.42 63.94 304.85 63.89C302.97 63.74 301.02 64.31 299.77 65.68C299.77 65.68 299.86 62.57 301.33 59.34C302.24 57.32 303.69 55.2501 305.98 53.8501C310.25 51.2501 313.63 53.94 317.87 54.98C319.54 55.4 321.35 55.55 323.41 55.0201C327.39 53.9901 333.62 47.87 339.61 40.61C344.54 34.63 349.32 27.89 352.55 22.61C356.47 16.17 360.68 7.32005 364.05 0.800049C368.22 2.59005 372.22 4.74005 376.01 7.19005C376.85 8.46005 377.38 10.08 377.12 12.09C376.31 18.28 370.8 22.8501 370.8 22.8501C370.8 22.8501 379.7 30 375.02 39.94C370.34 49.89 359.45 50.01 359.45 50.01C359.45 50.01 369.52 55.39 362.61 63.23C355.83 70.92 344.1 65.55 343.66 65.34C345.52 68.99 348.85 71.67 352.23 73.95C355.62 76.23 359.4 77.8601 363.24 79.2601C368.72 81.2401 374.37 82.7601 380.11 83.7901C381.93 84.1201 383.76 84.4 385.59 84.62C386.74 84.77 387.9 84.89 389.06 85C389.33 86.43 389.39 87.94 389.12 89.36Z" fill="white"/>
<path d="M304.85 63.8601C302.97 63.7101 301.01 64.2801 299.77 65.6601C299.77 65.6601 299.86 62.5501 301.33 59.3201C302.77 59.5601 304.08 60.5701 304.64 61.9201C304.9 62.5201 305.01 63.2101 304.85 63.8601Z" fill="url(#paint0_linear_0_1)"/>
<path d="M310.01 57.51C310.01 58.35 309.33 59.03 308.49 59.03C307.65 59.03 306.97 58.35 306.97 57.51C306.97 56.67 307.65 55.99 308.49 55.99C309.33 55.99 310.01 56.67 310.01 57.51Z" fill="url(#paint1_linear_0_1)"/>
<path opacity="0.21" d="M352.55 84.3L337.62 90.4301C339.05 89.1801 340.43 87.8701 341.66 86.4101L352.55 84.3Z" fill="#D6A392"/>
<path d="M50.1602 41.7701L65.4501 58.0001L69.6602 57.2201H70.2802C70.2802 57.2201 71.2702 55.85 73.3502 53.12C75.2202 50.67 77.9802 47.1401 81.6702 42.5501C89.4701 32.8801 102.58 15.4101 102.58 15.4101C102.58 15.4101 96.1802 9.63006 91.0302 11.1901C85.8902 12.7501 84.1602 15.4101 84.1602 15.4101C84.1602 15.4101 78.0802 9.79006 69.9602 14.9401C61.8502 20.0801 61.6902 30.0701 61.6902 30.0701C61.6902 30.0701 51.5502 31.4401 50.2802 39.9501C50.2102 40.5401 50.1602 41.1301 50.1602 41.7701Z" fill="white"/>
<path opacity="0.21" d="M50.1602 41.7701L65.4501 58.0001L69.6602 57.2201H70.2802C70.2802 57.2201 71.2702 55.8501 73.3502 53.1201L50.2902 39.9601C50.2102 40.5401 50.1602 41.1301 50.1602 41.7701Z" fill="#D6A392"/>
<path d="M0.710053 89.36C0.980053 90.78 1.59005 92.11 2.65005 93.18C2.80005 93.33 2.97005 93.4901 3.13005 93.6301C4.34005 94.69 5.86005 95.46 7.44005 95.83C8.61005 96.1 9.82005 96.16 10.9701 95.96C11.0401 96.95 11.1801 97.9201 11.4201 98.8901C11.6501 99.8901 11.9801 100.86 12.3801 101.8C12.5001 102.08 12.6301 102.36 12.7701 102.63C13.0601 103.18 13.4101 103.69 13.8701 104.12C14.5401 104.73 15.3601 105.11 16.2401 105.36C16.5101 105.43 16.7701 105.5 17.0401 105.55C21.4901 106.42 26.8501 105.06 30.0301 101.82C30.6801 102.94 31.6101 103.84 32.7001 104.5C33.2601 104.84 33.8501 105.12 34.4801 105.33C36.3201 105.97 38.4001 106.07 40.2801 105.54C44.0401 104.48 46.9801 101.34 48.5101 97.7301C50.3201 99.0801 52.4101 100.12 54.6401 100.35C56.8901 100.56 59.4401 99.7501 60.9301 98.0701C59.7501 97.0001 58.5501 95.93 57.3601 94.86C55.6501 93.33 53.8901 91.9301 52.2101 90.4501C50.7801 89.2001 49.4101 87.89 48.1701 86.43C56.7601 87.21 65.5201 83.54 71.4001 77.21C71.9801 76.59 72.5301 75.9501 73.0601 75.2701C73.2501 75.0201 73.44 74.7701 73.6301 74.5201C73.6701 74.4601 73.7201 74.41 73.7501 74.3501C73.9901 74.0201 74.22 73.67 74.4501 73.33C74.5301 73.22 74.6001 73.1001 74.6801 72.9901C74.9001 72.66 75.12 72.31 75.34 71.98C75.4201 71.86 75.4901 71.73 75.5701 71.61C75.7601 71.32 75.9501 71.0301 76.1401 70.7401C76.2201 70.62 76.2901 70.5001 76.3801 70.3801C76.5701 70.09 76.7701 69.8101 76.9701 69.5201C77.0601 69.4 77.1301 69.28 77.2301 69.17C77.3801 68.96 77.5201 68.7701 77.6801 68.5701C77.7401 68.4901 77.8101 68.41 77.8801 68.33C77.97 68.21 78.0601 68.1001 78.1501 67.9901C78.3401 67.7701 78.5401 67.55 78.7201 67.34C78.9101 67.14 79.1001 66.9501 79.2901 66.7701C80.4501 65.6401 81.7901 64.72 83.3101 64.22C83.84 64.05 84.4101 63.94 84.9801 63.89C86.8601 63.74 88.8101 64.31 90.0601 65.68C90.0601 65.68 89.9701 62.57 88.5001 59.34C87.59 57.32 86.1401 55.2501 83.8501 53.8501C79.5801 51.2501 76.2001 53.94 71.9601 54.98C70.2901 55.4 68.48 55.55 66.4201 55.0201C62.4401 53.9901 56.2101 47.87 50.2201 40.61C45.2901 34.63 40.5101 27.89 37.2801 22.61C33.3601 16.17 29.1501 7.32005 25.7801 0.800049C21.6101 2.59005 17.6101 4.74005 13.8201 7.19005C12.9801 8.46005 12.4501 10.08 12.7101 12.09C13.5201 18.28 19.0301 22.8501 19.0301 22.8501C19.0301 22.8501 10.1301 30 14.8101 39.94C19.4901 49.89 30.3801 50.01 30.3801 50.01C30.3801 50.01 20.3101 55.39 27.2201 63.23C34.0001 70.92 45.7301 65.55 46.1701 65.34C44.3101 68.99 40.9801 71.67 37.6001 73.95C34.2101 76.23 30.4301 77.8601 26.5901 79.2601C21.1101 81.2401 15.4601 82.7601 9.72005 83.7901C7.90005 84.1201 6.07005 84.4 4.24005 84.62C3.09005 84.77 1.93005 84.89 0.770055 85C0.510055 86.43 0.450053 87.94 0.710053 89.36Z" fill="white"/>
<path d="M84.9901 63.8601C86.8701 63.7101 88.8301 64.2801 90.0701 65.6601C90.0701 65.6601 89.9801 62.5501 88.5101 59.3201C87.0701 59.5601 85.7601 60.5701 85.2001 61.9201C84.9401 62.5201 84.8301 63.2101 84.9901 63.8601Z" fill="url(#paint2_linear_0_1)"/>
<path d="M79.8301 57.51C79.8301 58.35 80.5101 59.03 81.3501 59.03C82.1901 59.03 82.8701 58.35 82.8701 57.51C82.8701 56.67 82.1901 55.99 81.3501 55.99C80.5101 55.99 79.8301 56.67 79.8301 57.51Z" fill="url(#paint3_linear_0_1)"/>
<path opacity="0.21" d="M37.28 84.3L52.21 90.4301C50.78 89.1801 49.4 87.8701 48.17 86.4101L37.28 84.3Z" fill="#D6A392"/>
<path d="M328.08 260.56C333.41 274.97 340.98 304.25 331.85 338.47C321.02 379.04 292.93 402.44 281.35 410.62L284.07 414.48C298.98 403.95 325.59 380.24 336.41 339.69C345.88 304.21 338.03 273.86 332.51 258.93L328.08 260.56Z" fill="#56A00E"/>
<path d="M332.34 371.7C339.27 371.58 346.28 370.21 352.38 366.91C358.48 363.61 363.61 358.26 365.89 351.72C366.44 350.13 366.83 348.38 366.36 346.76C365.78 344.76 363.96 343.3 361.97 342.69C359.98 342.08 357.84 342.21 355.79 342.55C347.65 343.9 340.3 348.39 334.25 354C329.34 358.55 325.19 363.84 321.2 369.2C318.82 372.4 319.92 372.32 323.33 371.98C326.33 371.68 329.32 371.75 332.34 371.7Z" fill="#56A00E"/>
<path d="M363.79 329.53C364.68 328.74 365.56 327.93 366.19 326.93C366.86 325.87 367.23 324.64 367.65 323.45C368.63 320.62 369.92 317.88 370.54 314.96C371.16 312.03 371.02 308.78 369.33 306.31C369.06 305.91 368.73 305.52 368.28 305.34C367.83 305.15 367.32 305.2 366.84 305.27C358.83 306.43 352.99 313.27 348.25 319.84C344.78 324.66 341.47 329.59 338.2 334.56C336.56 337.06 332.62 342.07 336.79 344.49C340.15 346.44 347 341.28 349.89 339.6C354.83 336.7 359.5 333.33 363.79 329.53Z" fill="#56A00E"/>
<path d="M286.87 351.74C284.63 349.46 282.7 346.75 281.92 343.65C281.14 340.55 281.67 337 283.82 334.63C286.4 331.78 290.81 331.17 294.51 332.23C298.21 333.29 301.35 335.73 304.26 338.25C307.17 340.78 309.96 343.45 312.62 346.24C314.33 348.04 316.01 349.95 316.87 352.28C317.67 354.44 317.69 356.8 318.04 359.08C318.32 360.88 322.86 372.19 321.83 372.49C320.91 372.75 317.63 369.7 316.7 369.13C314.67 367.88 312.56 366.78 310.44 365.72C302.28 361.66 293.39 358.37 286.87 351.74Z" fill="#56A00E"/>
<path d="M323.79 337.01C319.33 333.43 314.46 330.33 310.37 326.33C307.19 323.22 304.54 319.61 302.1 315.89C298.95 311.1 296.06 305.96 295.15 300.29C294.67 297.28 294.81 294.03 296.4 291.43C296.69 290.96 297.08 290.47 297.62 290.37C298.13 290.27 298.63 290.52 299.09 290.77C301.58 292.14 303.93 293.72 306.26 295.35C314.46 301.08 322.55 307.55 327.29 316.36C331.62 324.41 332.79 333.72 333.89 342.8C333.99 343.62 334.72 346.73 333.71 347.16C332.66 347.6 331.49 344.85 330.96 344.15C328.94 341.44 326.42 339.12 323.79 337.01Z" fill="#56A00E"/>
<path d="M323.56 294.94C318.3 292.22 313.26 289.09 308.48 285.6C305.28 283.26 302.14 280.7 300.05 277.33C297.6 273.38 296.77 268.45 297.82 263.91C298.02 263.04 298.39 262.07 299.24 261.77C299.86 261.55 300.54 261.78 301.15 262.01C309.02 264.98 316.46 269.08 323.17 274.15C325.02 275.54 326.84 277.05 328.09 278.99C329.19 280.69 329.8 282.66 330.68 284.49C332.11 287.49 343.06 298.71 340.22 301.28C338.28 303.04 335.06 300.91 333.39 299.98C330.18 298.18 326.83 296.63 323.56 294.94Z" fill="#56A00E"/>
<path d="M312.09 250.83C308.92 246.88 307.6 241.78 306.67 236.8C306.13 233.92 305.7 230.99 306.05 228.08C306.43 224.85 307.76 221.82 309.07 218.84C310.39 215.84 312.22 212.43 315.47 211.94C317.58 211.62 319.7 212.72 321.19 214.25C322.68 215.78 323.68 217.71 324.78 219.54C328.2 225.26 332.74 230.3 335.64 236.3C337.49 240.12 338.59 244.51 338.13 248.76C337.89 250.94 337.09 252.68 336.23 254.66C335.19 257.06 334.92 259.32 334.46 261.89C333.44 267.55 327.68 261.79 324.73 260.01C320.28 257.33 315.41 254.96 312.09 250.83Z" fill="#56A00E"/>
<path d="M344.32 274.91C346.85 266.24 350.88 257.74 357.56 251.66C357.91 251.34 358.31 251.01 358.78 250.95C359.21 250.9 359.64 251.08 360.03 251.29C364.12 253.47 366.11 258.45 365.92 263.08C365.73 267.71 363.72 272.06 361.49 276.13C356.85 284.6 350.71 292.75 342 296.91C341.61 298.95 340.59 301.74 338.8 302.89C337.91 299.71 340.19 293.97 340.78 290.77C341.78 285.45 342.8 280.12 344.32 274.91Z" fill="#56A00E"/>
<path d="M163.47 221.07C162.76 217.46 157.16 185.09 179.59 162.13C202.56 138.6 238.52 140.3 260.7 153.84C275.51 162.89 283.34 176.22 287.3 185.81L283.52 187.37C279.79 178.34 272.43 165.8 258.56 157.32C237.74 144.6 204.01 142.96 182.51 164.97C161.54 186.44 166.81 216.87 167.48 220.27L163.47 221.07Z" fill="#56A00E"/>
<path d="M163.05 175.91C161.94 172.53 161.39 168.99 160.84 165.48C160.07 160.53 159.29 155.54 159.49 150.53C159.69 145.52 160.95 140.44 163.89 136.38C164.86 135.05 166.39 133.72 167.96 134.22C169.46 134.69 169.99 136.49 170.25 138.04C171.89 148.03 171.03 158.24 170.16 168.32C169.74 173.2 169.8 178.41 168.88 183.22C168.33 186.09 166.54 182.96 165.69 181.63C164.56 179.86 163.71 177.91 163.05 175.91Z" fill="#56A00E"/>
<path d="M177.89 156.56C178.6 150.63 179.31 144.66 180.92 138.91C182.54 133.16 185.11 127.57 189.14 123.16C190.1 122.11 191.19 121.1 192.55 120.67C193.91 120.24 195.59 120.54 196.4 121.71C197.16 122.82 196.96 124.3 196.71 125.62C194.37 137.68 189.98 149.45 183.16 159.72C181.37 162.42 179.43 165.4 177.08 167.65C177.61 164.04 177.45 160.23 177.89 156.56Z" fill="#56A00E"/>
<path d="M206.18 127.42C207.37 125.18 208.82 122.97 210.96 121.62C213.1 120.27 216.09 119.98 218.1 121.52C220.56 123.4 220.68 127.09 219.87 130.08C218.29 135.87 214.2 140.64 209.74 144.66C207.26 146.9 204.66 149.34 201.92 151.26C198.8 153.45 199.85 147.95 200.15 146.36C201.35 139.84 203.06 133.32 206.18 127.42Z" fill="#56A00E"/>
<path d="M227.83 134.48C230.72 130.41 233.85 126.13 238.46 124.23C241.51 122.97 244.89 122.89 248.19 122.97C250.06 123.02 252.01 123.13 253.62 124.08C256.37 125.68 257.36 129.44 256.37 132.47C255.39 135.5 252.8 137.79 249.93 139.15C247.05 140.51 243.88 141.07 240.74 141.61C236.02 142.43 231.3 143.24 226.59 144.06C223.42 144.61 221.42 145.64 218.78 147.32C221.36 142.86 224.85 138.7 227.83 134.48Z" fill="#56A00E"/>
<path d="M268.53 142.72C274.49 141.04 280.88 140.4 286.89 141.88C288 142.15 289.15 142.53 289.95 143.35C291.1 144.53 291.26 146.34 291.35 147.99C291.47 150.09 291.49 152.47 289.99 153.95C288.8 155.13 287 155.36 285.33 155.49C275.62 156.25 265.8 155.44 256.35 153.11C255.14 152.81 251.83 152.05 251.94 150.31C252.03 148.76 255.5 147.79 256.64 147.27C260.49 145.5 264.43 143.87 268.53 142.72Z" fill="#56A00E"/>
<path d="M284.34 162.62C288.59 162.73 292.73 164.11 296.54 166.02C299.11 167.3 301.63 168.9 303.23 171.28C304.83 173.66 305.3 176.99 303.73 179.39C303.13 180.3 302.2 181.07 301.11 181.13C300.28 181.18 299.49 180.82 298.73 180.46C293.13 177.82 287.53 175.19 281.93 172.55C279.96 171.62 272.04 168.88 273.8 165.93C275.53 163.06 281.42 162.55 284.34 162.62Z" fill="#56A00E"/>
<path d="M266.52 198.48C266.24 200 266.06 201.58 266.43 203.08C266.8 204.58 267.82 206 269.3 206.46C271.76 207.22 274.17 205.16 275.62 203.03C280.05 196.53 280.84 188.4 280.89 180.73C280.91 177.36 280.29 175.92 277.2 178.3C274.49 180.39 272.47 183.56 270.83 186.51C268.76 190.22 267.28 194.28 266.52 198.48Z" fill="#56A00E"/>
<path d="M248.71 176.26C247.84 180.65 249.54 186.02 253.78 187.45C256.23 188.27 259.03 187.57 261.07 185.99C263.11 184.41 264.43 182.04 265.15 179.56C266.37 175.31 265.89 170.71 264.58 166.48C263.5 163.02 261.88 159.75 260.18 156.56C258.53 153.48 257.82 154.34 256.87 157.33C254.79 163.84 250.03 169.58 248.71 176.26Z" fill="#56A00E"/>
<path d="M224.6 168.75C225.79 171.09 227.86 172.87 230.03 174.35C232.31 175.91 235.2 177.25 237.75 176.19C239.89 175.3 241.07 172.96 241.57 170.7C242.87 164.74 240.58 158.37 236.55 153.79C234.39 151.34 223.89 141.6 223.35 149.36C223.13 152.57 223.62 155.91 223.41 159.18C223.21 162.4 223.09 165.79 224.6 168.75Z" fill="#56A00E"/>
<path d="M182.44 164.18C185.04 163.01 188.12 164.16 190.47 165.78C192.82 167.4 194.88 169.52 197.53 170.59C202.32 172.53 208.43 170.09 210.57 165.39C211.43 163.5 211.57 160.99 210.02 159.61C209.21 158.88 208.09 158.62 207.01 158.43C195.65 156.45 183.39 160.7 175.7 169.29L182.44 164.18Z" fill="#56A00E"/>
<path d="M188.87 185.6C190.68 186.08 192.5 186.63 194.37 186.68C196.24 186.73 198.22 186.21 199.51 184.85C201.26 183.01 201.29 179.93 199.92 177.78C198.55 175.63 196.05 174.39 193.53 174.08C191 173.78 188.45 174.32 186.04 175.12C180.94 176.82 175.22 179.94 171.86 184.25C173.48 185.13 177.66 183.91 179.72 184.02C182.82 184.19 185.89 184.8 188.87 185.6Z" fill="#56A00E"/>
<path d="M76.1999 198.66C80.6199 194 86.6599 190.09 93.0299 190.85C96.8599 191.31 100.38 193.47 102.84 196.44C105.96 200.2 107.44 205.36 106.45 210.15C105.23 216.04 100.55 220.71 95.2799 223.62C90.0099 226.53 84.0999 228.01 78.3799 229.89C74.4299 231.19 71.0399 233.36 67.2599 234.9C63.4399 236.45 63.2599 232.03 63.3799 229.19C63.6899 222.04 65.6399 214.97 69.0099 208.66C70.9499 205.02 73.3599 201.64 76.1999 198.66Z" fill="#56A00E"/>
<path d="M72.7999 249.43C82.4299 246.52 93.2299 247.68 102.02 252.57C103.76 253.54 105.57 254.85 105.96 256.81C106.26 258.33 105.59 259.91 104.54 261.05C103.49 262.19 102.1 262.94 100.71 263.61C94.0199 266.84 86.6199 268.6 79.1899 268.73C75.0399 268.8 70.9099 268.37 66.7799 268.02C62.7699 267.68 58.1099 268.38 54.2299 267.72C47.7499 266.6 59.9999 256.16 62.0599 254.71C65.3199 252.39 68.9599 250.59 72.7999 249.43Z" fill="#56A00E"/>
<path d="M72.66 282.23C83.39 280.16 94.57 282.2 104.79 286.07C107.31 287.02 109.83 288.12 111.85 289.89C113.87 291.67 115.34 294.24 115.2 296.93C115.04 299.99 112.82 302.64 110.13 304.1C107.44 305.56 104.33 306.02 101.29 306.33C90.98 307.37 80.48 306.91 70.43 304.42C66.56 303.46 62.69 302.17 58.68 301.99C56.22 301.88 49.63 304.1 48.17 301.35C46.87 298.9 50.82 294.81 52.26 293.25C54.77 290.52 57.76 288.25 60.99 286.45C64.62 284.45 68.58 283.02 72.66 282.23Z" fill="#56A00E"/>
<path d="M79.0399 326.78C84.4999 323.92 90.6499 322.77 96.5599 321.01C100.8 319.75 105.13 318.15 109.53 318.64C113.93 319.13 118.41 322.56 118.25 326.98C118.15 329.79 116.2 332.27 113.8 333.74C111.4 335.2 108.59 335.82 105.83 336.33C95.7099 338.23 85.4399 339.16 75.1699 339.88C73.6299 339.99 70.2999 340.93 69.1999 339.5C68.1399 338.13 69.5399 335.92 70.2499 334.73C72.2899 331.3 75.5199 328.61 79.0399 326.78Z" fill="#56A00E"/>
<path d="M123.92 361.99C114.31 361.94 81.4301 359.89 61.6701 335.73C35.7001 303.95 43.0901 250.75 78.4901 214.62L81.4101 217.48C43.4901 256.18 43.2001 306.68 64.8301 333.14C83.4601 355.93 114.78 357.85 123.94 357.9L123.92 361.99Z" fill="#56A00E"/>
<path d="M58.72 368.48C49.99 371.59 40.66 372.63 31.4 373.13C27.07 373.37 22.61 373.47 18.52 372.04C14.42 370.61 10.71 367.33 9.97002 363.05C9.25002 358.85 11.56 354.56 14.9 351.91C18.24 349.26 22.45 347.98 26.61 347.06C35.52 345.1 44.74 344.58 53.82 345.45C58.44 345.9 63.02 346.7 67.5 347.87C71.45 348.89 77.24 349.95 80.44 352.5C78.97 356.32 74.24 359.87 70.98 362.18C67.23 364.86 63.06 366.94 58.72 368.48Z" fill="#56A00E"/>
<path d="M24.98 332.33C21.09 330.83 17.2 329.26 13.7 326.99C10.2 324.72 7.09999 321.7 5.32999 317.92C3.55999 314.14 3.37999 309.29 6.04999 306.09C7.79999 303.99 10.52 302.89 13.23 302.59C15.94 302.28 18.68 302.69 21.37 303.16C34.2 305.39 47.5 309.44 56.26 319.08C59.43 322.56 61.85 326.64 63.81 330.9C64.85 333.16 69.16 340.77 67.58 343.01C65.73 345.63 57.76 342.57 55.41 342.01C50.5 340.85 45.64 339.47 40.84 337.95C35.5 336.24 30.21 334.35 24.98 332.33Z" fill="#56A00E"/>
<path d="M26.77 290.44C19.54 286.12 12.69 279.79 11.28 271.48C10.24 265.32 12.39 259.04 15.45 253.6C16.48 251.76 17.84 249.83 19.91 249.41C22.48 248.9 24.8 250.96 26.49 252.96C33.12 260.78 37.68 270.1 42.18 279.31C43.5 282.02 52.4 300.5 47.8 302.01C46.73 302.36 44.13 299.94 43.28 299.42C41.46 298.3 39.58 297.28 37.7 296.28C34.04 294.36 30.31 292.56 26.77 290.44Z" fill="#56A00E"/>
<path d="M36.63 241.91C34.21 232.15 34.79 221.2 40.45 212.89C41.37 211.54 42.45 210.25 43.89 209.5C45.34 208.75 47.22 208.66 48.52 209.64C49.65 210.5 50.13 211.96 50.39 213.36C51.14 217.44 50.54 221.62 50.07 225.74C48.97 235.42 48.61 245.18 49.01 254.91C49.08 256.74 50.58 267.35 49 267.47C46.91 267.63 43.09 258.23 42.21 256.48C39.89 251.83 37.89 246.98 36.63 241.91Z" fill="#56A00E"/>
<path d="M87.56 393.39C88.52 395.1 89.67 396.8 91.41 397.71C93.63 398.87 96.45 398.45 98.55 397.09C103.04 394.19 104.13 387.85 102.73 382.69C101.33 377.53 98.03 373.13 95.25 368.56C93.12 365.04 91.77 361.15 89.76 357.61C87.12 352.96 85.59 358.21 84.65 361.06C82.44 367.78 82.01 375.09 83.4 382.02C84.18 386 85.57 389.85 87.56 393.39Z" fill="#56A00E"/>
<defs>
<linearGradient id="paint0_linear_0_1" x1="299.771" y1="62.4804" x2="304.921" y2="62.4804" gradientUnits="userSpaceOnUse">
<stop offset="0.2979" stop-color="#FED285"/>
<stop offset="0.7742" stop-color="#CC9D49"/>
</linearGradient>
<linearGradient id="paint1_linear_0_1" x1="285.521" y1="21.1634" x2="358.255" y2="136.277" gradientUnits="userSpaceOnUse">
<stop offset="0.2026" stop-color="#662724"/>
<stop offset="0.764" stop-color="#2E0C0B"/>
</linearGradient>
<linearGradient id="paint2_linear_0_1" x1="90.0654" y1="62.4804" x2="84.9152" y2="62.4804" gradientUnits="userSpaceOnUse">
<stop offset="0.2979" stop-color="#FED285"/>
<stop offset="0.7742" stop-color="#CC9D49"/>
</linearGradient>
<linearGradient id="paint3_linear_0_1" x1="123.186" y1="123.733" x2="195.919" y2="238.847" gradientUnits="userSpaceOnUse">
<stop offset="0.2026" stop-color="#662724"/>
<stop offset="0.764" stop-color="#2E0C0B"/>
</linearGradient>
</defs>
</svg>
