<svg width="428" height="926" viewBox="0 0 428 926" fill="none" xmlns="http://www.w3.org/2000/svg">
<path d="M534.21 -12.72H-106.11V978.34H534.21V-12.72Z" fill="url(#paint0_radial_506_11169)"/>
<g opacity="0.1">
<path d="M-9.99006 348.65C-9.96006 351.41 -9.92006 354.17 -9.89006 356.93C-9.66006 359.7 -9.42006 362.46 -9.19006 365.23C-8.13006 367.9 -7.07006 370.57 -6.01006 373.25C-5.60006 376.01 -5.19006 378.77 -4.78006 381.54C-4.20006 384.29 -3.62006 387.05 -3.04006 389.8C-2.14006 392.5 -1.23006 395.2 -0.340058 397.9C1.26994 400.4 2.87994 402.91 4.47994 405.42C5.42994 408.11 6.36994 410.79 7.30994 413.49C8.20994 416.22 9.09994 418.95 9.98994 421.69C11.5099 424.2 13.0199 426.71 14.5299 429.24C15.8099 431.85 17.0899 434.47 18.3499 437.1C20.3199 439.38 22.2799 441.68 24.2299 443.98C25.5699 446.59 26.8999 449.2 28.2199 451.82C29.7799 454.33 31.3199 456.85 32.8699 459.38C34.8199 461.65 36.7599 463.93 38.6899 466.21C40.5099 468.56 42.3299 470.92 44.1299 473.29C46.0799 475.55 48.0199 477.82 49.9499 480.1C51.6199 482.61 53.2899 485.13 54.9599 487.66C57.4099 489.48 59.8499 491.3 62.2799 493.14C64.1799 495.48 66.0699 497.83 67.9499 500.19C70.1799 502.19 72.4099 504.2 74.6299 506.22C76.7799 508.32 78.9199 510.43 81.0599 512.55C83.1499 514.76 85.2399 516.98 87.3199 519.2C89.9299 520.66 92.5399 522.14 95.1499 523.61C97.4599 525.52 99.7599 527.44 102.06 529.36C104.29 531.45 106.51 533.54 108.73 535.65C111.36 536.98 113.99 538.32 116.61 539.66C119 541.48 121.39 543.32 123.77 545.16C126.28 546.75 128.78 548.34 131.28 549.94C133.83 551.42 136.39 552.91 138.94 554.4C141.6 555.55 144.26 556.7 146.91 557.85C149.51 559.21 152.1 560.57 154.7 561.94C157.35 563.12 159.99 564.31 162.64 565.5C165.39 566.1 168.14 566.7 170.89 567.31C173.54 568.51 176.19 569.7 178.83 570.91C181.53 571.86 184.22 572.81 186.91 573.76C189.65 574.09 192.4 574.42 195.14 574.75C197.86 575.24 200.58 575.73 203.3 576.22C206.02 576.92 208.75 577.62 211.47 578.32C214.19 578.57 216.92 578.83 219.64 579.08C222.37 579.46 225.11 579.83 227.84 580.21C230.5 579.71 233.16 579.21 235.82 578.71C238.59 579.25 241.36 579.79 244.13 580.33C246.71 579.51 249.3 578.69 251.89 577.87C254.63 577.99 257.37 578.11 260.11 578.23C262.66 577.35 265.2 576.47 267.76 575.59C270.35 574.96 272.95 574.33 275.55 573.7C278.18 573.18 280.81 572.66 283.45 572.14C286.1 571.6 288.75 571.05 291.4 570.51C293.9 569.48 296.42 568.46 298.93 567.43C301.56 566.7 304.19 565.96 306.83 565.23C309.31 564.05 311.8 562.87 314.29 561.69C316.56 560.01 318.83 558.33 321.12 556.64C323.6 555.4 326.09 554.17 328.59 552.93C331.03 551.54 333.47 550.15 335.93 548.76C338.26 547.13 340.61 545.5 342.96 543.87C345.08 541.86 347.22 539.86 349.36 537.85C351.57 535.96 353.79 534.08 356.02 532.18C358.16 530.16 360.3 528.13 362.46 526.1C364.8 524.3 367.15 522.49 369.51 520.68C371.75 518.68 373.99 516.67 376.25 514.66C378.35 512.45 380.47 510.24 382.59 508.02C384.35 505.42 386.11 502.82 387.89 500.21C389.58 497.55 391.28 494.89 392.99 492.22C395.09 489.9 397.2 487.57 399.33 485.23C401.02 482.53 402.71 479.81 404.42 477.1C406.11 474.38 407.81 471.65 409.52 468.92C411.01 466.04 412.5 463.16 414 460.27C415.8 457.55 417.61 454.83 419.42 452.09C420.88 449.15 422.35 446.21 423.83 443.25C425.33 440.3 426.83 437.34 428.33 434.37C429.63 431.31 430.93 428.24 432.24 425.17C433.14 421.96 434.04 418.75 434.94 415.53C435.77 412.31 436.6 409.1 437.44 405.87C438.58 402.72 439.72 399.57 440.86 396.41C442.2 393.26 443.55 390.1 444.9 386.93C444.97 383.59 445.05 380.25 445.12 376.91C446.02 373.66 446.91 370.41 447.81 367.15C448.67 363.86 449.53 360.57 450.39 357.28C450.12 354 449.84 350.72 449.57 347.44C449.86 344.16 450.16 340.88 450.45 337.59C450.56 334.32 450.68 331.05 450.79 327.79C450.63 324.57 450.46 321.34 450.3 318.12C450.25 314.88 450.21 311.64 450.16 308.4C450.55 305.03 450.93 301.67 451.32 298.3C450.16 295.35 449.01 292.41 447.85 289.47C447.53 286.29 447.21 283.12 446.89 279.94C446.46 276.79 446.02 273.64 445.59 270.49C444.77 267.49 443.94 264.49 443.12 261.49C442.04 258.62 440.96 255.75 439.88 252.88C439.3 249.76 438.71 246.63 438.12 243.51C436.54 240.92 434.96 238.33 433.38 235.74C432.03 233.04 430.68 230.35 429.32 227.65C428.39 224.67 427.46 221.69 426.52 218.71C425.2 215.96 423.88 213.21 422.56 210.46C420.75 208.07 418.94 205.67 417.12 203.28C415.64 200.62 414.16 197.96 412.67 195.3C410.26 193.43 407.84 191.57 405.42 189.7C403.57 187.36 401.71 185.01 399.84 182.66C398.05 180.22 396.26 177.77 394.46 175.33C392.4 173.13 390.34 170.92 388.27 168.72C385.62 167.18 382.97 165.63 380.31 164.08C378.12 161.99 375.93 159.9 373.73 157.81C371.23 156.09 368.73 154.36 366.22 152.64C363.54 151.17 360.85 149.7 358.15 148.22C355.81 146.21 353.45 144.19 351.09 142.18C348.41 140.62 345.73 139.07 343.04 137.52C339.91 136.77 336.78 136.02 333.64 135.27C330.87 133.84 328.09 132.41 325.31 130.98C322.21 130.23 319.1 129.48 315.99 128.74C313.23 127.13 310.45 125.52 307.67 123.92C304.32 123.82 300.98 123.72 297.63 123.62C294.57 122.68 291.51 121.74 288.44 120.8C285.18 120.53 281.92 120.26 278.66 120C275.46 119.49 272.26 118.98 269.05 118.47C265.87 117.67 262.69 116.88 259.5 116.09C256.16 116.33 252.82 116.57 249.47 116.81C246.2 116.23 242.92 115.66 239.64 115.09C236.3 115.23 232.96 115.37 229.62 115.51C226.28 115.83 222.95 116.15 219.61 116.48C216.31 117.25 213.02 118.01 209.73 118.77C206.45 119.44 203.18 120.11 199.91 120.78C196.54 120.85 193.17 120.92 189.8 120.98C186.61 122.05 183.42 123.12 180.24 124.18C176.97 124.83 173.69 125.48 170.42 126.12C167.17 126.89 163.92 127.65 160.67 128.42C157.49 129.41 154.31 130.4 151.14 131.38C148.26 133.06 145.39 134.73 142.52 136.4C139.34 137.35 136.17 138.29 133 139.23C129.96 140.48 126.93 141.71 123.89 142.95C121.18 144.73 118.47 146.5 115.77 148.26C112.67 149.39 109.57 150.52 106.47 151.64C103.72 153.29 100.97 154.93 98.2199 156.56C95.4599 158.17 92.6899 159.78 89.9299 161.38C87.3499 163.19 84.7699 165 82.1899 166.79C79.5999 168.57 77.0099 170.35 74.4199 172.12C71.7999 173.87 69.1799 175.62 66.5599 177.35C64.2199 179.36 61.8899 181.36 59.5599 183.36C57.5999 185.66 55.6499 187.95 53.6899 190.23C51.6699 192.44 49.6599 194.63 47.6399 196.83C45.1399 198.68 42.6499 200.53 40.1499 202.37C38.2799 204.65 36.4099 206.93 34.5399 209.21C32.5799 211.43 30.6299 213.64 28.6699 215.85C26.7399 218.08 24.8099 220.31 22.8799 222.54C21.2399 224.92 19.5899 227.3 17.9499 229.68C16.5999 232.19 15.2599 234.7 13.9199 237.21C12.6499 239.73 11.3799 242.26 10.1099 244.78C8.35994 247.12 6.59994 249.45 4.84994 251.78C3.70994 254.35 2.55994 256.92 1.41994 259.48C0.839942 262.21 0.249942 264.93 -0.330058 267.66C-1.56006 270.19 -2.79006 272.72 -4.01006 275.25C-4.77006 277.91 -5.53006 280.56 -6.29006 283.22C-7.22006 285.85 -8.15006 288.47 -9.08006 291.1C-9.47006 293.83 -9.86006 296.56 -10.2401 299.28C-10.7101 301.99 -11.1701 304.71 -11.6301 307.42C-11.9701 310.15 -12.3101 312.88 -12.6401 315.61C-12.2401 318.39 -11.8401 321.17 -11.4401 323.95C-12.0701 326.68 -12.6901 329.4 -13.3101 332.13C-13.1601 334.89 -13.0101 337.66 -12.8601 340.42C-11.8501 343.18 -10.9201 345.92 -9.99006 348.65Z" fill="white"/>
</g>
<g opacity="0.1">
<path d="M56.0599 348.49C56.1699 351.3 56.2799 354.11 56.3899 356.91C56.7399 359.72 57.0899 362.54 57.4399 365.35C58.0299 368.15 58.6199 370.95 59.2099 373.76C60.3199 376.46 61.4299 379.17 62.5299 381.88C64.0499 384.45 65.5599 387.03 67.0499 389.62C67.6699 392.47 68.2799 395.33 68.8999 398.19C70.5499 400.7 72.1799 403.22 73.7999 405.75C75.2399 408.34 76.6799 410.94 78.0999 413.54C79.7299 416.05 81.3499 418.56 82.9599 421.09C84.4699 423.69 85.9699 426.3 87.4499 428.92C89.4199 431.24 91.3899 433.56 93.3399 435.91C95.5199 438.05 97.6899 440.2 99.8499 442.36C101.43 445.03 103 447.71 104.56 450.41C107.07 452.21 109.58 454.03 112.07 455.87C114.16 458.09 116.25 460.33 118.33 462.58C120.45 464.82 122.57 467.08 124.67 469.35C127.21 471.02 129.74 472.7 132.27 474.4C134.49 476.59 136.7 478.8 138.91 481.03C141.59 482.38 144.27 483.74 146.95 485.12C149.5 486.7 152.05 488.28 154.6 489.88C157.25 491.2 159.89 492.54 162.53 493.88C164.99 495.85 167.46 497.83 169.92 499.83C172.66 500.88 175.4 501.93 178.14 502.98C180.95 503.53 183.76 504.09 186.57 504.65C189.25 506.1 191.93 507.56 194.6 509.03C197.38 509.73 200.17 510.43 202.95 511.14C205.74 511.69 208.53 512.25 211.32 512.8C214.09 512.74 216.87 512.69 219.65 512.63C222.43 512.89 225.2 513.14 227.98 513.4C230.71 513.15 233.43 512.91 236.16 512.66C238.96 512.9 241.77 513.14 244.57 513.38C247.25 512.85 249.94 512.32 252.63 511.79C255.19 510.77 257.75 509.76 260.32 508.74C262.97 508.09 265.62 507.44 268.28 506.78C270.99 506.23 273.71 505.68 276.44 505.13C278.89 503.79 281.35 502.44 283.83 501.09C286.52 500.25 289.21 499.4 291.92 498.56C294.29 496.95 296.68 495.35 299.08 493.74C301.26 491.77 303.46 489.79 305.67 487.81C308.21 486.4 310.76 484.98 313.32 483.56C315.3 481.24 317.3 478.91 319.32 476.58C321.58 474.62 323.85 472.65 326.14 470.67C328.16 468.36 330.2 466.05 332.26 463.72C334.29 461.38 336.35 459.04 338.41 456.68C340.46 454.3 342.53 451.91 344.62 449.5C346.63 447 348.66 444.5 350.7 441.98C352.42 439.2 354.16 436.42 355.9 433.62C357.72 430.86 359.55 428.08 361.4 425.29C362.56 422.13 363.73 418.96 364.91 415.78C366.09 412.64 367.28 409.5 368.47 406.35C369.93 403.3 371.39 400.23 372.86 397.15C374.14 393.98 375.43 390.81 376.73 387.62C377.84 384.36 378.95 381.1 380.07 377.83C380.27 374.44 380.46 371.04 380.66 367.65C381.19 364.32 381.72 360.99 382.26 357.65C383.07 354.3 383.88 350.94 384.7 347.57C384.75 344.23 384.8 340.89 384.85 337.55C384.87 334.22 384.89 330.9 384.91 327.57C384.53 324.33 384.16 321.09 383.78 317.86C383.64 314.57 383.5 311.28 383.35 308C382.58 304.91 381.8 301.82 381.02 298.73C380.42 295.59 379.82 292.45 379.22 289.32C378.66 286.14 378.09 282.97 377.52 279.79C376.56 276.79 375.59 273.78 374.62 270.78C373.47 267.87 372.31 264.96 371.15 262.05C369.8 259.25 368.46 256.44 367.1 253.64C365.46 251.04 363.82 248.43 362.17 245.83C360.29 243.42 358.4 241.01 356.51 238.59C354.59 236.21 352.67 233.83 350.74 231.45C348.79 229.07 346.84 226.7 344.87 224.32C342.27 222.62 339.66 220.93 337.05 219.23C334.73 217.24 332.39 215.24 330.05 213.25C327.72 211.21 325.38 209.17 323.02 207.13C320.17 205.79 317.31 204.46 314.44 203.12C311.92 201.23 309.38 199.34 306.83 197.46C303.93 196.15 301.01 194.84 298.09 193.53C295.02 192.53 291.94 191.52 288.86 190.53C285.61 190 282.35 189.47 279.08 188.94C276.07 187.66 273.05 186.39 270.01 185.12C266.63 185.05 263.24 184.99 259.85 184.92C256.57 184.49 253.27 184.06 249.98 183.63C246.63 183.56 243.27 183.5 239.92 183.44C236.58 182.95 233.22 182.47 229.87 181.99C226.46 182.11 223.06 182.24 219.65 182.36C216.25 182.81 212.86 183.26 209.46 183.7C206.16 184.71 202.86 185.71 199.56 186.71C196.27 187.55 192.98 188.38 189.7 189.21C186.48 190.22 183.26 191.23 180.04 192.23C176.86 193.3 173.68 194.37 170.51 195.43C167.24 196.31 163.98 197.18 160.71 198.04C157.68 199.43 154.65 200.8 151.62 202.16C148.48 203.36 145.35 204.55 142.22 205.74C139.63 207.73 137.03 209.7 134.44 211.66C131.59 213.24 128.74 214.81 125.89 216.37C123.3 218.24 120.72 220.1 118.14 221.95C115.29 223.55 112.43 225.14 109.58 226.72C107.69 229.18 105.81 231.63 103.92 234.06C101.39 235.95 98.8599 237.82 96.3399 239.7C94.3399 241.97 92.3399 244.24 90.3399 246.5C88.0099 248.56 85.6799 250.61 83.3499 252.66C81.6799 255.11 80.0199 257.56 78.3499 260C76.9099 262.53 75.4599 265.06 74.0199 267.59C72.4099 270.04 70.7999 272.48 69.1999 274.92C67.8099 277.46 66.4299 280 65.0399 282.53C64.1199 285.22 63.1999 287.9 62.2899 290.59C61.4299 293.28 60.5699 295.97 59.7199 298.65C59.2699 301.42 58.8299 304.18 58.3799 306.95C57.6799 309.66 56.9899 312.37 56.2999 315.08C55.3999 317.79 54.5099 320.51 53.6199 323.22C53.4499 326.03 53.2799 328.84 53.1199 331.65C53.8699 334.47 54.6099 337.29 55.3599 340.12C55.5899 342.91 55.8199 345.7 56.0599 348.49Z" fill="white"/>
</g>
<g opacity="0.1">
<path d="M83.0499 348.42C83.5099 351.12 83.9798 353.82 84.4398 356.53C84.7898 359.26 85.1498 361.98 85.4998 364.71C86.4998 367.34 87.4798 369.98 88.4598 372.62C89.3698 375.26 90.2798 377.91 91.1798 380.57C91.9498 383.29 92.7198 386.01 93.4898 388.74C95.0598 391.2 96.6199 393.66 98.1599 396.14C99.8599 398.51 101.55 400.89 103.22 403.29C104.77 405.73 106.31 408.18 107.83 410.64C109.23 413.21 110.62 415.79 112 418.38C113.81 420.71 115.61 423.06 117.4 425.43C119.49 427.54 121.56 429.67 123.63 431.82C125.58 434.07 127.51 436.34 129.44 438.63C131.7 440.56 133.94 442.51 136.18 444.48C138.4 446.45 140.62 448.44 142.82 450.45C145.03 452.47 147.24 454.52 149.45 456.57C151.88 458.27 154.3 459.98 156.71 461.71C159.31 463.01 161.91 464.31 164.51 465.62C167 467.17 169.48 468.74 171.96 470.31C174.54 471.63 177.11 472.95 179.68 474.29C182.26 475.7 184.83 477.12 187.4 478.54C190.16 478.85 192.92 479.17 195.68 479.48C198.32 480.66 200.96 481.84 203.6 483.03C206.31 483.09 209.02 483.16 211.73 483.22C214.41 483.6 217.09 483.97 219.77 484.35C222.46 484.65 225.15 484.95 227.83 485.25C230.46 485 233.1 484.76 235.74 484.51C238.45 484.68 241.17 484.84 243.88 485.01C246.4 484.17 248.92 483.33 251.46 482.49C254.08 482.04 256.71 481.58 259.34 481.13C261.97 480.55 264.6 479.98 267.24 479.4C269.51 477.81 271.79 476.22 274.09 474.63C276.58 473.56 279.08 472.48 281.6 471.41C284.05 470.14 286.51 468.86 288.99 467.59C291.19 465.8 293.42 464.01 295.66 462.21C297.9 460.43 300.16 458.64 302.44 456.84C304.34 454.54 306.26 452.23 308.19 449.92C310.2 447.75 312.24 445.56 314.29 443.37C316.54 441.35 318.8 439.32 321.09 437.28C322.63 434.53 324.19 431.78 325.76 429.01C327.74 426.58 329.73 424.14 331.74 421.69C333.58 419.07 335.43 416.43 337.3 413.78C338.27 410.63 339.25 407.47 340.24 404.31C342.14 401.57 344.06 398.82 345.99 396.05C347.14 392.94 348.3 389.82 349.47 386.69C350.4 383.5 351.34 380.3 352.28 377.09C352.61 373.8 352.94 370.51 353.27 367.22C354.35 364.01 355.43 360.79 356.52 357.56C357 354.28 357.48 350.99 357.96 347.7C357.8 344.46 357.64 341.22 357.48 337.99C357.32 334.79 357.15 331.59 356.98 328.39C357.03 325.15 357.07 321.9 357.12 318.66C356.44 315.61 355.76 312.56 355.08 309.52C354.22 306.57 353.35 303.63 352.49 300.69C352 297.59 351.5 294.49 351.01 291.39C350.09 288.46 349.17 285.54 348.25 282.61C347.22 279.72 346.19 276.83 345.16 273.94C343.45 271.49 341.74 269.04 340.03 266.59C338.34 264.15 336.65 261.7 334.95 259.26C333.41 256.66 331.87 254.06 330.31 251.47C328.35 249.21 326.38 246.95 324.4 244.69C322.22 242.63 320.03 240.56 317.84 238.5C315.35 236.79 312.85 235.08 310.33 233.37C307.6 232.01 304.85 230.64 302.09 229.28C299.6 227.54 297.09 225.8 294.56 224.07C291.68 222.92 288.8 221.78 285.9 220.64C283.16 219.15 280.41 217.65 277.64 216.17C274.42 215.75 271.2 215.34 267.97 214.93C264.8 214.49 261.62 214.05 258.44 213.62C255.41 212.51 252.36 211.4 249.3 210.3C246.02 210.17 242.74 210.04 239.45 209.91C236.14 210.35 232.82 210.78 229.51 211.22C226.23 211.08 222.94 210.95 219.65 210.82C216.38 211.36 213.1 211.89 209.83 212.42C206.57 212.97 203.31 213.51 200.05 214.06C196.79 214.66 193.53 215.25 190.27 215.84C187.11 216.82 183.95 217.79 180.8 218.75C177.83 220.14 174.87 221.52 171.91 222.89C168.87 224.06 165.83 225.21 162.79 226.36C159.79 227.62 156.79 228.87 153.8 230.11C151.2 231.93 148.6 233.73 146.01 235.51C143.47 237.32 140.94 239.12 138.41 240.91C135.75 242.57 133.1 244.22 130.44 245.85C127.87 247.61 125.3 249.37 122.73 251.11C120.94 253.48 119.14 255.84 117.35 258.19C114.85 260.03 112.36 261.86 109.86 263.68C108.14 266.02 106.41 268.36 104.69 270.69C103.47 273.25 102.25 275.81 101.02 278.36C99.1298 280.58 97.2498 282.8 95.3598 285.02C94.5398 287.67 93.7098 290.32 92.8898 292.97C91.5298 295.42 90.1798 297.86 88.8298 300.3C87.9198 302.89 87.0198 305.48 86.1098 308.06C85.3598 310.69 84.6099 313.32 83.8699 315.94C83.2599 318.61 82.6499 321.27 82.0499 323.93C81.8899 326.65 81.7398 329.38 81.5898 332.1C82.0898 334.83 82.5798 337.57 83.0698 340.3C83.0298 342.99 83.0399 345.7 83.0499 348.42Z" fill="white"/>
</g>
<g opacity="0.4">
<path d="M227.989 452.77C285.816 448.182 328.974 397.585 324.386 339.758C319.798 281.932 269.2 238.773 211.374 243.362C153.547 247.95 110.389 298.547 114.977 356.374C119.565 414.201 170.163 457.359 227.989 452.77Z" fill="#FCF6D4"/>
</g>
<path d="M170.93 401.74C169.16 387.53 150.82 378.38 138.4 385.5C142.24 377.18 139.19 366.28 131.58 361.18C123.97 356.07 112.73 357.38 106.49 364.09C107.4 354.8 92.7299 349.09 87.1199 356.55C86.8899 349.59 76.6399 349.03 70.0499 351.28C58.1099 355.34 46.7099 360.99 36.2399 368.03C37.7099 358.61 29.1299 348.96 19.5999 349.32C24.6699 341.88 22.2499 331.04 15.7999 324.77C9.3499 318.5 -0.100105 316.19 -9.10011 316.3C-5.6601 310.42 -6.34011 302.41 -10.7201 297.18C-15.1001 291.96 -22.8601 289.89 -29.2601 292.24C-26.1901 284.11 -28.4401 274.23 -34.7401 268.24C-41.0401 262.25 -51.0101 260.48 -58.9801 263.95C-68.8201 248.53 -96.0101 249.99 -104.14 266.37C-108.07 274.3 -107.71 283.6 -107.26 292.44C-105.9 319.04 -104.54 345.65 -103.18 372.25C-11.8601 385.75 73.5699 424.38 162.17 450.29C182.07 456.11 205.4 454.54 206.68 429.25C207.13 420.3 203.47 407.87 196.14 402.47C193.86 400.77 170.06 394.78 170.93 401.74Z" fill="url(#paint1_linear_506_11169)"/>
<path d="M500.94 267.46C485.12 271.09 470.9 286.59 474.49 302.42C464.8 300.77 454.39 307.11 451.4 316.47C439.3 306.14 424.32 297.34 408.47 298.7C392.62 300.06 377.56 315.68 381.99 330.96C369.19 328.06 354.95 337.69 352.89 350.66C338.47 347.41 323.34 362.6 326.65 377.01C310.81 375.46 295.19 389.39 294.94 405.31C287.81 402.42 280.16 399.48 272.63 401.03C265.1 402.58 258.45 410.71 261.42 417.8C254.68 415.62 247.38 413.44 240.64 415.64C233.9 417.84 228.94 426.49 233.06 432.25C226.1 431.4 216.67 432.21 215.33 439.09C213.99 445.96 222.43 450.27 229.24 451.85C309.39 470.38 392.88 450.97 472.83 431.62C497.83 425.57 524.55 418.5 541.24 398.93C555.02 382.77 559.56 360.32 558.07 339.14C555.51 302.55 547.97 256.67 500.94 267.46Z" fill="url(#paint2_linear_506_11169)"/>
<path d="M-121.18 322.32C-113.55 314.97 -100.74 315.67 -91.63 321.09C-82.52 326.51 -76.29 335.57 -70.44 344.41C-62.94 341.33 -53.63 349.64 -55.84 357.44C-47.38 351.75 -35.32 353.73 -27.44 360.21C-19.5601 366.68 -15.3501 376.71 -13.5201 386.74C-5.25005 376.88 9.27997 372.82 21.46 376.97C33.64 381.12 42.67 393.22 43.18 406.08C51.04 393.5 70.59 392.84 82.5699 401.6C94.5399 410.36 100.16 425.42 102.81 440.02C109.48 431.79 122.72 431.45 131.75 436.99C140.78 442.53 146.23 452.43 149.73 462.43C155.81 456.51 163.68 451.88 172.16 451.76C180.64 451.64 189.5 457.06 191.35 465.34C195.37 453.94 207.11 445.72 219.2 445.85C231.29 445.98 242.85 454.43 246.63 465.92C255.44 454.65 275.84 456.18 282.87 468.63C288.54 456.39 306.75 452.36 317.06 461.07C315.94 445.28 333.66 431.33 348.74 436.13C346.64 418.77 355.47 400.56 370.4 391.46C385.33 382.36 405.56 382.84 420.03 392.65C429.38 377.46 449.58 369.95 466.59 375.32C467.5 358.72 477.44 342.89 491.99 334.85C506.54 326.81 525.23 326.82 539.77 334.88V528.02C523.61 522.71 501.29 519.32 487.41 529.15C480.97 533.71 476.8 540.8 470.89 546.03C453.6 561.35 422.01 554.35 412.82 533.15C402.25 541.16 387.9 543.95 375.1 540.49C374.44 551.42 363.18 559.27 352.26 560C341.34 560.73 330.83 556.19 320.88 551.62C310.93 547.05 300.59 542.27 289.65 542.47C273.04 542.78 255.43 546.49 252.91 562.91C248.37 556.05 241.6 562.22 233.58 564.04C225.56 565.86 219.02 572.98 217.89 581.13C208.99 573.25 194.87 572 184.72 578.18C174.33 561.43 160.84 546.61 145.13 534.7C133.14 525.61 119.32 518.04 104.31 516.98C89.3 515.92 73.0399 522.65 66.2599 536.08C59.11 524.71 42.7299 520.35 30.8699 526.66C28.0699 509.06 12.0099 494.48 -5.78004 493.4C-23.57 492.32 -41.28 504.83 -46.21 521.96C-53.84 516.93 -64.65 517.31 -71.91 522.86C-85.65 504.78 -114.34 500.46 -132.79 513.7L-121.18 322.32Z" fill="url(#paint3_linear_506_11169)"/>
<defs>
<radialGradient id="paint0_radial_506_11169" cx="0" cy="0" r="1" gradientUnits="userSpaceOnUse" gradientTransform="translate(213.219 439.769) scale(448.692 448.692)">
<stop offset="0.1291" stop-color="#F7E786"/>
<stop offset="0.4115" stop-color="#FAF0A5"/>
<stop offset="0.7965" stop-color="#FEFACB"/>
<stop offset="1" stop-color="#FFFED9"/>
</radialGradient>
<linearGradient id="paint1_linear_506_11169" x1="49.6011" y1="453.092" x2="49.6011" y2="322.944" gradientUnits="userSpaceOnUse">
<stop offset="0.3423" stop-color="#F7E786"/>
<stop offset="0.7603" stop-color="#FFFED9"/>
</linearGradient>
<linearGradient id="paint2_linear_506_11169" x1="386.774" y1="459.314" x2="386.774" y2="309.676" gradientUnits="userSpaceOnUse">
<stop offset="0.3423" stop-color="#F7E786"/>
<stop offset="0.7603" stop-color="#FFFED9"/>
</linearGradient>
<linearGradient id="paint3_linear_506_11169" x1="203.486" y1="581.145" x2="203.486" y2="417.483" gradientUnits="userSpaceOnUse">
<stop offset="0.3423" stop-color="#F7E786"/>
<stop offset="0.7603" stop-color="#FFFED9"/>
</linearGradient>
</defs>
</svg>
