<svg width="428" height="450" viewBox="0 0 428 450" fill="none" xmlns="http://www.w3.org/2000/svg">
<path d="M540.82 0.76001V52.02C524.66 46.71 502.34 43.32 488.46 53.15C482.02 57.71 477.85 64.8 471.94 70.03C454.65 85.35 423.06 78.35 413.87 57.15C403.3 65.16 388.95 67.95 376.15 64.49C375.49 75.42 364.23 83.27 353.31 84C342.39 84.73 331.88 80.19 321.93 75.62C311.98 71.05 301.64 66.27 290.7 66.47C274.09 66.78 258.69 80.25 256.17 96.67C251.63 89.81 242.65 86.22 234.63 88.04C226.61 89.86 220.07 96.98 218.94 105.13C210.04 97.25 195.92 96 185.77 102.18C175.38 85.43 161.89 70.61 146.18 58.7C134.19 49.61 120.37 42.04 105.36 40.98C90.35 39.92 74.09 46.65 67.31 60.08C60.16 48.71 43.78 44.35 31.92 50.66C29.12 33.06 13.06 18.48 -4.72999 17.4C-22.52 16.31 -40.23 28.83 -45.16 45.96C-52.79 40.93 -63.6 41.31 -70.86 46.86C-84.6 28.78 -113.29 24.46 -131.74 37.7L-129.5 0.75H-123.61L-123.59 457.89H553.85L553.83 0.75H540.82V0.76001Z" fill="url(#paint0_linear_506_11257)"/>
<path opacity="0.6" d="M614.94 276.048C578.81 274.708 543.58 301.298 534.96 336.408C523.31 328.058 504.17 334.968 500.54 348.838C491.43 338.798 472.57 340.848 465.84 352.608C451.57 337.148 428.27 330.718 408.09 336.668C387.91 342.618 371.83 360.669 368.23 381.399C352.44 378.019 334.88 387.469 329 402.509C320.59 389.909 298.63 390.478 290.88 403.488C274.99 395.088 254.23 396.969 240.1 408.079C231.07 393.579 208.28 390.328 195.57 401.738C187.81 377.828 167.45 357.768 142.79 352.918C118.13 348.058 90.39 360.118 79.25 382.658C65.67 371.378 43.47 372.489 31.08 385.069C27.26 367.829 14.85 352.708 -1.32002 345.588C-17.49 338.468 -37.01 339.518 -52.32 348.348C-56.42 332.108 -70.9 318.998 -87.47 316.538C-101.07 314.508 -115.42 319.059 -128.5 314.819C-138.64 311.539 -146.42 303.478 -155.59 298.038C-164.76 292.598 -177.81 290.388 -185.18 298.098C-187.68 300.708 -187.72 306.659 -184.11 306.389V449.968H608.54L614.94 276.048Z" fill="white"/>
<defs>
<linearGradient id="paint0_linear_506_11257" x1="211.043" y1="457.901" x2="211.043" y2="0.762098" gradientUnits="userSpaceOnUse">
<stop offset="0.3423" stop-color="#F7E786"/>
<stop offset="0.7603" stop-color="#FFFED9"/>
</linearGradient>
</defs>
</svg>
