<svg
      width="279"
      height="274"
      viewBox="0 0 279 274"
      fill="none"
      xmlns="http://www.w3.org/2000/svg"
    >
      <path
        d="M237.547 159.59C237.547 161.523 237.534 163.443 237.467 165.349C237.387 168.549 237.227 171.722 236.973 174.841C236.853 176.561 236.706 178.267 236.533 179.947C236.199 183.413 235.759 186.813 235.265 190.146C235.051 191.639 234.811 193.105 234.558 194.572C234.024 197.838 233.41 201.024 232.756 204.13C232.422 205.703 232.075 207.25 231.715 208.769C231.088 211.529 230.407 214.195 229.713 216.782C229.353 218.168 228.979 219.528 228.592 220.861C228.565 220.954 228.539 221.061 228.512 221.154H228.498C227.404 224.994 226.216 228.86 225.028 232.633C224.802 233.353 224.575 234.059 224.361 234.752C224.334 234.819 224.321 234.886 224.294 234.952C220.838 245.951 217.261 257.269 215.513 268.787H214.258C216.007 257.149 219.623 245.711 223.107 234.619C223.267 234.086 223.44 233.566 223.6 233.033C223.934 231.966 224.281 230.886 224.615 229.806C225.562 226.74 226.523 223.634 227.391 220.554C227.778 219.208 228.151 217.848 228.525 216.448C228.645 215.982 228.779 215.515 228.899 215.049C229.94 211.049 230.927 206.863 231.822 202.49C231.982 201.77 232.115 201.051 232.262 200.317C232.929 196.905 233.543 193.398 234.064 189.799C234.184 189.039 234.291 188.292 234.384 187.519C235.492 179.534 236.186 171.135 236.279 162.483C236.306 161.363 236.319 160.23 236.293 159.097C236.266 153.498 235.986 147.792 235.385 142.046C235.318 141.353 235.238 140.673 235.158 139.993C234.518 134.434 233.583 128.834 232.302 123.209C230.22 113.97 227.204 104.705 223.08 95.546C222.933 95.2527 223.08 94.9061 223.4 94.7727C223.707 94.6394 224.081 94.7728 224.214 95.0794C228.432 104.438 231.501 113.917 233.61 123.355C234.945 129.328 235.906 135.274 236.546 141.166C236.72 142.846 236.88 144.525 237.013 146.192V146.205C237.36 150.711 237.534 155.177 237.547 159.59Z"
        fill="#19911C"
      />
      <path
        d="M233.89 126.328C233.89 126.328 230.594 85.4676 221.679 85.6009C212.763 85.7209 233.89 126.328 233.89 126.328Z"
        fill="#19911C"
      />
      <path
        d="M236.479 147.645C236.479 147.645 251.827 107.824 245.435 106.078C239.042 104.331 236.213 145.166 236.213 145.166L236.479 147.645Z"
        fill="#19911C"
      />
      <path
        d="M235.518 140.62C235.518 140.62 215.78 105.745 210.414 109.437C205.049 113.144 235.332 142.473 235.332 142.473L235.518 140.62Z"
        fill="#19911C"
      />
      <path
        d="M236.399 167.136C236.399 167.136 263.385 122.929 256.579 119.116C249.772 115.303 237.2 160.83 237.2 160.83L236.399 167.136Z"
        fill="#19911C"
      />
      <path
        d="M235.759 180.8C235.759 180.8 269.938 143.246 263.946 138.34C257.967 133.434 236.426 175.894 236.426 175.894L235.759 180.8Z"
        fill="#19911C"
      />
      <path
        d="M266.308 159.83C266.308 162.736 265.307 165.549 263.425 167.762C255.177 177.454 239.215 190.772 234.558 194.571C233.717 195.278 233.25 195.651 233.25 195.651L234.704 190.905C234.704 190.905 234.905 190.639 235.265 190.145C238.508 185.746 255.191 163.469 263.732 158.337C264.867 157.643 266.308 158.51 266.308 159.83Z"
        fill="#19911C"
      />
      <path
        d="M230.42 209.756C230.42 209.756 271.313 178.921 266.415 173.028C261.517 167.136 232.049 205.063 232.049 205.063L230.42 209.756Z"
        fill="#19911C"
      />
      <path
        d="M227.751 219.688C227.751 219.688 275.597 195.718 271.673 188.746C267.749 181.774 230.313 215.169 230.313 215.169L227.751 219.688Z"
        fill="#19911C"
      />
      <path
        d="M223.36 231.899C223.36 231.899 280.949 211.836 277.545 203.384C274.142 194.918 226.924 227.167 226.924 227.167L223.36 231.899Z"
        fill="#19911C"
      />
      <path
        d="M237.187 160.83C237.187 160.83 218.836 123.995 211.909 127.835C204.996 131.674 236.746 162.923 236.746 162.923L237.187 160.83Z"
        fill="#19911C"
      />
      <path
        d="M235.759 171.815C235.759 171.815 206.985 137.594 200.031 142.326C193.078 147.059 235.732 173.962 235.732 173.962L235.759 171.815Z"
        fill="#19911C"
      />
      <path
        d="M234.971 188.199C234.971 188.199 206.197 153.978 199.244 158.71C192.29 163.443 234.945 190.346 234.945 190.346L234.971 188.199Z"
        fill="#19911C"
      />
      <path
        d="M232.796 200.931C232.796 200.931 204.022 166.709 197.068 171.442C190.115 176.175 232.769 203.077 232.769 203.077L232.796 200.931Z"
        fill="#19911C"
      />
      <path
        d="M228.952 214.276C228.952 214.276 199.604 174.975 191.663 179.761C183.722 184.547 228.779 216.635 228.779 216.635L228.952 214.276Z"
        fill="#19911C"
      />
      <path
        d="M224.641 229.833C224.641 229.833 195.987 186.279 187.98 190.639C179.972 194.998 224.134 233.486 224.134 233.486L224.641 229.833Z"
        fill="#19911C"
      />
      <path
        d="M62.4197 241.511C62.433 241.685 62.3797 241.845 62.2729 241.965L60.7114 238.419C58.9364 227.18 55.4397 216.102 52.0498 205.343C52.0231 205.277 52.0097 205.21 51.9831 205.143C51.7695 204.437 51.5426 203.73 51.3158 203.01C50.1413 199.238 48.9401 195.372 47.8458 191.545H47.8324C47.8057 191.452 47.779 191.345 47.7523 191.252C47.3653 189.919 46.9916 188.546 46.6313 187.159C45.9239 184.573 45.2566 181.907 44.6294 179.147C44.269 177.627 43.922 176.081 43.5884 174.521C42.9344 171.415 42.3205 168.229 41.7866 164.963H41.7733C41.5331 163.496 41.2928 162.03 41.0793 160.537C40.5855 157.204 40.1451 153.804 39.8114 150.338C39.6379 148.645 39.4778 146.939 39.371 145.206C39.1174 142.086 38.9573 138.926 38.8772 135.727C38.8105 133.807 38.7971 131.887 38.7971 129.941C38.8105 125.542 38.984 121.089 39.331 116.596V116.583C39.4644 114.89 39.6246 113.197 39.8114 111.504C40.4387 105.625 41.3996 99.6922 42.7342 93.7464C44.8429 84.3077 47.9125 74.8291 52.1299 65.4705C52.2633 65.1639 52.637 65.0305 52.944 65.1639C53.2643 65.2972 53.4111 65.6438 53.2776 65.9371C49.1537 75.0824 46.1375 84.3344 44.0555 93.573C42.7743 99.1989 41.8267 104.825 41.1861 110.384C41.106 111.077 41.0259 111.757 40.9592 112.45C40.3586 118.209 40.0783 123.902 40.0517 129.514C40.0383 130.634 40.0383 131.754 40.065 132.874C40.1584 141.513 40.8524 149.898 41.9601 157.897C42.0536 158.657 42.1603 159.417 42.2804 160.177C42.8009 163.776 43.4149 167.296 44.0822 170.708C44.229 171.442 44.3624 172.162 44.5226 172.881C45.4168 177.267 46.4044 181.48 47.4587 185.48C47.5788 185.933 47.699 186.386 47.8191 186.839C48.1928 188.239 48.5665 189.599 48.9535 190.945C49.8343 194.025 50.7819 197.131 51.7295 200.197C52.0631 201.277 52.4101 202.357 52.7438 203.424C52.9039 203.957 53.0774 204.477 53.2376 205.01C56.9745 216.835 60.8182 229.073 62.4197 241.511Z"
        fill="#19911C"
      />
      <path
        d="M42.4673 96.7194C42.4673 96.7194 45.7638 55.8587 54.679 55.992C63.5941 56.112 42.4673 96.7194 42.4673 96.7194Z"
        fill="#19911C"
      />
      <path
        d="M39.8782 118.036C39.8782 118.036 24.5302 78.2154 30.923 76.469C37.3158 74.7226 40.1451 115.557 40.1451 115.557L39.8782 118.036Z"
        fill="#19911C"
      />
      <path
        d="M40.8257 111.011C40.8257 111.011 60.5646 76.1357 65.9297 79.8285C71.2948 83.5347 41.0125 112.864 41.0125 112.864L40.8257 111.011Z"
        fill="#19911C"
      />
      <path
        d="M39.9582 137.527C39.9582 137.527 12.9724 93.3198 19.7789 89.5071C26.5854 85.6943 39.1574 131.221 39.1574 131.221L39.9582 137.527Z"
        fill="#19911C"
      />
      <path
        d="M40.5855 151.191C40.5855 151.191 6.40619 113.637 12.3986 108.731C18.3776 103.825 39.9182 146.286 39.9182 146.286L40.5855 151.191Z"
        fill="#19911C"
      />
      <path
        d="M8.70166 131.488C8.70166 129.195 11.2508 127.795 13.1593 129.048C21.8476 134.754 37.9029 156.204 41.0793 160.523C41.4396 161.017 41.6398 161.283 41.6398 161.283L43.0945 166.029C43.0945 166.029 42.6274 165.656 41.7866 164.949C36.2079 160.39 14.3471 142.153 9.04866 132.861C8.80843 132.448 8.70166 131.981 8.70166 131.488Z"
        fill="#19911C"
      />
      <path
        d="M45.9373 180.147C45.9373 180.147 5.03155 149.312 9.94291 143.419C14.8409 137.527 44.3091 175.454 44.3091 175.454L45.9373 180.147Z"
        fill="#19911C"
      />
      <path
        d="M48.0993 188.892C48.0993 188.892 -2.28214 164.469 1.73503 157.124C5.73885 149.765 47.2585 186.613 47.2585 186.613L48.0993 188.892Z"
        fill="#19911C"
      />
      <path
        d="M52.7971 203.69C52.7971 203.69 -0.120104 180.32 3.75026 172.588C7.62063 164.843 51.8362 201.357 51.8362 201.357L52.7971 203.69Z"
        fill="#19911C"
      />
      <path
        d="M39.1708 131.221C39.1708 131.221 57.5216 94.3864 64.4483 98.2259C71.3615 102.065 39.6112 133.314 39.6112 133.314L39.1708 131.221Z"
        fill="#19911C"
      />
      <path
        d="M40.5854 142.206C40.5854 142.206 69.3596 107.985 76.3129 112.717C83.2662 117.45 40.6121 144.353 40.6121 144.353L40.5854 142.206Z"
        fill="#19911C"
      />
      <path
        d="M41.3729 158.591C41.3729 158.591 70.1471 124.369 77.1004 129.102C84.0537 133.834 41.3996 160.737 41.3996 160.737L41.3729 158.591Z"
        fill="#19911C"
      />
      <path
        d="M43.5616 171.322C43.5616 171.322 72.3358 137.1 79.2891 141.833C86.2424 146.566 43.5883 173.468 43.5883 173.468L43.5616 171.322Z"
        fill="#19911C"
      />
      <path
        d="M47.4054 184.667C47.4054 184.667 76.7534 145.366 84.6944 150.152C92.6353 154.938 47.5789 187.026 47.5789 187.026L47.4054 184.667Z"
        fill="#19911C"
      />
      <path
        d="M51.7162 200.211C51.7162 200.211 80.3702 156.657 88.3779 161.017C96.3855 165.376 52.2233 203.864 52.2233 203.864L51.7162 200.211Z"
        fill="#19911C"
      />
      <path
        d="M201.406 222.834L100.763 268.787L91.741 272.307L71.5751 263.002L61.6723 240.285L58.5093 233.046L36.6217 182.84L32.9248 174.348L19.7789 144.206L124.052 94.5195L125.6 94.9595L127.348 95.4527L128.323 95.7194L130.645 96.3726L131.619 96.6392L133.941 97.2925L134.902 97.5724L137.238 98.2257L138.212 98.5056L140.654 99.1855L141.602 99.4521L144.511 100.265L146.527 100.839L148.248 101.319L201.406 222.834Z"
        fill="#3A1B1A"
      />
      <path
        opacity="0.23"
        d="M146.527 100.839L44.309 152.044L19.7789 144.206L124.052 94.5195L146.527 100.839Z"
        fill="#D2695F"
      />
      <path
        d="M144.551 100.252L47.7523 147.605C46.1641 148.378 44.3624 148.605 42.6541 148.245C42.3471 148.205 42.0402 148.112 41.7332 148.018L41.6798 148.005L38.6369 147.005L37.7294 146.698L35.5406 145.979L34.6331 145.685L32.431 144.965L31.5234 144.659L29.3347 143.939C29.0678 143.845 28.8542 143.699 28.7074 143.499C28.2136 142.872 28.3471 141.872 29.1745 141.473L125.92 94.7993L127.642 95.3059L128.59 95.5859L130.898 96.2524L131.846 96.5324L134.142 97.199L135.089 97.4789L137.385 98.1588L138.332 98.4388L140.748 99.1454L141.682 99.412L144.551 100.252Z"
        fill="#FEE9D0"
      />
      <path
        d="M128.59 95.5856L29.3347 143.939C29.0677 143.845 28.8542 143.699 28.7074 143.499L127.642 95.3057L128.59 95.5856Z"
        fill="#FEA485"
      />
      <path
        d="M131.846 96.5319L32.431 144.965L31.5234 144.658L130.898 96.252L131.846 96.5319Z"
        fill="#FEA485"
      />
      <path
        d="M135.089 97.4787L35.5406 145.978L34.6331 145.685L134.141 97.1987L135.089 97.4787Z"
        fill="#FEA485"
      />
      <path
        d="M138.332 98.4386L38.6369 147.005L37.7294 146.698L137.385 98.1587L138.332 98.4386Z"
        fill="#FEA485"
      />
      <path
        d="M141.682 99.4116L42.6541 148.245C42.3471 148.205 42.0402 148.111 41.7332 148.018L41.6798 148.005L140.748 99.145L141.682 99.4116Z"
        fill="#FEA485"
      />
      <path
        opacity="0.47"
        d="M91.741 272.48L71.5751 263.002L61.6723 240.285L58.5093 233.046L36.6217 182.84L32.9248 174.348L19.7789 144.206L44.309 152.044L55.1861 179.387L58.1089 186.746L78.088 236.952L80.5971 243.284L91.741 272.48Z"
        fill="#D2695F"
      />
      <path
        d="M58.1089 186.746L36.6217 182.84L32.9248 174.348L55.1861 179.387L58.1089 186.746Z"
        fill="#FFC107"
      />
      <path
        d="M80.5971 243.284L61.6723 240.285L58.5093 233.046L78.088 236.952L80.5971 243.284Z"
        fill="#FFC107"
      />
      <path
        d="M53.3444 162.083L90.9803 258.296C95.865 256.069 101.604 258.402 103.552 263.388L188.487 224.741C186.485 220.075 188.58 214.675 193.198 212.569L150.771 113.757C145.953 116.236 140.041 114.117 137.905 109.144L57.7619 150.391C59.5103 154.844 57.6018 159.897 53.3444 162.083Z"
        stroke="#FED285"
        stroke-width="0.5"
        stroke-miterlimit="10"
        stroke-linecap="round"
        stroke-linejoin="round"
      />
      <path
        d="M114.266 151.159L109.629 153.243L137.522 215.189L142.159 213.105L114.266 151.159Z"
        fill="#FFC107"
      />
      <path
        d="M140.993 161.865L101.844 180.553L104.036 185.136L143.185 166.448L140.993 161.865Z"
        fill="#FFC107"
      />
      <path
        d="M148.195 65.8175L124.412 91.0272L117.859 89.814H116.885C116.885 89.814 115.35 87.681 112.107 83.4416C109.198 79.6422 104.9 74.1496 99.1615 67.0173C87.0299 51.9929 66.6371 24.8368 66.6371 24.8368C66.6371 24.8368 76.5933 15.8648 84.6143 18.2778C92.6219 20.7041 95.2911 24.8368 95.2911 24.8368C95.2911 24.8368 104.754 16.1048 117.379 24.1036C130.004 32.1024 130.245 47.6202 130.245 47.6202C130.245 47.6202 146.02 49.7399 147.995 62.9779C148.128 63.8978 148.195 64.8177 148.195 65.8175Z"
        fill="#FEE9D0"
      />
      <path
        opacity="0.21"
        d="M148.195 65.8176L124.412 91.0273L117.859 89.8141H116.885C116.885 89.8141 115.35 87.6811 112.107 83.4417L147.995 62.978C148.128 63.8979 148.195 64.8178 148.195 65.8176Z"
        fill="#FEA485"
      />
      <path
        d="M225.135 139.78C224.708 141.993 223.761 144.059 222.119 145.712C221.879 145.952 221.625 146.192 221.372 146.406C219.49 148.059 217.128 149.245 214.659 149.818C212.843 150.245 210.962 150.325 209.16 150.018C209.053 151.551 208.826 153.071 208.453 154.578C208.092 156.124 207.585 157.644 206.958 159.097C206.771 159.537 206.571 159.964 206.344 160.39C205.89 161.243 205.343 162.043 204.636 162.71C203.595 163.656 202.313 164.243 200.952 164.63C200.538 164.736 200.125 164.843 199.711 164.923C192.784 166.283 184.443 164.163 179.505 159.124C178.491 160.857 177.049 162.257 175.354 163.283C174.487 163.816 173.566 164.243 172.592 164.576C169.722 165.576 166.493 165.723 163.57 164.896C157.724 163.243 153.146 158.364 150.771 152.765C147.955 154.858 144.698 156.484 141.228 156.831C137.732 157.151 133.755 155.897 131.446 153.285C133.287 151.618 135.143 149.965 136.998 148.299C139.654 145.926 142.389 143.739 145.005 141.446C147.234 139.5 149.369 137.473 151.291 135.194C137.919 136.407 124.292 130.701 115.15 120.863C114.243 119.903 113.388 118.903 112.574 117.85C112.281 117.463 111.987 117.076 111.693 116.677C111.627 116.583 111.56 116.503 111.507 116.41C111.133 115.89 110.773 115.357 110.412 114.823C110.292 114.65 110.172 114.464 110.052 114.29C109.705 113.77 109.371 113.237 109.024 112.717C108.904 112.53 108.784 112.33 108.664 112.144C108.37 111.691 108.077 111.237 107.77 110.784C107.65 110.597 107.529 110.411 107.396 110.224C107.102 109.771 106.795 109.331 106.475 108.891C106.342 108.704 106.222 108.518 106.075 108.344C105.848 108.024 105.621 107.718 105.381 107.411C105.287 107.291 105.181 107.158 105.074 107.038C104.94 106.851 104.794 106.678 104.647 106.505C104.353 106.158 104.046 105.825 103.753 105.491C103.459 105.185 103.165 104.892 102.872 104.612C101.07 102.852 98.988 101.425 96.6124 100.652C95.7849 100.386 94.9041 100.212 94.0099 100.146C91.0871 99.919 88.0442 100.799 86.109 102.932C86.109 102.932 86.2558 98.1059 88.538 93.08C89.9527 89.9338 92.2082 86.7209 95.7716 84.5479C102.418 80.5085 107.676 84.6945 114.269 86.3076C116.872 86.9609 119.688 87.2008 122.891 86.3743C129.083 84.7745 138.773 75.2559 148.102 63.9776C155.776 54.6856 163.209 44.2071 168.241 35.995C174.34 25.9831 180.893 12.2251 186.138 2.09326C192.624 4.87952 198.843 8.21237 204.742 12.0251C206.05 13.9982 206.878 16.5178 206.464 19.6374C205.196 29.2626 196.628 36.3549 196.628 36.3549C196.628 36.3549 210.468 47.46 203.194 62.911C195.907 78.3755 178.971 78.5621 178.971 78.5621C178.971 78.5621 194.639 86.9209 183.882 99.1058C173.339 111.064 155.082 102.705 154.401 102.385C157.297 108.051 162.475 112.224 167.734 115.77C173.005 119.316 178.891 121.849 184.87 124.022C193.398 127.102 202.193 129.461 211.122 131.061C213.951 131.568 216.794 132.008 219.65 132.354C221.438 132.581 223.24 132.781 225.042 132.941C225.456 135.22 225.549 137.58 225.135 139.78Z"
        fill="#FEE9D0"
      />
      <path
        d="M94.0232 100.132C91.1004 99.9056 88.0442 100.785 86.1223 102.918C86.1223 102.918 86.2691 98.0925 88.5513 93.0532C90.7934 93.4265 92.8354 94.9863 93.7029 97.106C94.0899 98.0525 94.2634 99.1323 94.0232 100.132Z"
        fill="#FFC107"
      />
      <path
        d="M99.682 92.6402C100.987 92.6402 102.044 91.5838 102.044 90.2806C102.044 88.9774 100.987 87.9209 99.682 87.9209C98.3773 87.9209 97.3197 88.9774 97.3197 90.2806C97.3197 91.5838 98.3773 92.6402 99.682 92.6402Z"
        fill="#3A1B1A"
      />
      <path
        opacity="0.21"
        d="M168.241 131.901L145.005 141.433C147.234 139.5 149.37 137.46 151.291 135.18L168.241 131.901Z"
        fill="#FEA485"
      />
      <path
        d="M50.2747 239.898C49.9678 240.018 49.6608 240.138 49.3405 240.232C44.4425 231.553 39.3443 222.661 32.0707 215.675C32.2175 215.502 32.3509 215.329 32.4978 215.169C39.6646 222.048 44.7228 230.713 49.5274 239.232C48.5798 229.553 47.8324 220.181 47.1918 209.996C47.4187 210.023 47.6456 210.076 47.8724 210.129C48.5264 220.501 49.2871 230.02 50.2747 239.898Z"
        fill="#3A1B1A"
      />
      <path
        d="M60.0441 225.381C60.0441 231.94 56.0135 237.552 50.2747 239.898C49.9678 240.018 49.6608 240.138 49.3405 240.232C47.779 240.765 46.0974 241.045 44.3624 241.045C35.7141 241.045 28.6941 234.033 28.6941 225.381C28.6941 221.714 29.962 218.342 32.0707 215.675C32.2175 215.502 32.3509 215.329 32.4977 215.169C35.3671 211.836 39.6245 209.729 44.3624 209.729C45.3233 209.729 46.2709 209.823 47.1918 209.996C47.4187 210.023 47.6455 210.076 47.8724 210.129C54.8524 211.716 60.0441 217.942 60.0441 225.381Z"
        fill="#6CDEF2"
      />
      <path
        d="M78.2215 243.725C77.9012 243.631 77.5809 243.551 77.2739 243.431C78.5552 233.553 79.7963 223.381 78.1681 213.436C78.395 213.382 78.5952 213.329 78.8087 213.289C80.4236 223.088 79.2758 233.046 78.0213 242.751C83.0661 234.433 88.0843 226.474 93.6763 217.942C93.8364 218.102 93.9966 218.275 94.1434 218.462C88.4579 227.14 83.3597 235.219 78.2215 243.725Z"
        fill="#3A1B1A"
      />
      <path
        d="M94.7573 237.939C90.8202 243.191 84.2272 245.271 78.2348 243.725C77.9145 243.631 77.5942 243.551 77.2872 243.431C75.7124 242.925 74.2043 242.138 72.8163 241.098C65.8897 235.926 64.475 226.114 69.6533 219.182C71.8554 216.249 74.8849 214.302 78.1814 213.422C78.4083 213.369 78.6085 213.316 78.822 213.276C83.1195 212.329 87.7906 213.182 91.5809 216.022C92.355 216.595 93.049 217.235 93.6896 217.928C93.8497 218.088 94.0099 218.262 94.1567 218.448C98.7878 223.888 99.2149 231.98 94.7573 237.939Z"
        fill="#FF9535"
      />
      <path
        d="M58.8696 268.787H58.1756C55.6265 259.216 52.8905 249.537 49.5673 240.165C49.5273 240.018 49.4739 239.885 49.4205 239.738C49.3671 239.565 49.4472 239.378 49.6207 239.312C49.7942 239.258 49.9944 239.338 50.0478 239.512C50.1012 239.658 50.1546 239.792 50.1946 239.938C53.5578 249.39 56.3071 259.149 58.8696 268.787Z"
        fill="#3A1B1A"
      />
      <path
        d="M78.3148 243.551C78.3148 243.564 78.3014 243.578 78.3014 243.591C78.2881 243.644 78.2748 243.684 78.2614 243.738C77.514 246.204 76.5398 248.63 75.6055 250.99C75.3386 251.657 75.0717 252.323 74.8048 252.99C72.7762 258.149 71.0412 263.428 69.5865 268.787H68.8925C70.3605 263.348 72.1222 257.989 74.1909 252.75C74.4578 252.083 74.7247 251.403 74.9916 250.737C75.9258 248.404 76.8868 245.991 77.6208 243.551C77.6341 243.484 77.6608 243.431 77.6742 243.364C77.7276 243.191 77.9144 243.084 78.0879 243.138C78.2748 243.191 78.3682 243.378 78.3148 243.551Z"
        fill="#3A1B1A"
      />
      <path
        d="M206.197 240.778C206.531 240.805 206.851 240.832 207.185 240.832C209.373 231.113 211.709 221.128 216.66 212.356C216.474 212.236 216.287 212.103 216.1 211.996C211.215 220.648 208.866 230.393 206.718 239.939C204.836 230.393 202.861 221.208 200.538 211.263C200.325 211.356 200.125 211.476 199.924 211.583C202.287 221.688 204.302 231.033 206.197 240.778Z"
        fill="#3A1B1A"
      />
      <path
        d="M192.664 229.673C194.546 235.952 200.031 240.178 206.197 240.778C206.531 240.805 206.851 240.832 207.185 240.832C208.84 240.898 210.521 240.685 212.19 240.178C220.477 237.699 225.175 228.967 222.693 220.674C221.639 217.168 219.45 214.302 216.66 212.342C216.474 212.222 216.287 212.089 216.1 211.982C212.39 209.609 207.705 208.823 203.168 210.183C202.247 210.463 201.366 210.823 200.538 211.249C200.325 211.343 200.125 211.463 199.924 211.569C193.705 215.089 190.515 222.541 192.664 229.673Z"
        fill="#FF7B02"
      />
      <path
        d="M233.57 246.551C232.889 247.377 232.209 248.204 231.541 249.044C230.847 249.883 230.18 250.723 229.526 251.563C228.725 252.576 227.938 253.59 227.164 254.603C223.68 259.149 220.331 263.788 217.061 268.427H216.247C219.597 263.655 223.053 258.869 226.63 254.203C226.763 254.029 226.884 253.856 227.017 253.696C227.671 252.843 228.325 252.003 228.992 251.163C230.327 249.457 231.688 247.777 233.063 246.124C233.183 245.991 233.383 245.964 233.53 246.084C233.663 246.204 233.69 246.404 233.57 246.551Z"
        fill="#3A1B1A"
      />
      <path
        d="M206.224 268.788H205.543C206.13 262.762 206.344 256.696 206.21 250.644C206.197 249.924 206.17 249.204 206.157 248.484C206.077 245.964 205.997 243.351 206.144 240.778C206.144 240.725 206.157 240.685 206.157 240.632V240.578C206.17 240.405 206.344 240.259 206.517 240.272C206.704 240.285 206.838 240.445 206.824 240.632C206.824 240.698 206.811 240.752 206.811 240.818C206.664 243.365 206.744 245.964 206.824 248.471C206.838 249.191 206.864 249.91 206.878 250.63C207.011 256.683 206.798 262.749 206.224 268.788Z"
        fill="#3A1B1A"
      />
      <path
        d="M226.79 253.843C227.044 254.056 227.284 254.283 227.551 254.483C235.131 248.017 242.979 241.405 252.214 237.339C252.134 237.125 252.068 236.912 251.987 236.712C242.885 240.711 235.158 247.124 227.724 253.47C231.942 244.711 235.865 236.165 239.963 226.807C239.736 226.754 239.509 226.727 239.282 226.7C235.105 236.232 231.114 244.911 226.79 253.843Z"
        fill="#3A1B1A"
      />
      <path
        d="M222.599 236.859C220.344 243.018 222.199 249.67 226.777 253.843C227.03 254.056 227.271 254.283 227.538 254.483C228.819 255.523 230.3 256.362 231.928 256.949C240.056 259.922 249.051 255.736 252.028 247.617C253.282 244.178 253.255 240.565 252.188 237.339C252.108 237.125 252.041 236.912 251.961 236.712C250.413 232.593 247.143 229.153 242.685 227.54C241.778 227.207 240.857 226.967 239.936 226.82C239.709 226.767 239.482 226.74 239.255 226.713C232.182 225.807 225.162 229.873 222.599 236.859Z"
        fill="#00C2E4"
      />
      <path
        d="M235.32 58.0005L229.639 52.3257L224.024 57.9345L229.705 63.6094L235.32 58.0005Z"
        fill="#FFC107"
      />
      <path
        d="M235.785 85.7868L233.058 83.0625L230.359 85.7585L233.086 88.4828L235.785 85.7868Z"
        fill="#FFC107"
      />
      <path
        d="M28.0173 238.77L22.3362 233.095L16.7212 238.704L22.4022 244.378L28.0173 238.77Z"
        fill="#FFC107"
      />
      <path
        d="M42.4478 252.585L39.7205 249.86L37.0215 252.556L39.7488 255.281L42.4478 252.585Z"
        fill="#FFC107"
      />
      <path
        d="M81.251 65.0443C81.251 65.0443 78.0747 67.0307 77.0871 67.9905C75.8325 69.217 73.9908 73.0165 73.9908 73.0165C73.9908 73.0165 71.455 69.2037 70.5074 68.2572C69.4798 67.244 66.1967 65.3243 66.1967 65.3243C67.7448 64.2844 69.7334 63.5112 71.0413 62.1914C72.1757 61.0316 73.6972 57.832 73.6972 57.832C73.6972 57.832 75.4722 60.8716 76.6333 62.0048C77.7544 63.0979 81.251 65.0443 81.251 65.0443Z"
        fill="#FFC107"
      />
      <path
        d="M181.654 251.11C181.654 251.11 178.477 253.097 177.49 254.056C176.235 255.283 174.393 259.082 174.393 259.082C174.393 259.082 171.858 255.27 170.91 254.323C169.896 253.31 166.599 251.39 166.599 251.39C168.148 250.35 170.136 249.577 171.444 248.257C172.578 247.097 174.1 243.898 174.1 243.898C174.1 243.898 175.875 246.938 177.036 248.071C178.157 249.177 181.654 251.11 181.654 251.11Z"
        fill="#FFC107"
      />
      <path
        d="M258.714 110.611C258.714 110.611 255.538 112.597 254.55 113.557C253.296 114.783 251.454 118.583 251.454 118.583C251.454 118.583 248.918 114.77 247.97 113.824C246.956 112.81 243.66 110.891 243.66 110.891C245.208 109.851 247.196 109.078 248.504 107.758C249.639 106.598 251.16 103.398 251.16 103.398C251.16 103.398 252.935 106.438 254.096 107.571C255.204 108.664 258.714 110.611 258.714 110.611Z"
        fill="#FFC107"
      />
      <path
        d="M25.8248 145.819C25.8248 145.819 22.6484 147.805 21.6608 148.765C20.4063 149.991 18.5645 153.791 18.5645 153.791C18.5645 153.791 16.0287 149.978 15.0812 149.032C14.0669 148.018 10.7704 146.099 10.7704 146.099C12.3185 145.059 14.3071 144.286 15.615 142.966C16.7494 141.806 18.2709 138.606 18.2709 138.606C18.2709 138.606 20.0459 141.646 21.207 142.779C22.3281 143.886 25.8248 145.819 25.8248 145.819Z"
        fill="#FFC107"
      />
      <path
        d="M163.863 19.3841C163.863 19.3841 157.978 23.0635 156.136 24.8499C153.814 27.1163 150.384 34.1686 150.384 34.1686C150.384 34.1686 145.699 27.1029 143.924 25.3432C142.029 23.4635 135.93 19.904 135.93 19.904C138.813 17.9709 142.496 16.5445 144.912 14.0915C147.021 11.9452 149.837 6.0127 149.837 6.0127C149.837 6.0127 153.12 11.6519 155.282 13.7582C157.364 15.7846 163.863 19.3841 163.863 19.3841Z"
        fill="#FFC107"
      />
    </svg>