<svg width="113" height="170" viewBox="0 0 113 106" fill="none" xmlns="http://www.w3.org/2000/svg">
<g clip-path="url(#clip0_806_13801)">
<path d="M50.5479 19.3351C49.783 19.1002 48.9791 19.0186 48.1825 19.0948C47.3859 19.171 46.6123 19.4035 45.9062 19.779C45.2001 20.1545 44.5755 20.6656 44.0685 21.2827C43.5614 21.8998 43.1818 22.6109 42.9517 23.3748L42.5693 24.5944L41.3457 24.2133C39.801 23.7461 38.1333 23.9092 36.7091 24.6666C35.2848 25.4241 34.2204 26.714 33.7495 28.2531C33.5136 29.0171 33.4314 29.8201 33.5075 30.6159C33.5836 31.4116 33.8167 32.1846 34.1932 32.8904C34.5698 33.5963 35.0825 34.221 35.7018 34.7289C36.3212 35.2367 37.0351 35.6177 37.8025 35.8499L50.6753 39.7373L54.2185 28.126L54.6009 26.9065C55.0696 25.3667 54.906 23.7045 54.1461 22.2849C53.3861 20.8653 52.092 19.8043 50.5479 19.3351Z" fill="#EB274B"/>
<path d="M50.5478 19.3351C50.0444 19.1766 49.5208 19.091 48.9929 19.0811C50.1355 19.7816 51.0129 20.8398 51.488 22.0902C51.963 23.3406 52.0089 24.7127 51.6184 25.9919L51.2361 27.2368L48.6615 35.6213C48.5333 36.0438 48.3227 36.4369 48.0417 36.7781C47.7608 37.1193 47.415 37.4019 47.0243 37.6096C46.6335 37.8173 46.2055 37.9461 45.7647 37.9886C45.3239 38.0311 44.879 37.9864 44.4556 37.8572L50.6753 39.7373L54.2185 28.1261L54.6008 26.9066C55.0695 25.3668 54.906 23.7046 54.146 22.285C53.3861 20.8654 52.092 19.8044 50.5478 19.3351Z" fill="#EB274B"/>
<path d="M39.5615 25.9666C38.8951 25.9761 38.2403 26.1414 37.6497 26.4493C36.6979 26.9542 35.9837 27.8121 35.6614 28.8376C35.3521 29.8709 35.4619 30.9839 35.9673 31.9373C36.2705 32.4925 36.6979 32.9707 37.2164 33.3347L37.3438 33.411C37.4839 33.4954 37.6414 33.5466 37.8045 33.5609C37.9675 33.5751 38.1317 33.5518 38.2843 33.493C38.4369 33.4341 38.5739 33.3411 38.6849 33.2212C38.7958 33.1012 38.8777 32.9576 38.9242 32.8012L40.5811 27.3894C40.6321 27.2297 40.6456 27.0604 40.6205 26.8946C40.5953 26.7289 40.5323 26.5711 40.4361 26.4336C40.34 26.296 40.2135 26.1823 40.0662 26.1014C39.919 26.0204 39.755 25.9742 39.587 25.9666H39.5615Z" fill="#F93B5E"/>
<path d="M37.3439 28.8374C37.5065 29.1513 37.5388 29.5163 37.4339 29.8538C37.329 30.1913 37.0953 30.4741 36.7831 30.6413C36.4681 30.8034 36.1019 30.8357 35.7634 30.7311C35.4248 30.6265 35.141 30.3936 34.9732 30.0824C34.8185 29.7711 34.7904 29.4122 34.8949 29.0808C34.9994 28.7493 35.2284 28.4709 35.534 28.3039C35.6877 28.2192 35.8568 28.1659 36.0313 28.1469C36.2059 28.128 36.3825 28.1438 36.5509 28.1934C36.7193 28.2431 36.8761 28.3255 37.0122 28.4361C37.1483 28.5467 37.2611 28.6831 37.3439 28.8374Z" fill="#EFCCD2"/>
<path d="M96.0233 43.6247C95.4888 43.0324 94.8422 42.5512 94.1205 42.2087C93.3989 41.8662 92.6164 41.6693 91.8182 41.6291C91.0199 41.589 90.2216 41.7065 89.469 41.9748C88.7165 42.2432 88.0245 42.6571 87.4329 43.1928L86.4643 44.0312L85.5976 43.0912C85.0631 42.4988 84.4165 42.0176 83.6948 41.6751C82.9732 41.3327 82.1908 41.1357 81.3925 41.0956C80.5943 41.0554 79.7959 41.1729 79.0434 41.4413C78.2908 41.7096 77.5988 42.1235 77.0073 42.6592C75.8095 43.7353 75.0886 45.2409 75.0026 46.8459C74.9166 48.4509 75.4725 50.0244 76.5484 51.2216L85.5721 61.1813L94.6213 53.0509L95.5899 52.2125C96.185 51.6775 96.6684 51.0308 97.0123 50.3093C97.3562 49.5879 97.554 48.8059 97.5942 48.0082C97.6345 47.2105 97.5164 46.4127 97.2469 45.6605C96.9773 44.9083 96.5615 44.2165 96.0233 43.6247Z" fill="#EB274B"/>
<path d="M96.0233 43.6247C95.6734 43.232 95.2702 42.8899 94.8253 42.6084C95.4365 43.7964 95.6379 45.1521 95.3983 46.4656C95.1587 47.7792 94.4914 48.9774 93.4998 49.8749L92.5311 50.7388L85.98 56.6333C85.6531 56.9292 85.2705 57.1575 84.8545 57.3049C84.4384 57.4524 83.9971 57.5162 83.5562 57.4926C83.1153 57.469 82.6834 57.3584 82.2856 57.1673C81.8878 56.9762 81.532 56.7083 81.2388 56.3793L85.5722 61.1813L94.6214 53.0509L95.59 52.2124C96.1851 51.6775 96.6684 51.0308 97.0123 50.3093C97.3563 49.5879 97.554 48.8059 97.5943 48.0082C97.6345 47.2105 97.5165 46.4126 97.2469 45.6605C96.9774 44.9083 96.5616 44.2165 96.0233 43.6247Z" fill="#EB274B"/>
<path d="M83.1759 43.6755C82.604 43.3346 81.9554 43.1424 81.2896 43.1165C80.7578 43.0843 80.2249 43.1575 79.7217 43.3319C79.2185 43.5064 78.7551 43.7786 78.3582 44.1328C77.9588 44.4903 77.6356 44.9242 77.4079 45.4087C77.1801 45.8932 77.0525 46.4184 77.0327 46.9531C76.9867 47.581 77.1007 48.2102 77.364 48.7824C77.364 48.8332 77.3895 48.8587 77.415 48.9095C77.4919 49.0552 77.6015 49.1812 77.7354 49.2776C77.8692 49.3741 78.0237 49.4384 78.1866 49.4654C78.3495 49.4925 78.5165 49.4816 78.6745 49.4337C78.8325 49.3857 78.9773 49.3019 79.0974 49.1889L83.3288 45.4032C83.4541 45.2917 83.5521 45.153 83.615 44.9978C83.678 44.8426 83.7044 44.6751 83.6921 44.5081C83.6797 44.3411 83.6291 44.1792 83.544 44.0348C83.4589 43.8905 83.3417 43.7675 83.2014 43.6755H83.1759Z" fill="#F93B5E"/>
<path d="M79.7857 44.9967C79.7794 45.1714 79.7376 45.3431 79.663 45.5013C79.5883 45.6595 79.4823 45.8011 79.3513 45.9174C79.2203 46.0337 79.0671 46.1224 78.9008 46.1781C78.7345 46.2339 78.5586 46.2555 78.3837 46.2416C78.2084 46.2353 78.0362 46.1937 77.8774 46.1193C77.7187 46.0449 77.5767 45.9392 77.46 45.8086C77.3433 45.6781 77.2543 45.5253 77.1984 45.3596C77.1425 45.1938 77.1208 45.0185 77.1347 44.8442C77.1444 44.6706 77.1885 44.5006 77.2643 44.344C77.3401 44.1874 77.4461 44.0473 77.5764 43.9316C77.7066 43.816 77.8585 43.7271 78.0233 43.67C78.1881 43.613 78.3625 43.5889 78.5367 43.5992C78.712 43.6056 78.8842 43.6472 79.043 43.7216C79.2017 43.796 79.3437 43.9017 79.4604 44.0322C79.5771 44.1628 79.6661 44.3155 79.722 44.4813C79.7779 44.647 79.7996 44.8223 79.7857 44.9967Z" fill="#EFCCD2"/>
<path d="M43.8948 46.2163C42.9989 44.5621 41.4805 43.3304 39.6735 42.7919C37.8666 42.2535 35.9191 42.4525 34.2593 43.3452L32.9338 44.0566L32.2201 42.7354C31.7767 41.9194 31.1765 41.1985 30.4535 40.6138C29.7305 40.0291 28.8991 39.5921 28.0066 39.3279C27.1142 39.0636 26.1782 38.9772 25.2523 39.0736C24.3263 39.1701 23.4285 39.4474 22.6101 39.8898C20.9573 40.7828 19.7264 42.2917 19.1867 44.0866C18.6469 45.8816 18.8421 47.8165 19.7296 49.4684L27.1984 63.2393L39.6888 56.5063L41.0143 55.7949C42.6671 54.9019 43.898 53.393 44.4378 51.5981C44.9775 49.8031 44.7823 47.8681 43.8948 46.2163Z" fill="#EB274B"/>
<path d="M43.8948 46.2163C43.6029 45.6748 43.2337 45.1784 42.7987 44.7427C43.167 46.2584 43.0217 47.8531 42.3853 49.2778C41.749 50.7026 40.6575 51.8774 39.281 52.619L37.9555 53.3304L28.9318 58.1832C28.4791 58.4324 27.9812 58.5894 27.4671 58.645C26.953 58.7006 26.433 58.6537 25.9372 58.5071C25.4414 58.3605 24.9799 58.1171 24.5794 57.7911C24.1788 57.4651 23.8474 57.0629 23.6042 56.608L27.1984 63.2393L39.6888 56.5063L41.0144 55.7949C42.6672 54.902 43.898 53.3931 44.4378 51.5981C44.9776 49.8032 44.7823 47.8682 43.8948 46.2163Z" fill="#EB274B"/>
<path d="M29.3143 42.7609C28.7776 42.2022 28.0995 41.7984 27.3516 41.5922C26.7546 41.4097 26.1273 41.3471 25.5059 41.4082C24.8846 41.4692 24.2816 41.6527 23.7319 41.9479C23.1801 42.2417 22.6929 42.6426 22.2989 43.1269C21.9049 43.6113 21.6121 44.1693 21.4377 44.7681C21.2297 45.4774 21.1862 46.2246 21.3103 46.9531L21.3613 47.1056C21.4099 47.2912 21.5009 47.4631 21.6272 47.6079C21.7535 47.7527 21.9117 47.8664 22.0893 47.9402C22.267 48.014 22.4594 48.0458 22.6515 48.0333C22.8435 48.0207 23.0301 47.9641 23.1966 47.8678L29.0084 44.7427C29.1798 44.6508 29.3278 44.521 29.441 44.3633C29.5543 44.2056 29.6298 44.0241 29.6618 43.8328C29.6937 43.6415 29.6814 43.4454 29.6256 43.2596C29.5698 43.0738 29.472 42.9032 29.3398 42.7609H29.3143Z" fill="#F93B5E"/>
<path d="M25.1084 43.2943C25.0559 43.4906 24.964 43.6741 24.8382 43.8339C24.7124 43.9937 24.5553 44.1263 24.3765 44.2237C24.1977 44.3211 24.0009 44.3813 23.7981 44.4006C23.5953 44.4199 23.3906 44.398 23.1966 44.336C22.9997 44.2837 22.8155 44.1921 22.6552 44.0667C22.4949 43.9413 22.3619 43.7848 22.2641 43.6066C22.1664 43.4284 22.106 43.2322 22.0866 43.0301C22.0673 42.8279 22.0893 42.6239 22.1514 42.4305C22.2039 42.2342 22.2958 42.0507 22.4216 41.8909C22.5474 41.7311 22.7045 41.5985 22.8833 41.5011C23.0621 41.4037 23.2589 41.3435 23.4617 41.3242C23.6645 41.3049 23.8692 41.3268 24.0632 41.3888C24.2601 41.4411 24.4443 41.5327 24.6046 41.6581C24.7649 41.7835 24.8979 41.94 24.9957 42.1182C25.0934 42.2964 25.1538 42.4926 25.1732 42.6947C25.1925 42.8969 25.1705 43.1009 25.1084 43.2943Z" fill="#EFCCD2"/>
<path d="M68.468 39.3054C66.7946 38.4404 64.8451 38.273 63.0479 38.8399C61.2507 39.4069 59.7529 40.6618 58.8835 42.3289L58.1952 43.6501L56.8442 42.9641C56.0205 42.5285 55.1182 42.2605 54.1896 42.1757C53.2611 42.0908 52.3249 42.1908 51.4354 42.4697C50.546 42.7487 49.721 43.2011 49.0086 43.8007C48.2961 44.4002 47.7103 45.135 47.2853 45.9622C46.8483 46.7832 46.5794 47.6826 46.4942 48.6081C46.4091 49.5336 46.5094 50.4668 46.7892 51.3533C47.0691 52.2399 47.523 53.0621 48.1245 53.7723C48.7261 54.4824 49.4632 55.0663 50.2931 55.49L64.211 62.7311L70.7621 50.1798L71.4759 48.8586C72.3387 47.1925 72.5068 45.2543 71.9435 43.4653C71.3803 41.6763 70.1312 40.1814 68.468 39.3054Z" fill="#EB274B"/>
<path d="M68.4678 39.3053C67.9177 39.031 67.3354 38.8261 66.7344 38.6956C67.8894 39.7464 68.6632 41.1486 68.9352 42.6835C69.2073 44.2185 68.9623 45.8 68.2384 47.1816L67.5501 48.5028L62.7834 57.5987C62.3005 58.5123 61.4748 59.1985 60.4864 59.5079C59.498 59.8173 58.427 59.7246 57.5068 59.2502L64.2109 62.731L70.762 50.1797L71.4757 48.8585C72.3386 47.1924 72.5066 45.2542 71.9434 43.4652C71.3801 41.6763 70.131 40.1813 68.4678 39.3053Z" fill="#EB274B"/>
<path d="M54.4481 44.5647C53.6819 44.4371 52.8964 44.4893 52.154 44.7172C51.5596 44.8986 51.0077 45.1966 50.5306 45.5937C50.0534 45.9907 49.6607 46.4788 49.3755 47.0292C49.0835 47.5789 48.9039 48.1808 48.847 48.8001C48.7901 49.4194 48.8571 50.0438 49.0441 50.6371C49.2644 51.343 49.6487 51.9872 50.1657 52.5173L50.2931 52.6443C50.4388 52.7644 50.6094 52.8507 50.7926 52.897C50.9758 52.9433 51.1671 52.9484 51.3525 52.9119C51.538 52.8754 51.7129 52.7983 51.8648 52.6861C52.0166 52.5739 52.1415 52.4294 52.2304 52.2632L55.2893 46.3941C55.3805 46.2239 55.4307 46.035 55.436 45.8421C55.4414 45.6493 55.4017 45.4579 55.3202 45.2829C55.2386 45.108 55.1173 44.9544 54.966 44.8341C54.8147 44.7139 54.6374 44.6304 54.4481 44.5901V44.5647Z" fill="#F93B5E"/>
<path d="M51.2873 47.3851C51.4071 47.7759 51.3671 48.1981 51.1762 48.5597C50.9852 48.9214 50.6587 49.1932 50.2676 49.316C50.0737 49.3831 49.8681 49.4106 49.6633 49.3968C49.4584 49.383 49.2585 49.3282 49.0753 49.2358C48.8921 49.1433 48.7295 49.015 48.5972 48.8586C48.4648 48.7021 48.3654 48.5207 48.3049 48.3251C48.2417 48.13 48.218 47.9243 48.2352 47.72C48.2523 47.5156 48.31 47.3167 48.4048 47.1347C48.4997 46.9528 48.6298 46.7914 48.7876 46.6599C48.9455 46.5284 49.128 46.4295 49.3245 46.3688C49.72 46.2486 50.147 46.2877 50.514 46.4777C50.8809 46.6677 51.1585 46.9934 51.2873 47.3851Z" fill="#EFCCD2"/>
<path d="M62.5286 0.736782C61.3246 0.0315543 59.8893 -0.169224 58.5371 0.178434C57.185 0.526093 56.0262 1.39383 55.3147 2.59152L54.7539 3.55702L53.7853 2.99805C52.5844 2.29065 51.1514 2.08597 49.7996 2.42877C48.4477 2.77158 47.2871 3.63399 46.5714 4.82739C45.8639 6.0274 45.6625 7.45802 46.0113 8.8058C46.3601 10.1536 47.2306 11.3086 48.4322 12.0177L58.4756 17.9376L63.8286 8.89259L64.3894 7.92709C65.0969 6.72709 65.2984 5.29647 64.9496 3.94869C64.6008 2.60092 63.7302 1.44593 62.5286 0.736782Z" fill="#EB274B"/>
<path d="M62.5286 0.73692C62.1318 0.516555 61.7132 0.337755 61.2795 0.203369C62.0937 1.02879 62.6105 2.09996 62.7488 3.24929C62.8872 4.39861 62.6394 5.56124 62.0442 6.55524L61.4834 7.52072L57.6089 14.0504C57.419 14.3818 57.1647 14.672 56.861 14.9043C56.5573 15.1365 56.2102 15.3061 55.8399 15.4031C55.4697 15.5001 55.0838 15.5225 54.7047 15.4691C54.3257 15.4158 53.9611 15.2876 53.6323 15.0921L58.4755 17.9378L63.8286 8.89273L64.3894 7.92723C65.0969 6.72723 65.2983 5.2966 64.9496 3.94883C64.6008 2.60106 63.7302 1.44606 62.5286 0.73692Z" fill="#EB274B"/>
<path d="M51.9498 4.09063C51.3871 3.95911 50.8005 3.96783 50.2419 4.11603C49.3363 4.34404 48.5576 4.91933 48.0752 5.71671C47.8381 6.11427 47.6823 6.55466 47.6167 7.01252C47.551 7.47038 47.5769 7.93666 47.6929 8.3845C47.8391 8.90928 48.1003 9.39521 48.4576 9.80731L48.5341 9.90895C48.6391 10.005 48.7641 10.0768 48.9002 10.1191C49.0363 10.1615 49.1801 10.1733 49.3213 10.1539C49.4625 10.1345 49.5977 10.0843 49.7172 10.0068C49.8366 9.92931 49.9375 9.82649 50.0125 9.70567L52.5106 5.48804C52.5818 5.36223 52.6237 5.22211 52.6333 5.078C52.6429 4.9339 52.62 4.78948 52.5661 4.65539C52.5123 4.5213 52.429 4.40096 52.3224 4.30322C52.2157 4.20548 52.0884 4.13283 51.9498 4.09063Z" fill="#F93B5E"/>
<path d="M49.4774 6.04703C49.5551 6.34015 49.5128 6.65203 49.3598 6.91408C49.2068 7.17614 48.9557 7.36691 48.6617 7.44444C48.516 7.48639 48.3633 7.49848 48.2129 7.47997C48.0624 7.46146 47.9173 7.41273 47.7862 7.33674C47.6552 7.26075 47.541 7.15906 47.4505 7.03783C47.36 6.9166 47.2951 6.77833 47.2597 6.6314C47.2176 6.48623 47.2055 6.33406 47.224 6.18408C47.2426 6.03411 47.2915 5.88945 47.3677 5.75884C47.444 5.62822 47.546 5.51438 47.6676 5.42417C47.7892 5.33396 47.9279 5.26926 48.0754 5.23399C48.3694 5.15653 48.6824 5.19868 48.9453 5.35115C49.2082 5.50361 49.3996 5.75393 49.4774 6.04703Z" fill="#EFCCD2"/>
<path d="M77.8228 24.7214C77.3182 23.7622 76.4524 23.0416 75.4154 22.7177C74.3785 22.3938 73.255 22.4931 72.2914 22.9937L71.5266 23.4002L71.1188 22.638C70.6091 21.677 69.7388 20.956 68.6977 20.6323C67.6566 20.3086 66.5293 20.4085 65.5618 20.9103C64.5994 21.4133 63.8765 22.2763 63.5516 23.3098C63.2266 24.3434 63.3262 25.4632 63.8285 26.4237L68.0599 34.4525L75.3247 30.6668L76.0895 30.2603C76.5693 30.0112 76.995 29.6701 77.3421 29.2565C77.6891 28.8428 77.9507 28.3649 78.1118 27.8502C78.2729 27.3354 78.3303 26.794 78.2807 26.257C78.2311 25.7201 78.0755 25.1982 77.8228 24.7214Z" fill="#EB274B"/>
<path d="M77.8229 24.7215C77.6573 24.4084 77.4517 24.118 77.2111 23.8577C77.4123 24.7393 77.3165 25.6625 76.9387 26.4845C76.5609 27.3065 75.9221 27.9816 75.1209 28.4056L74.3562 28.7867L69.0796 31.5307C68.5487 31.809 67.9287 31.8663 67.3555 31.6901C66.7822 31.5139 66.3023 31.1186 66.0208 30.5906L68.06 34.4526L75.3248 30.6669L76.0896 30.2604C76.5694 30.0113 76.9951 29.6702 77.3422 29.2566C77.6892 28.8429 77.9508 28.365 78.1119 27.8503C78.273 27.3355 78.3304 26.7941 78.2808 26.2571C78.2312 25.7202 78.0756 25.1983 77.8229 24.7215Z" fill="#EB274B"/>
<path d="M69.4366 22.6126C69.116 22.2942 68.7222 22.0587 68.2895 21.9266C67.9466 21.8173 67.5853 21.7767 67.2265 21.8072C66.8678 21.8377 66.5186 21.9388 66.1993 22.1045C65.563 22.4497 65.0806 23.0212 64.8483 23.7051C64.7223 24.1166 64.6961 24.552 64.7718 24.9755C64.7712 25.011 64.78 25.0461 64.7973 25.0771C64.8226 25.1846 64.8726 25.2847 64.9434 25.3695C65.0142 25.4544 65.1038 25.5216 65.2052 25.566C65.3066 25.6104 65.417 25.6306 65.5275 25.6251C65.6381 25.6197 65.7459 25.5886 65.8424 25.5345L69.2326 23.7559C69.3359 23.7075 69.426 23.6351 69.4953 23.5447C69.5647 23.4544 69.6113 23.3488 69.6313 23.2369C69.6513 23.1249 69.644 23.0097 69.6101 22.9011C69.5762 22.7925 69.5167 22.6936 69.4366 22.6126Z" fill="#F93B5E"/>
<path d="M66.9894 22.8921C66.9186 23.1191 66.7619 23.3097 66.5525 23.4235C66.3432 23.5373 66.0976 23.5655 65.8678 23.5019C65.7525 23.4674 65.6455 23.41 65.553 23.3332C65.4606 23.2564 65.3847 23.1617 65.3299 23.0549C65.2752 22.9481 65.2426 22.8314 65.2343 22.7117C65.226 22.592 65.242 22.4719 65.2815 22.3586C65.3575 22.1363 65.5163 21.9516 65.7251 21.8428C65.9339 21.7341 66.1766 21.7095 66.4031 21.7742C66.5155 21.8089 66.6198 21.8654 66.7101 21.9405C66.8005 22.0156 66.8751 22.1077 66.9295 22.2116C66.984 22.3155 67.0174 22.4291 67.0276 22.5459C67.0379 22.6627 67.0249 22.7804 66.9894 22.8921Z" fill="#EFCCD2"/>
<path d="M106.143 47.5627H6.83154V105.99H106.143V47.5627Z" fill="#FF9535"/>
<path opacity="0.4" d="M106.169 62.1466V47.5881H6.83154V106H106.169C104.537 104.378 102.602 103.091 100.471 102.215C98.3414 101.339 96.059 100.89 93.7546 100.893H26.2299C21.5763 100.886 17.1156 99.039 13.8274 95.7567C10.5392 92.4745 8.69236 88.0257 8.69236 83.3873V62.1466H106.169Z" fill="#BF5C02"/>
<path d="M113 59.3772H0L6.83149 47.5627H106.169L113 59.3772Z" fill="#FFB067"/>
</g>
<defs>
<clipPath id="clip0_806_13801">
<rect width="113" height="106" fill="white"/>
</clipPath>
</defs>
</svg>
