<svg width="136" height="170" viewBox="0 0 136 94" fill="none" xmlns="http://www.w3.org/2000/svg">
<path opacity="0.5" d="M0 61.9757L54.9404 93.8696L136 46.5724L81.0596 14.6785L0 61.9757Z" fill="#09516D"/>
<path d="M8.46631 61.0698L54.0398 87.5272L127.174 44.9416L81.6001 18.4841L8.46631 61.0698Z" fill="#F26144"/>
<path d="M8.46631 61.0696V63.0629L54.0398 89.5204V87.527L8.46631 61.0696Z" fill="#DA3F19"/>
<path d="M127.174 44.9414V47.116L54.0398 89.5204V87.527L127.174 44.9414Z" fill="#CC3112"/>
<path d="M21.0757 55.0892L9.72731 61.7942L7.74585 52.9147L9.72731 45.3036L21.0757 38.5986V55.0892Z" fill="#CC3112"/>
<path d="M10.2677 44.2165L8.46633 42.4043C7.40373 45.306 6.85503 48.3727 6.84513 51.4651C6.72673 55.3956 7.27498 59.3177 8.46633 63.0629H10.0875C9.18478 59.6351 8.76041 56.0977 8.82659 52.5524C8.84312 49.7125 9.33015 46.8952 10.2677 44.2165Z" fill="#DA3F19"/>
<path d="M11.5286 45.1228V60.7073L54.0398 85.3526V69.7681L11.5286 45.1228Z" fill="#F4E9DF"/>
<path d="M123.931 29.1755L54.0398 68.8617V85.3523L123.931 44.7601V29.1755Z" fill="#E5D1C1"/>
<path d="M8.46631 44.579L54.0398 71.0364L127.174 28.632L81.6001 2.17456L8.46631 44.579Z" fill="#217C59"/>
<path d="M8.46631 42.4044L54.0398 68.8618L127.174 26.4574L81.6001 0L8.46631 42.4044Z" fill="#E65735"/>
<path d="M54.22 66.6873L14.771 43.673L84.3021 3.26196L123.751 26.2763L54.22 66.6873ZM16.7525 43.673L54.22 65.6L121.77 26.2763L84.3021 4.34924L16.7525 43.673Z" fill="#F1EBDC"/>
<path d="M8.46631 42.4043V44.5789L54.0398 71.0363V68.8617L8.46631 42.4043Z" fill="#DA3F19"/>
<path d="M127.174 26.4575V28.6321L54.0398 71.0365V68.8619L127.174 26.4575Z" fill="#CC3112"/>
<path d="M74.7549 24.6454L72.9535 23.5581L76.5562 21.3835L75.1151 20.6587L71.3323 22.8333L69.531 21.746L70.7919 21.3835L74.0343 19.5714H73.4939L74.7549 19.209L78.1774 17.2156L78.7178 16.4907L80.5191 17.578L76.7363 19.7526L78.3575 20.6587L81.9601 18.4841L83.7615 19.5714H82.6807L75.1151 23.9205L74.7549 24.6454Z" fill="#F1EBDC"/>
<path d="M87.9045 23.7391L82.1403 27.001L79.6185 27.5446L76.7363 25.9137L77.637 24.464L84.3019 20.6584L84.6622 19.9336L88.8052 22.2894L87.9045 23.7391ZM86.1032 22.6518L84.8423 21.927L79.6185 25.0076V25.3701L80.6993 26.0949H81.2396L86.1032 23.1955V22.6518Z" fill="#F1EBDC"/>
<path d="M88.2651 29.5381L85.7432 30.9878L80.8796 28.2696H82.1406L89.526 23.9204L90.0664 23.1956L92.228 24.4641L90.9671 24.8265L84.4823 28.632L85.9233 29.3569L86.824 28.8132L88.2651 29.5381Z" fill="#F1EBDC"/>
<path d="M89.7061 32.2562L89.1657 32.981L86.824 31.7125H88.0849L90.7869 30.2628L94.5697 25.7324L96.7313 27.0009L95.6505 27.3634L94.0293 29.1755L97.0915 28.2695L97.6319 27.5446L99.7935 28.8131L92.2279 30.9877L89.7061 32.2562Z" fill="#F1EBDC"/>
<path d="M62.8661 29.3567H61.6052L61.2449 30.0816L58.9032 31.3501L56.3814 31.8937L52.4185 29.7191L53.6794 29.3567L56.7416 27.5445H56.3814L57.6423 27.1821L61.0648 25.1887L61.4251 24.4639L65.5681 26.8197L64.4873 28.2694L62.8661 29.3567ZM57.282 30.6252H57.8224L59.2635 29.9003V29.5379L58.0026 28.813L55.841 30.0816L57.282 30.6252ZM59.984 27.5445L61.2449 28.2694H61.7854L62.686 27.7257V27.3633L61.4251 26.6384L59.984 27.5445Z" fill="#F1EBDC"/>
<path d="M60.3443 33.5248L59.9841 34.2496L57.6423 32.9811L58.9033 32.6187L66.2887 28.2696L66.8291 27.5447L68.9907 28.9944H67.7297L60.3443 33.5248Z" fill="#F1EBDC"/>
<path d="M71.3324 34.2497H70.0715L69.5311 34.9746L67.3695 36.4244L64.8477 36.968L60.8848 34.6122L62.1457 34.2497L65.2079 32.4376H64.8477L66.1086 32.0752L69.5311 30.0818L69.8914 29.3569L73.8543 31.7127L72.9536 33.1625L71.3324 34.2497ZM65.7483 35.5183H66.2887L67.7298 34.6122V34.2497L66.4689 33.5249L64.1271 34.7934L65.7483 35.5183ZM68.4503 32.4376L69.7113 33.1625H70.2516L71.1523 32.6188V32.2564L69.8914 31.5315L68.4503 32.4376Z" fill="#F1EBDC"/>
<path d="M73.4941 39.1425L70.9722 40.5922L66.1086 37.874L67.3696 37.5115L74.755 33.1624L75.2954 32.4375L77.457 33.8872H76.1961L69.7113 37.6928L71.1523 38.5988L72.053 38.0552L73.4941 39.1425Z" fill="#F1EBDC"/>
<path d="M83.041 40.0488L81.6 39.3239L82.5006 38.7802L81.0596 37.8742L79.0781 38.9615L79.9788 39.5051L78.1774 40.4112L77.4569 40.0488L75.2953 41.136L76.7364 42.0421L77.8172 41.4985L79.2582 42.4046L76.5562 43.8543L71.8728 41.136L73.1337 40.7736L75.8357 39.1427H75.4755L76.7364 38.7802L80.5192 36.7869L80.8794 36.062L85.743 38.7802L83.041 40.0488Z" fill="#F1EBDC"/>
<path d="M85.2029 35.6992L66.8293 25.0075L67.9101 24.4639L86.2837 35.1556L85.2029 35.6992Z" fill="#F1EBDC"/>
<path d="M69.3508 44.2166L50.9773 33.7061L52.0581 32.9812L70.4316 43.6729L69.3508 44.2166Z" fill="#F1EBDC"/>
<path d="M100.874 26.6387L82.5007 15.947L83.5815 15.4033L101.955 26.095L100.874 26.6387Z" fill="#F1EBDC"/>
<path d="M84.4821 1.63087L11.3483 44.2165L10.0874 43.3104L83.2212 0.906006L84.4821 1.63087Z" fill="#DA3F19"/>
</svg>
