<svg width="91" height="140" viewBox="0 0 91 140" fill="none" xmlns="http://www.w3.org/2000/svg">
<path opacity="0.5" d="M19.5751 102.839C19.5751 102.839 12.3751 106.544 16.2001 110.81C20.0251 115.076 29.0251 116.985 29.0251 116.985C29.0251 116.985 11.4751 123.272 9.33764 128.436C7.20014 133.601 23.8501 141.01 34.4251 139.776C41.6033 139.019 48.5413 136.762 54.7876 133.152C54.7876 133.152 64.1251 137.193 70.2001 134.611C76.2751 132.029 75.1501 128.773 71.5501 126.079C69.4984 124.478 67.1734 123.261 64.6876 122.486C64.6876 122.486 70.2001 120.128 73.2376 116.648C77.4001 117.434 83.4751 117.658 87.6376 114.852C91.8001 112.045 90.9001 108.228 82.8001 107.666L19.5751 102.839Z" fill="#09516D"/>
<path d="M85.275 108.115C85.05 105.084 81 103.961 79.2 104.074C77.4 104.186 74.025 105.87 71.1 104.074C68.175 102.277 70.875 101.155 72 100.369C70.3764 100.298 68.7587 100.606 67.275 101.267C62.55 103.625 63.225 107.554 67.275 110.922C71.325 114.29 74.8125 115.75 82.2375 114.403L83.025 114.178C83.8878 113.443 84.5476 112.501 84.9415 111.439C85.3353 110.378 85.4502 109.234 85.275 108.115Z" fill="#593113"/>
<path d="M84.4874 104.074C80.6145 102.019 76.3685 100.76 71.9999 100.369C70.8749 101.155 68.9624 102.727 71.0999 104.074C73.2374 105.421 77.3999 104.186 79.1999 104.074C80.9999 103.962 85.0499 105.084 85.2749 108.115C85.4501 109.234 85.3353 110.378 84.9414 111.439C84.5475 112.501 83.8877 113.444 83.0249 114.178C88.9874 112.606 90.3374 107.442 84.4874 104.074Z" fill="#4F2A11"/>
<path d="M80.4376 105.533C78.0751 104.972 75.8251 106.431 75.6001 107.666C75.3751 108.901 79.0876 110.024 81.5626 109.687C84.0376 109.35 84.0376 106.656 80.4376 105.533Z" fill="#63381A"/>
<path d="M25.2 110.361C32.175 111.484 37.2375 103.512 34.7625 99.9199C33.9356 98.6051 32.9944 97.3653 31.95 96.215C30.0594 95.8715 28.11 96.0661 26.325 96.7763C24.3142 97.4411 22.4751 98.5404 20.9389 99.9959C19.4027 101.451 18.2071 103.227 17.4375 105.197C18.225 106.768 20.25 109.575 25.2 110.361Z" fill="#4F2A11"/>
<path d="M24.4125 113.28C29.7 114.515 41.7375 113.28 43.2 108.564C44.6625 103.849 40.05 100.369 37.6875 98.797C35.975 97.5488 34.0212 96.6695 31.95 96.2148C32.9945 97.3652 33.9356 98.6049 34.7625 99.9197C37.2375 103.512 32.175 111.483 25.2 110.361C20.25 109.575 18.225 106.768 17.4375 105.196L17.2125 105.758C16.3125 108.677 19.0125 112.045 24.4125 113.28Z" fill="#42220A"/>
<path d="M26.4375 98.4603C24.075 98.5726 22.1625 100.481 20.7 103.288C19.2375 106.095 18.9 106.993 20.925 106.656C22.95 106.319 29.475 104.186 29.7 102.277C29.7829 101.805 29.7603 101.321 29.6339 100.859C29.5075 100.396 29.2803 99.9675 28.9687 99.6029C28.6571 99.2383 28.2686 98.9468 27.8311 98.7493C27.3935 98.5518 26.9177 98.4531 26.4375 98.4603Z" fill="#593113"/>
<path d="M55.4626 121.026C62.4376 119.455 63.9001 116.872 65.1376 113.729C66.3751 110.585 61.7626 105.421 57.8251 103.063C53.8876 100.706 52.5376 103.849 47.3626 103.063C46.2427 102.988 45.1862 102.518 44.3823 101.736C43.5783 100.954 43.0795 99.9124 42.9751 98.7971C37.5751 101.379 36.0001 104.747 33.6376 109.8C31.2751 114.852 33.3001 117.322 36.1126 120.128C42.3794 122.075 49.0418 122.384 55.4626 121.026Z" fill="#593113"/>
<path d="M41.5125 123.384C47.5875 125.405 60.075 124.058 65.3625 120.353C70.65 116.648 75.0375 112.382 69.075 106.319C63.1125 100.257 56.1375 96.7764 53.325 96.7764C50.0327 96.8403 46.7697 97.4083 43.65 98.4604L42.975 98.7972C43.0794 99.9125 43.5782 100.954 44.3822 101.736C45.1861 102.518 46.2426 102.988 47.3625 103.063C52.5375 103.849 53.775 100.706 57.825 103.063C61.875 105.421 66.375 110.698 65.1375 113.729C63.9 116.76 62.4375 119.455 55.4625 121.027C49.0418 122.384 42.3794 122.075 36.1125 120.128C37.5905 121.673 39.4545 122.797 41.5125 123.384Z" fill="#4F2A11"/>
<path d="M40.6125 103.513C37.35 103.849 35.325 109.575 35.325 111.596C35.325 113.617 39.2624 120.353 46.1249 120.016C52.9874 119.679 57.4875 119.455 57.7125 115.638C57.9375 111.82 57.0375 110.698 53.325 108.901C49.6125 107.105 44.55 103.176 40.6125 103.513Z" fill="#63381A"/>
<path d="M40.7248 105.645C39.3748 105.421 38.1373 108.564 37.1248 110.361C36.1123 112.157 36.6748 112.831 37.6873 114.29C38.6998 115.75 42.5248 117.883 42.8623 117.209C43.1998 116.536 43.6498 115.75 43.4248 112.382C43.1998 109.014 43.5373 105.982 40.7248 105.645Z" fill="#6D3E1F"/>
<path d="M43.875 79.9358C43.875 79.9358 44.2125 86.4475 47.3625 89.4787C50.5125 92.51 58.725 89.3664 58.725 89.3664C58.725 89.3664 51.8625 79.3745 51.4125 79.2622C50.9625 79.1499 43.875 79.9358 43.875 79.9358Z" fill="#D3B8A5"/>
<path d="M20.2499 61.4114C19.5749 62.3095 18.9 70.9543 20.925 71.1788C22.95 71.4034 26.0999 65.004 25.1999 63.8813C24.2999 62.7586 20.2499 61.4114 20.2499 61.4114Z" fill="#E5D1C1"/>
<path d="M36.5624 57.0329C36.5624 57.0329 31.2749 54.1139 30.7124 55.1243C30.1499 56.1347 26.4374 60.2887 25.3124 62.4218C23.1749 60.5132 20.4749 58.9415 18.6749 57.1452C17.6867 56.0682 16.8537 54.859 16.1999 53.5525C15.2999 52.3176 14.1749 52.3176 14.5124 53.6648C14.7656 54.0605 14.9911 54.4731 15.1874 54.8998C15.412 55.3995 15.5635 55.9288 15.6374 56.4715L13.8374 59.3905C13.8374 59.3905 16.3124 58.8292 16.9874 59.2783C17.6624 59.7274 19.4624 62.1973 21.0374 64.3304C22.6124 66.4635 24.4124 68.1476 25.5374 68.2598C26.6624 68.3721 31.3874 62.9832 32.3999 62.4218C33.9067 60.7205 35.2973 58.9201 36.5624 57.0329Z" fill="#FFAD97"/>
<path d="M21.7125 59.6152C21.7125 59.6152 22.6125 60.2888 22.5 66.3513C22.3875 70.6176 20.925 71.1789 20.925 71.1789C20.925 71.1789 24.6375 71.9648 26.2125 71.4035C27.7875 70.8421 30.15 70.8421 31.3875 69.2704C32.625 67.6986 37.2375 63.4323 37.2375 63.4323L32.9625 54.0017C32.9625 54.0017 31.05 55.3489 29.475 56.6962C28.0638 58.0242 26.748 59.4498 25.5375 60.9624C25.0179 60.4287 24.4533 59.9404 23.85 59.5029C23.175 59.0538 21.7125 59.6152 21.7125 59.6152Z" fill="#F4E9DF"/>
<path d="M27.5625 63.0955C27.5625 63.0955 29.025 65.4531 29.7 66.3513C30.375 67.2494 32.7375 66.9126 32.7375 66.9126C31.6185 66.414 30.5916 65.7308 29.7 64.8918C28.8 63.7691 28.35 63.0955 27.5625 63.0955Z" fill="#E5D1C1"/>
<path d="M33.8625 62.9832C34.2748 63.4181 34.5488 63.965 34.65 64.555C34.6424 65.0396 34.4852 65.51 34.2 65.9022C34.2 65.9022 35.55 65.3409 35.55 64.4427C35.5951 63.7522 35.4796 63.0605 35.2125 62.4219L33.8625 62.9832Z" fill="#48270B"/>
<path d="M78.2999 95.6535C77.4645 95.0532 76.8671 94.1789 76.6124 93.1836C76.028 91.8308 75.2304 90.58 74.2499 89.4787C73.2374 88.1314 72.1124 86.6719 70.8749 85.3247C69.5746 86.829 68.1846 88.2537 66.7124 89.5909C68.8278 91.1637 70.8558 92.8502 72.7874 94.6431L74.2499 96.1026C74.4749 97.3375 73.4624 100.706 73.3499 101.604C73.2374 102.502 72.3374 101.828 72.2249 102.277C72.2193 102.61 72.3125 102.937 72.4927 103.216C72.6729 103.496 72.932 103.716 73.2374 103.849C74.2499 104.186 74.6999 104.186 76.1624 103.4C77.6249 102.614 76.7249 101.491 77.7374 99.4706C78.7499 97.4498 79.4249 96.3271 78.2999 95.6535Z" fill="#FFAD97"/>
<path d="M51.8625 92.1732C51.3 91.6118 50.9625 89.9278 50.2875 88.8051C49.6125 87.6824 48.9375 85.2125 47.5875 83.753C46.8979 83.1795 46.1427 82.6896 45.3375 82.2935L51.975 78.0272C50.4 75.445 48.6 72.9751 45.5625 72.9751L43.0875 75.8941L39.6 79.7113C38.5875 81.1708 38.8125 82.7425 40.05 84.4266C41.2875 86.1106 45.3375 89.1419 46.2375 90.0401C47.1375 90.9382 48.7125 92.2854 48.4875 92.9591C48.3966 93.6077 48.2459 94.2466 48.0375 94.8676L47.5875 96.1026H47.7C47.4291 96.8432 47.0902 97.5573 46.6875 98.2357C46.0125 99.0216 45.225 99.2462 45.9 100.144C46.3543 100.549 46.892 100.849 47.4751 101.023C48.0583 101.198 48.6727 101.243 49.275 101.155C49.7783 100.969 50.211 100.631 50.5134 100.188C50.8157 99.7457 50.9727 99.2203 50.9625 98.6848C51.3182 97.4702 51.8898 96.3294 52.65 95.3167C52.9343 95.0495 53.1298 94.7019 53.2102 94.3206C53.2907 93.9393 53.2522 93.5425 53.1 93.1836C52.65 92.3977 52.2 92.51 51.8625 92.1732Z" fill="#FFBEB3"/>
<path d="M33.5249 61.4113L39.7124 63.0953C39.0879 61.9655 38.8138 60.676 38.9249 59.3904C39.2624 57.1451 40.9499 56.696 40.6124 56.2469C40.2749 55.7978 36.7874 55.6855 36.7874 55.6855L33.5249 61.4113Z" fill="#FFAD97"/>
<path d="M45.675 55.798L43.425 57.033C43.4721 56.485 43.6249 55.9513 43.875 55.4612C44.4961 55.3507 45.1363 55.4705 45.675 55.798Z" fill="#FFAD97"/>
<path d="M40.6125 83.4163C40.9139 83.8574 41.2955 84.2383 41.7375 84.539L42.8625 85.4371C42.9252 84.9392 42.8473 84.4337 42.6375 83.9776C42.3 83.4163 40.6125 83.4163 40.6125 83.4163Z" fill="#FFAD97"/>
<path d="M32.9624 61.7483L37.1249 65.9022C38.3624 67.1372 40.7249 67.9231 42.1874 68.9335C43.4757 69.7353 44.9463 70.1987 46.4624 70.2807C47.8124 70.2807 53.6624 66.1268 54.1124 65.0041C54.4294 64.4041 54.6568 63.7611 54.7874 63.0955C54.7874 63.0955 46.2374 54.6753 45.3374 54.3385C43.4196 53.8585 41.4611 53.5578 39.4874 53.4403C38.2499 53.3281 32.9624 61.7483 32.9624 61.7483Z" fill="#F4E9DF"/>
<path d="M47.3625 68.3721L44.8875 69.8316C45.0488 70.1996 45.1027 70.6056 45.043 71.0028C44.9833 71.4 44.8124 71.7724 44.55 72.0769C43.5375 73.3119 42.075 73.8733 41.5125 75.2205C41.3412 75.59 41.2524 75.9922 41.2524 76.3993C41.2524 76.8064 41.3412 77.2087 41.5125 77.5781L43.875 75.6696C43.875 75.6696 48.825 79.2622 49.95 81.9567C53.325 90.6014 58.6125 92.6222 62.55 92.7345C71.6625 92.7345 74.25 87.9069 74.25 87.9069C72.5435 84.2502 70.3896 80.8186 67.8375 77.6904C64.2375 73.3119 55.9125 65.004 55.4625 64.6672C55.0125 64.3303 47.3625 68.3721 47.3625 68.3721Z" fill="#F4E9DF"/>
<path d="M41.3999 61.4113C42.4546 61.2849 43.5239 61.3611 44.5499 61.6359C46.0827 61.9382 47.6664 61.8611 49.1624 61.4113L49.9499 62.4217C48.8678 62.8006 47.7107 62.9161 46.5749 62.7586C44.7844 62.6139 43.033 62.1579 41.3999 61.4113Z" fill="#E5D1C1"/>
<path d="M40.6125 65.5654C41.1728 66.51 41.8535 67.3779 42.6375 68.1476C43.6618 69.0681 44.7953 69.8599 46.0125 70.5053C46.0125 70.5053 48.375 70.8421 48.7125 70.2807C47.1813 69.7671 45.7102 69.0895 44.325 68.2599C43.0319 67.4407 41.7919 66.5408 40.6125 65.5654Z" fill="#E5D1C1"/>
<path d="M43.425 66.9125C44.6506 67.5001 46.0048 67.7704 47.3625 67.6984C48.3946 67.6266 49.3781 67.234 50.175 66.5757C48.9478 66.7809 47.7068 66.8935 46.4625 66.9125H43.425Z" fill="#E5D1C1"/>
<path d="M34.7625 61.1869C35.2551 62.5213 36.066 63.7158 37.1249 64.6673C38.1539 65.3479 39.382 65.6642 40.6125 65.5654C40.6125 65.5654 38.25 62.6464 37.9125 60.5133C37.575 58.3802 37.9124 57.8188 37.6874 57.8188C36.649 58.8851 35.6724 60.0096 34.7625 61.1869Z" fill="#FFAD97"/>
<path d="M29.6999 57.8189C29.6999 57.8189 27.4499 56.3594 28.1249 54.3385C28.7999 52.3177 29.1374 51.195 30.4874 50.2968C31.461 49.5884 32.6645 49.2681 33.8624 49.3987C35.3249 49.3987 35.9999 49.96 37.1249 51.195C38.2499 52.4299 39.0374 51.8686 39.5999 52.0931C40.3001 52.5373 40.9106 53.1085 41.3999 53.7772C41.9624 54.3385 39.7124 53.4404 39.1499 54.3385C38.5874 55.2367 40.1624 55.3489 39.1499 56.6962C38.1374 58.0434 38.1374 60.7379 38.8124 61.4115C37.7999 61.4115 37.5749 60.8501 37.1249 59.3906C37.1091 60.9053 36.504 62.3546 35.4374 63.4323C34.3124 64.4428 33.6374 64.555 32.8499 64.106C31.9646 63.4952 31.2331 62.6882 30.7124 61.7483C30.2097 60.4865 29.8695 59.1661 29.6999 57.8189Z" fill="#48270B"/>
<path d="M31.7249 54.7876C31.7249 54.7876 29.2499 53.5526 29.4749 54.8998C29.5868 56.4993 30.007 58.0623 30.7124 59.5029C31.2749 60.1765 31.9499 59.8397 32.2874 59.8397H33.1874C33.5399 59.8595 33.8914 59.7871 34.2071 59.6296C34.5229 59.472 34.7919 59.2348 34.9874 58.9415C35.6624 58.0434 34.9874 55.798 34.8749 55.1244C34.7624 54.4508 32.6249 53.8894 31.7249 54.7876Z" fill="#FFBEB3"/>
<path d="M36 56.1347C36.1125 55.5734 37.125 55.3488 37.2375 56.4715C37.2699 56.6275 37.2687 56.7885 37.234 56.944C37.1992 57.0995 37.1317 57.2458 37.036 57.3732C36.9402 57.5006 36.8184 57.6063 36.6785 57.6831C36.5387 57.7599 36.3841 57.8061 36.225 57.8188C36.2817 57.2476 36.2047 56.6711 36 56.1347Z" fill="#FFBEB3"/>
<path d="M32.3999 60.2886C32.2794 60.5324 32.0817 60.7297 31.8374 60.8499C31.8374 61.0745 32.3999 61.4113 32.8499 61.4113C33.2999 61.4113 33.6374 61.1867 33.6374 60.8499C33.1889 60.7549 32.7665 60.5633 32.3999 60.2886Z" fill="#FFBEB3"/>
<path d="M53.325 68.709C53.325 68.709 55.4625 69.2704 56.025 72.4139C56.5315 74.498 57.719 76.3546 59.4 77.6906C58.1179 75.8749 57.236 73.8086 56.8124 71.628C56.729 70.7931 56.3941 70.003 55.8519 69.3617C55.3097 68.7204 54.5856 68.258 53.775 68.0354L53.325 68.709Z" fill="#E5D1C1"/>
<path d="M45 70.0561C45.5625 69.9438 47.7 70.9542 50.85 69.4947C52.6865 68.7385 54.2814 67.4963 55.4625 65.9021L56.025 66.5757C54.8312 68.1849 53.2429 69.4607 51.4125 70.2806C48.375 71.7401 45 70.0561 45 70.0561Z" fill="#48270B"/>
<path d="M83.925 85.2125L12.15 17.7385L7.875 24.3624L35.6625 50.4089L79.65 91.8364L83.3625 93.9695L83.925 85.2125Z" fill="#8B470B"/>
<path d="M5.4 64.3304L43.65 5.05212L38.25 0L0 59.2783L5.4 64.3304Z" fill="#8B470B"/>
<path d="M24.975 28.5164L21.2625 26.3833L38.25 0L41.9625 2.24539L24.975 28.5164Z" fill="#C1792B"/>
<path d="M87.5249 87.4578L15.8624 19.9839L11.5874 26.6078L39.3749 52.6543L80.0999 91.0504L83.3624 93.9694L87.5249 87.4578Z" fill="#A3521C"/>
<path d="M9.1124 66.5758L47.3624 7.29749L41.9624 2.24536L3.7124 61.4114L9.1124 66.5758Z" fill="#A3521C"/>
<path d="M31.2749 60.9624C30.831 61.947 30.675 63.0367 30.8249 64.1059C31.2768 65.0081 31.4342 66.0289 31.2749 67.025C31.2209 67.4654 31.067 67.8877 30.8249 68.2599C30.8249 68.2599 31.8374 68.2599 32.0624 66.9127C32.2874 65.5654 31.8374 64.7796 31.9499 63.8814C32.1303 63.25 32.3952 62.6458 32.7374 62.0851L31.2749 60.9624Z" fill="#48270B"/>
<path d="M31.0498 59.9519C30.7301 60.2744 30.4841 60.6621 30.3288 61.0885C30.1734 61.5149 30.1124 61.9697 30.1498 62.4218C30.3748 63.7691 29.9248 63.9936 29.6998 64.8918C29.679 65.1563 29.7308 65.4216 29.8497 65.659C29.9687 65.8964 30.1502 66.0969 30.3748 66.239C30.2545 65.7156 30.2937 65.1682 30.4873 64.6672C30.7349 64.3734 30.9219 64.0338 31.0377 63.6677C31.1535 63.3017 31.1959 62.9165 31.1623 62.5341C31.075 62.1089 31.1557 61.6665 31.3873 61.2991L31.0498 59.9519Z" fill="#48270B"/>
<path d="M25.875 62.085C26.3975 63.0346 26.7766 64.056 27 65.1162C27.1888 65.9653 27.3017 66.8294 27.3375 67.6984C27.8485 66.6477 27.9293 65.4395 27.5625 64.3303C27.2134 63.4436 26.6303 62.6677 25.875 62.085Z" fill="#E5D1C1"/>
<path d="M51.9751 57.4819C50.9571 57.9448 50.0101 58.5496 49.1626 59.2782C48.3751 60.0641 48.7126 59.8396 48.3751 60.7377C48.0376 61.6359 48.3751 61.8604 48.3751 61.8604C48.3751 61.8604 49.0501 61.8604 49.1626 61.4114C49.2751 60.9623 49.3876 60.4009 49.9501 60.4009C50.5126 60.4009 49.5001 61.5236 49.3876 62.3095C49.3635 62.5466 49.4029 62.7858 49.5017 63.0028C49.6005 63.2198 49.7553 63.4067 49.9501 63.5445C50.4001 63.8813 51.1876 65.004 52.4251 64.5549C53.6626 64.1058 54.9001 62.3095 54.6751 60.85C54.4501 59.3905 51.9751 57.4819 51.9751 57.4819Z" fill="#FFBEB3"/>
<path d="M49.95 51.9807C49.95 52.0929 55.2375 51.1948 57.0375 51.9807C58.8375 52.7666 59.5125 55.6856 59.4 58.2678C59.2992 59.9286 58.9189 61.5606 58.275 63.0953C56.6998 62.9454 55.2082 62.3186 53.9999 61.299C52.4944 60.2017 51.1337 58.9192 49.95 57.4819L51.4125 53.4402L49.95 51.9807Z" fill="#F4E9DF"/>
<path d="M52.3125 53.7771C52.1338 54.968 52.1338 56.1788 52.3125 57.3697C52.5282 58.0632 52.8715 58.7105 53.325 59.2783C53.0583 58.2841 52.8702 57.2706 52.7625 56.247C52.7011 55.4101 52.5502 54.5821 52.3125 53.7771Z" fill="#E5D1C1"/>
<path d="M53.7749 55.6855C54.5611 56.4949 55.2415 57.4002 55.7999 58.38L57.1499 61.0745C56.9975 59.9249 56.6149 58.8177 56.0249 57.8187C55.4577 56.9374 54.6859 56.2057 53.7749 55.6855Z" fill="#E5D1C1"/>
<path d="M47.8125 73.9856C49.9189 75.1351 51.5815 76.9523 52.5375 79.15C53.775 82.6303 54 84.3144 55.8 86.4475C56.7609 87.7083 58.1706 88.5524 59.7375 88.8052C57.7669 87.5165 56.2672 85.626 55.4625 83.4162C54.1125 79.7113 54.675 77.6905 52.3125 75.7819C51.0314 74.7388 49.4611 74.112 47.8125 73.9856Z" fill="#E5D1C1"/>
<path d="M57.375 82.2935C57.375 82.2935 59.175 87.5701 63.7875 87.9069C68.4 88.2437 70.2 86.672 70.2 86.672C68.0491 86.6007 65.9061 86.3756 63.7875 85.9984C61.2 85.5493 57.375 82.2935 57.375 82.2935Z" fill="#E5D1C1"/>
<path d="M3.7125 61.4115L0 59.2783L16.9875 32.895L20.7 35.1404L3.7125 61.4115Z" fill="#C1792B"/>
<path d="M11.5875 26.6078L7.875 24.3624L12.15 17.7385L15.8625 19.9839L11.5875 26.6078Z" fill="#C1792B"/>
<path d="M9.1125 66.5758L5.4 64.3304L0 59.2783L3.7125 61.4114L9.1125 66.5758Z" fill="#8B470B"/>
<path d="M23.1748 132.927C31.4998 133.938 44.7748 131.917 47.8123 129.334C50.8498 126.752 48.0373 120.802 45.6748 118.108C44.9562 117.239 44.4893 116.191 44.3248 115.076C42.6487 114.404 40.9172 113.878 39.1498 113.504C32.3998 112.157 26.6623 110.698 18.5623 116.985C14.7373 120.016 12.1498 123.833 12.2623 127.314C15.0433 130.513 18.9503 132.523 23.1748 132.927Z" fill="#4F2A11"/>
<path d="M22.725 135.509C37.125 138.428 58.95 134.05 53.325 123.945C50.7374 119.23 48.0375 116.76 44.325 115.076C44.4895 116.191 44.9563 117.239 45.675 118.107C48.0375 120.802 50.8499 126.64 47.8125 129.334C44.7749 132.029 31.5 133.937 23.175 132.927C18.9504 132.522 15.0435 130.513 12.2625 127.314C12.4875 130.906 15.4125 134.05 22.725 135.509Z" fill="#42220A"/>
<path d="M26.8875 114.852C25.0875 114.964 18.225 119.679 17.1 122.71C15.975 125.742 19.2375 127.089 21.825 126.752C24.4125 126.415 36.225 123.496 34.7625 120.128C34.1579 118.544 33.0759 117.186 31.6655 116.241C30.2551 115.296 28.5858 114.81 26.8875 114.852Z" fill="#593113"/>
<path d="M61.4249 132.029C65.3624 132.59 68.1749 128.212 66.7124 126.191C66.2782 125.445 65.7894 124.732 65.2499 124.058C64.1882 123.905 63.1052 124.021 62.0999 124.394C60.9725 124.758 59.9419 125.371 59.0849 126.187C58.2278 127.004 57.5664 128.003 57.1499 129.11C57.5517 129.921 58.156 130.616 58.9047 131.127C59.6534 131.639 60.5213 131.949 61.4249 132.029Z" fill="#4F2A11"/>
<path d="M60.9749 133.601C63.8999 134.274 70.6499 133.601 71.4374 131.019C72.2249 128.436 69.7499 126.416 68.3999 125.517C67.4534 124.834 66.384 124.338 65.2499 124.058C65.7894 124.732 66.2783 125.445 66.7124 126.191C68.1749 128.212 65.3624 132.59 61.4249 132.029C60.5213 131.949 59.6534 131.639 58.9047 131.128C58.156 130.616 57.5517 129.922 57.1499 129.11C57.1092 129.156 57.0783 129.209 57.0589 129.267C57.0396 129.325 57.0323 129.386 57.0374 129.447C56.4749 131.019 58.0499 132.927 60.9749 133.601Z" fill="#42220A"/>
<path d="M62.0999 125.293C60.7499 125.405 59.7374 126.528 58.9499 127.987C58.1624 129.447 57.9374 130.12 59.0624 129.896C60.1874 129.671 63.7874 128.549 63.8999 127.426C63.9311 127.166 63.9085 126.903 63.8334 126.652C63.7584 126.402 63.6326 126.169 63.4639 125.969C63.2951 125.769 63.0869 125.606 62.8523 125.49C62.6177 125.373 62.3616 125.306 62.0999 125.293Z" fill="#593113"/>
</svg>
