<svg width="113" height="106" viewBox="0 0 113 106" fill="none" xmlns="http://www.w3.org/2000/svg">
<path d="M88.062 87.0504L53.0444 58.302L38.5078 28.9309L42.5155 26.9521L56.6264 55.4646L90.9012 83.603L88.062 87.0504Z" fill="#005766"/>
<path d="M25.4809 71.6386L23.8682 67.4665L53.8967 55.9869L84.5571 23.8682L87.8189 26.944L56.4603 59.795L25.4809 71.6386Z" fill="#005766"/>
<path d="M54.689 77.0323C65.3273 77.0323 73.9513 68.4083 73.9513 57.7701C73.9513 47.1318 65.3273 38.5078 54.689 38.5078C44.0508 38.5078 35.4268 47.1318 35.4268 57.7701C35.4268 68.4083 44.0508 77.0323 54.689 77.0323Z" fill="#FF7B02"/>
<path d="M71 57.5C71 66.6127 63.6127 74 54.5 74C45.3873 74 38 66.6127 38 57.5C38 48.3873 45.3873 41 54.5 41C63.6127 41 71 48.3873 71 57.5Z" stroke="#005766" stroke-width="2"/>
<path d="M38.5088 33.1146C43.1897 33.1146 46.9843 29.1476 46.9843 24.254C46.9843 19.3604 43.1897 15.3933 38.5088 15.3933C33.828 15.3933 30.0334 19.3604 30.0334 24.254C30.0334 29.1476 33.828 33.1146 38.5088 33.1146Z" fill="#EB274B"/>
<path d="M89.7441 34.6557C96.3398 34.6557 101.687 29.1363 101.687 22.3278C101.687 15.5194 96.3398 10 89.7441 10C83.1484 10 77.8015 15.5194 77.8015 22.3278C77.8015 29.1363 83.1484 34.6557 89.7441 34.6557Z" fill="#0851A4"/>
<path d="M93.2131 97.835C99.1706 97.835 104 93.0055 104 87.0481C104 81.0907 99.1706 76.2612 93.2131 76.2612C87.2557 76.2612 82.4263 81.0907 82.4263 87.0481C82.4263 93.0055 87.2557 97.835 93.2131 97.835Z" fill="#FFC107"/>
<path d="M20.7869 81.6555C26.7443 81.6555 31.5737 76.8261 31.5737 70.8687C31.5737 64.9112 26.7443 60.0818 20.7869 60.0818C14.8294 60.0818 10 64.9112 10 70.8687C10 76.8261 14.8294 81.6555 20.7869 81.6555Z" fill="white"/>
</svg>
