<svg width="351" height="264" viewBox="0 0 351 264" fill="none" xmlns="http://www.w3.org/2000/svg">
<path d="M50.3005 232.06C46.962 232.801 45.6266 237.171 47.5556 239.912C48.3842 240.879 49.5027 241.555 50.7457 241.838C52.1078 242.403 53.525 242.825 54.9745 243.097C56.6062 243.302 58.2559 242.892 59.6006 241.947C60.9454 241.002 61.8884 239.589 62.2451 237.986C63.0612 234.208 60.9838 230.431 57.7937 228.505C55.068 226.948 52.0729 225.917 48.9651 225.468C45.1171 224.968 41.2143 225.805 37.9109 227.838C34.6185 229.724 31.9791 232.566 30.3436 235.986C28.563 239.838 28.7114 243.986 28.1921 248.134C27.9943 250.398 27.3245 252.596 26.2257 254.586C25.1269 256.576 23.6234 258.314 21.8118 259.69C19.9073 261.161 17.6618 262.13 15.2831 262.505C14.0829 262.714 12.8661 262.813 11.6478 262.801L10.3866 262.653C9.12536 262.505 5.93522 261.245 10.164 262.875C9.05118 262.431 7.27065 261.986 6.38037 261.616C12.093 263.838 18.0281 265.32 23.8149 262.283C26.6412 260.745 28.9411 258.397 30.4177 255.542C32.0499 252.357 32.2725 248.949 32.495 245.468C33.0144 239.023 35.3885 233.394 40.9527 229.69C43.4635 227.98 46.3799 226.958 49.4103 226.727H51.7101C52.5956 226.93 53.4638 227.203 54.3068 227.542C55.084 228.057 55.7835 228.681 56.3841 229.394C58.3872 231.838 59.2033 235.542 57.7195 238.431C56.9956 239.732 55.8606 240.757 54.4917 241.347C53.1228 241.936 51.597 242.057 50.1522 241.69L51.636 242.208L51.1908 242.06L53.7133 242.875C49.6329 241.171 49.6329 234.505 54.2326 233.468C53.1198 233.69 51.4876 231.838 50.3005 232.134V232.06Z" fill="#E9328C"/>
<g style="mix-blend-mode:multiply">
<path d="M50.1522 241.616C50.6586 241.762 51.183 241.837 51.7102 241.838H52.2295C51.2557 240.823 50.7225 239.465 50.7458 238.06L46.6653 236.875C46.6609 237.952 46.9703 239.007 47.5556 239.912C48.3842 240.879 49.5028 241.555 50.7458 241.838H50.8199L50.1522 241.616Z" fill="#E9328C"/>
<path d="M40.9526 229.69C43.4634 227.98 46.3799 226.958 49.4102 226.727H51.7101L54.6777 227.023C52.8199 226.366 50.9085 225.87 48.9651 225.542C45.1171 225.042 41.2142 225.879 37.9108 227.912C36.2544 228.864 34.7533 230.063 33.4595 231.468L39.6914 230.727C40.0756 230.34 40.4982 229.992 40.9526 229.69Z" fill="#E9328C"/>
<path d="M15.2831 262.505C14.0829 262.714 12.8661 262.813 11.6478 262.801L10.3866 262.653C9.12536 262.505 5.93522 261.245 10.164 262.875C9.05118 262.431 7.27065 261.986 6.38037 261.616C12.093 263.838 18.0281 265.32 23.8149 262.282L25.818 261.023L22.1085 259.468L21.8118 259.69C19.9073 261.161 17.6618 262.129 15.2831 262.505Z" fill="#E9328C"/>
</g>
<path d="M137.352 -1.49144e-05L132.886 10.0152L138.986 12.7268L143.452 2.71157L137.352 -1.49144e-05Z" fill="#A2D56C"/>
<path d="M225.014 230.753L219.25 234.117L228.66 250.195L234.425 246.831L225.014 230.753Z" fill="#FFBD66"/>
<path d="M275.688 33.4671C270.586 35.6303 266.211 39.2079 263.082 43.7763C259.953 48.3448 258.2 53.7128 258.031 59.2449C258.031 58.2079 266.34 57.319 266.34 56.1338C266.52 50.6622 268.245 45.3528 271.317 40.818C274.388 36.2832 278.681 32.7077 283.701 30.5041C281.772 31.3189 278.137 32.4301 275.688 33.4671Z" fill="#FDF051"/>
<path d="M248.683 191.097C251.057 191.245 255.731 190.208 257.215 188.208C258.699 186.208 257.809 183.023 255.435 181.616C253.061 180.208 250.019 180.43 247.274 180.801C241.932 181.467 237.332 181.393 233.4 177.319C231.742 175.661 230.542 173.603 229.918 171.344C229.293 169.085 229.266 166.703 229.839 164.43C229.617 165.319 224.646 165.023 224.423 165.986C222.569 172.949 227.094 180.875 234.216 182.504C238.668 183.542 243.045 181.319 247.496 182.282C249.499 182.653 251.577 183.764 252.319 185.764C253.061 187.764 252.096 190.43 249.945 191.023L255.064 189.616H254.173C252.319 189.542 250.464 191.245 248.683 191.171V191.097Z" fill="#A2D56C"/>
<g style="mix-blend-mode:multiply" opacity="0.6">
<path d="M253.654 180.875C251.651 180.282 249.351 180.504 247.274 180.801C243.416 181.319 240.003 181.393 236.887 179.912L231.917 181.764C232.656 182.088 233.426 182.336 234.216 182.504C238.668 183.542 243.045 181.319 247.496 182.282L248.683 182.579C250.237 181.745 251.916 181.17 253.654 180.875Z" fill="#A2D56C"/>
</g>
<path d="M63.8772 13.8374C61.058 17.393 59.4258 24.8745 61.5031 29.0226C65.5836 37.2449 77.6022 36.43 83.2406 43.393C82.3504 42.356 85.9115 37.7634 85.0212 36.7263C79.0119 29.2448 60.5387 29.2448 62.3934 16.5781C61.7999 18.7263 61.2805 20.9485 60.687 23.0967C60.9029 22.1327 61.3627 21.2401 62.0225 20.5041C63.3579 18.8004 62.5418 15.467 63.8772 13.8374Z" fill="#4AC1E1"/>
<path d="M0 163.542C0.370948 169.023 2.89339 174.208 5.56421 178.949C7.22202 182.053 9.61793 184.703 12.5414 186.666C15.465 188.629 18.8266 189.846 22.3311 190.208C30.6403 191.023 36.5012 186.801 43.0299 182.282C49.5586 177.764 57.942 175.097 62.4676 182.282C61.3547 180.43 60.8354 178.208 59.6484 176.356C56.4582 171.319 49.8554 171.319 44.8847 173.542C39.914 175.764 34.424 181.616 27.8953 183.467C22.721 184.949 17.1837 184.501 12.3155 182.208C9.51498 180.875 7.03511 178.955 5.04488 176.579C4.53372 175.968 4.06289 175.324 3.6353 174.653C4.08044 175.616 4.00623 175.467 3.56109 174.134C3.22444 172.597 3.0013 171.037 2.89341 169.467C2.74503 167.393 0.148379 165.542 0 163.542Z" fill="#4AC1E1"/>
<g style="mix-blend-mode:multiply">
<path d="M28.0436 183.467H27.8953C22.721 184.949 17.1837 184.501 12.3155 182.208C9.51498 180.875 7.03511 178.955 5.04488 176.579C4.59974 176.06 4.22881 175.467 3.85786 174.949L3.56109 174.134C3.22444 172.597 3.0013 171.037 2.89341 169.467C2.74503 167.393 0.148379 165.542 0 163.542C0.370948 169.023 2.89339 174.208 5.56421 178.949C7.22202 182.053 9.61793 184.703 12.5414 186.666C15.465 188.629 18.8266 189.846 22.3311 190.208C26.4108 190.588 30.5125 189.764 34.1272 187.838L28.0436 183.467Z" fill="#4AC1E1"/>
</g>
<path d="M299.281 242.727C301.803 247.542 305.661 250.653 309.89 253.986C314.118 257.32 318.273 259.986 323.615 260.875C335.856 263.023 347.652 254.727 350.991 243.023C351.287 241.986 344.388 238.949 344.685 237.986C342.162 246.875 334.743 253.986 325.692 255.764C321.181 256.626 316.516 256.163 312.264 254.431C311.272 254.048 310.306 253.602 309.37 253.097C308.774 252.77 308.204 252.399 307.664 251.986C305.809 250.727 306.551 251.319 309.89 253.69C309.445 252.875 308.406 252.06 307.812 251.32C306.975 250.197 306.231 249.007 305.587 247.764C304.4 245.542 300.393 244.875 299.281 242.727Z" fill="#EF8132"/>
<path d="M325.173 30.8745C323.392 28.5782 319.905 27.9115 317.309 26.8745C314.712 25.8374 311.744 25.7634 309.074 27.4671C303.064 31.3189 301.209 45.0967 291.491 41.9856L298.464 44.7264C297.691 44.3601 297.007 43.8292 296.461 43.1708C294.978 41.4671 290.897 42.0597 289.413 40.4301C291.342 42.5782 294.755 43.393 297.426 44.356C298.75 44.9119 300.194 45.122 301.621 44.9664C303.049 44.8109 304.414 44.2949 305.587 43.4671C311.077 39.7634 313.673 25.7634 322.799 29.0967L316.27 26.5041C316.986 26.9245 317.616 27.4776 318.125 28.1337C319.534 29.8374 323.837 29.2448 325.173 30.8745Z" fill="#F6376B"/>
<path d="M333.779 166.504L339.491 167.245L335.782 171.616L335.114 177.393L330.663 173.69L324.95 172.949L328.66 168.504L329.327 162.801L333.779 166.504Z" fill="#F6376B"/>
<path d="M137.251 161.097L142.963 161.838L139.254 166.282L138.512 171.986L134.06 168.282L128.348 167.541L132.057 163.171L132.799 157.393L137.251 161.097Z" fill="#4AC1E1"/>
<path d="M247.719 64.4301L250.909 66.282L247.57 67.9116L245.716 71.0968L244.083 67.8376L240.893 65.9857L244.158 64.282L246.012 61.1709L247.719 64.4301Z" fill="#A2D56C"/>
<path d="M109.374 188.277C110.62 187.034 110.62 185.017 109.374 183.773C108.129 182.529 106.109 182.529 104.863 183.773C103.617 185.017 103.617 187.034 104.863 188.277C106.109 189.521 108.129 189.521 109.374 188.277Z" fill="#E9328C"/>
<path d="M105.868 201.171C105.851 201.539 105.696 201.886 105.436 202.146C105.175 202.407 104.827 202.561 104.459 202.579C104.085 202.579 103.726 202.43 103.462 202.166C103.198 201.902 103.049 201.544 103.049 201.171C103.039 200.984 103.068 200.796 103.135 200.62C103.202 200.445 103.305 200.285 103.438 200.152C103.571 200.019 103.731 199.916 103.907 199.849C104.083 199.782 104.271 199.753 104.459 199.764C104.833 199.764 105.191 199.912 105.456 200.176C105.72 200.44 105.868 200.798 105.868 201.171Z" fill="#4AC1E1"/>
<path d="M137.77 117.171C137.781 117.359 137.752 117.546 137.685 117.722C137.617 117.898 137.514 118.057 137.381 118.19C137.248 118.323 137.088 118.426 136.912 118.493C136.736 118.56 136.548 118.589 136.36 118.578C136.169 118.588 135.978 118.56 135.798 118.493C135.618 118.427 135.454 118.325 135.315 118.193C135.176 118.062 135.066 117.903 134.99 117.727C134.915 117.551 134.876 117.362 134.876 117.171C134.876 116.778 135.033 116.401 135.311 116.123C135.589 115.846 135.967 115.69 136.36 115.69C136.552 115.689 136.741 115.728 136.917 115.803C137.093 115.879 137.252 115.989 137.384 116.128C137.516 116.266 137.618 116.43 137.685 116.61C137.751 116.789 137.78 116.98 137.77 117.171Z" fill="#EF8132"/>
<path d="M96.0013 29.0967C96.0013 29.6271 95.7903 30.1358 95.4146 30.5109C95.0389 30.886 94.5295 31.0967 93.9982 31.0967C93.4599 31.097 92.9424 30.8887 92.5549 30.5156C92.1674 30.1426 91.9401 29.6338 91.9209 29.0967C91.9394 28.5525 92.1642 28.0356 92.5498 27.6506C92.9355 27.2655 93.4531 27.0411 93.9982 27.0226C94.5362 27.0418 95.0457 27.2688 95.4194 27.6557C95.793 28.0426 96.0017 28.5592 96.0013 29.0967Z" fill="#4AC1E1"/>
<path d="M235.107 37.6893C235.844 37.6893 236.442 37.0924 236.442 36.356C236.442 35.6196 235.844 35.0226 235.107 35.0226C234.369 35.0226 233.771 35.6196 233.771 36.356C233.771 37.0924 234.369 37.6893 235.107 37.6893Z" fill="#EF8132"/>
<path d="M23.2956 88.5783C23.2957 88.964 23.2185 89.3458 23.0685 89.7012C22.9184 90.0567 22.6986 90.3785 22.4221 90.6477C22.1455 90.917 21.8177 91.1282 21.4581 91.2689C21.0984 91.4097 20.7142 91.4771 20.328 91.4672C19.9453 91.4774 19.5644 91.4097 19.2088 91.2681C18.8531 91.1265 18.5301 90.9141 18.2593 90.6438C17.9886 90.3735 17.7759 90.0509 17.6341 89.6958C17.4923 89.3407 17.4244 88.9605 17.4346 88.5783C17.4247 88.1928 17.4922 87.8091 17.6332 87.45C17.7742 87.0909 17.9857 86.7637 18.2554 86.4875C18.525 86.2114 18.8474 85.9919 19.2033 85.8421C19.5593 85.6923 19.9417 85.6152 20.328 85.6154C21.1151 85.6154 21.8699 85.9275 22.4264 86.4832C22.9829 87.0389 23.2956 87.7925 23.2956 88.5783Z" fill="#4AC1E1"/>
<path d="M318.421 65.0968C318.421 65.4897 318.265 65.8665 317.987 66.1444C317.708 66.4222 317.331 66.5783 316.938 66.5783C316.746 66.5786 316.556 66.5398 316.38 66.4645C316.204 66.3892 316.046 66.2789 315.914 66.1402C315.782 66.0016 315.679 65.8376 315.613 65.6582C315.547 65.4788 315.518 65.2878 315.528 65.0968C315.528 64.912 315.564 64.729 315.635 64.5582C315.706 64.3875 315.81 64.2323 315.941 64.1016C316.072 63.9709 316.227 63.8673 316.398 63.7965C316.569 63.7258 316.752 63.6894 316.938 63.6894C317.319 63.6889 317.685 63.8348 317.961 64.0968C318.238 64.3588 318.402 64.7169 318.421 65.0968Z" fill="#4AC1E1"/>
<path d="M227.277 131.934C227.664 130.218 226.585 128.514 224.866 128.127C223.147 127.74 221.44 128.818 221.053 130.534C220.665 132.25 221.745 133.955 223.463 134.341C225.182 134.728 226.89 133.65 227.277 131.934Z" fill="#4AC1E1"/>
<path d="M260.776 203.393C260.758 203.557 260.679 203.708 260.556 203.818C260.433 203.927 260.273 203.987 260.108 203.986C259.957 203.97 259.815 203.902 259.707 203.795C259.599 203.687 259.531 203.545 259.515 203.393C259.514 203.229 259.574 203.07 259.684 202.946C259.793 202.823 259.945 202.745 260.108 202.727C260.286 202.727 260.455 202.797 260.581 202.922C260.706 203.047 260.776 203.217 260.776 203.393Z" fill="#4AC1E1"/>
<path d="M112.768 60.7264C109.578 59.6894 107.649 63.0227 108.391 65.7635C109.056 68.0823 109.925 70.338 110.988 72.5042C114.623 80.282 124.861 74.8005 130.351 79.9117C128.719 78.3561 129.312 74.3561 127.68 72.8005C122.264 67.7635 112.249 73.0968 108.391 65.7635L111.062 72.8005C110.394 70.0598 112.249 66.7264 115.439 67.7635C115.068 67.6153 114.326 64.6524 114.178 64.2079C114.029 63.7635 113.287 60.8746 112.768 60.7264Z" fill="#F6376B"/>
<path d="M137.325 236.208C144.737 237.773 152.303 238.494 159.878 238.356C162.549 238.282 166.184 238.505 168.262 236.431C170.339 234.356 170.116 233.616 170.933 232.282C171.749 230.949 172.565 229.542 172.194 227.764C171.526 224.727 168.484 222.356 166.407 220.282L158.172 212.06C155.946 209.764 153.127 206.653 154.982 203.245L152.311 207.764C155.056 204.949 158.469 206.356 161.881 206.356C163.367 206.408 164.84 206.082 166.164 205.408C167.488 204.734 168.619 203.735 169.449 202.505C172.342 198.282 175.013 193.616 172.268 188.579C172.713 189.393 168.929 192.579 169.449 193.467C170.176 194.716 170.596 196.12 170.674 197.562C170.751 199.004 170.484 200.445 169.894 201.764L171.674 198.653L171.081 199.542L172.194 197.764C171.344 198.946 170.216 199.903 168.91 200.549C167.603 201.194 166.158 201.51 164.701 201.467C162.327 201.467 159.804 200.579 157.43 201.393C155.056 202.208 152.756 206.208 151.866 208.579C149.937 213.838 157.059 218.653 160.175 221.764C163.291 224.875 170.858 230.06 169.078 235.393C170.042 233.764 170.933 232.134 171.897 230.579C169.226 234.727 161.585 233.542 157.43 233.468C151.642 233.236 145.885 232.518 140.218 231.319C139.625 231.171 137.918 236.282 137.325 236.208Z" fill="#A2D56C"/>
<g style="mix-blend-mode:multiply" opacity="0.6">
<path d="M167.297 228.727C167.421 228.857 167.522 229.007 167.594 229.171C168.07 229.787 168.469 230.459 168.781 231.171C168.916 231.682 169.015 232.202 169.078 232.727C169.122 233.59 169.122 234.456 169.078 235.319H169.152C169.777 234.314 170.347 233.276 170.858 232.208C171.134 231.78 171.382 231.335 171.6 230.875L171.749 230.653C172.251 229.75 172.384 228.688 172.12 227.69C171.749 225.616 170.191 223.912 168.558 222.356C168.929 225.616 166.852 227.542 167.297 228.727Z" fill="#A2D56C"/>
<path d="M152.311 207.69C152.802 207.142 153.411 206.711 154.092 206.43L154.463 206.282C155.79 205.909 157.183 205.833 158.543 206.06L161.214 201.097C159.953 200.874 158.656 200.95 157.43 201.319C155.279 202.06 153.424 205.023 152.311 207.319V207.69Z" fill="#A2D56C"/>
</g>
</svg>
