<svg width="140" height="91" viewBox="0 0 140 91" fill="none" xmlns="http://www.w3.org/2000/svg">
<g clip-path="url(#clip0_945_498)">
<path d="M140 8.1955H0V90.2318H140V8.1955Z" fill="#B00020"/>
<path d="M140 8.1955H70V90.2318H140V8.1955Z" fill="#840018"/>
<path d="M131.805 8.1955V82.0363H74.8146L70 77.6545L65.1855 82.0363H8.19556V8.1955H131.805Z" fill="#DFE5F2"/>
<path d="M131.804 8.1955V82.0363H74.8145L70 77.6545V8.1955H131.804Z" fill="#C7CDDE"/>
<path d="M86.418 0C79.7101 0 73.7596 3.2187 69.9999 8.22257C67.0517 4.27357 62.697 1.43354 57.6931 0.405719C57.6931 0.405719 57.6661 0.405719 57.639 0.405719C55.5293 -0.0270479 53.5818 1.62287 53.5818 3.75966V36.9204L45.3863 28.7249L37.1908 36.9204V4.11128C37.1908 1.83926 35.3515 0 33.0795 0H16.6885V73.8408H53.6089C58.9644 73.8408 63.5084 77.2759 65.2124 82.0363H74.8144C76.4914 77.2488 81.0625 73.8408 86.418 73.8408H123.338V0H86.418Z" fill="#F1F6FF"/>
<path d="M123.311 0V73.8408H86.391C81.0355 73.8408 76.4914 77.2759 74.7874 82.0363H69.9729V8.22257C73.7055 3.24575 79.6831 0 86.391 0H123.311Z" fill="#DFE5F2"/>
<path d="M106.92 24.6136V32.8091H98.725V53.3114H90.5024V32.8091H82.3069V24.6136H90.5024V16.4181H98.725V24.6136H106.92Z" fill="#FFC107"/>
<path d="M57.6932 0.405719V46.8199L45.3864 34.5131L33.0796 46.8199V0H53.5819C54.9884 0 56.3678 0.13524 57.6932 0.405719Z" fill="#0423B8"/>
<path d="M57.6933 0.405719V46.8199L45.3865 34.5131V0H53.582C54.9885 0 56.3679 0.13524 57.6933 0.405719Z" fill="#031A8A"/>
</g>
<defs>
<clipPath id="clip0_945_498">
<rect width="140" height="90.2318" fill="white"/>
</clipPath>
</defs>
</svg>
