<svg width="140" height="91" viewBox="0 0 140 91" fill="none" xmlns="http://www.w3.org/2000/svg">
<g clip-path="url(#clip0_945_361)">
<path d="M140 8.20374H0V90.3226H140V8.20374Z" fill="#803E01"/>
<path d="M140 8.20374H70V90.3226H140V8.20374Z" fill="#401F01"/>
<path d="M131.805 8.20374V82.1188H74.8146L70 77.7326L65.1855 82.1188H8.19556V8.20374H131.805Z" fill="#DFE5F2"/>
<path d="M131.804 8.20374V82.1188H74.8145L70 77.7326V8.20374H131.804Z" fill="#C7CDDE"/>
<path d="M86.418 0C79.7101 0 73.7596 3.22194 69.9999 8.23083C67.0517 4.27787 62.697 1.43498 57.6931 0.406127C57.6931 0.406127 57.6661 0.406127 57.639 0.406127C55.5293 -0.0270751 53.5818 1.62451 53.5818 3.76344V36.9575L45.3863 28.7538L37.1908 36.9575V4.11542C37.1908 1.84111 35.3515 0 33.0795 0H16.6885V73.9151H53.6089C58.9644 73.9151 63.5084 77.3536 65.2124 82.1188H74.8144C76.4914 77.3265 81.0625 73.9151 86.418 73.9151H123.338V0H86.418Z" fill="#F1F6FF"/>
<path d="M123.311 0V73.9151H86.391C81.0355 73.9151 76.4914 77.3536 74.7874 82.1188H69.9729V8.23083C73.7055 3.24901 79.6831 0 86.391 0H123.311Z" fill="#DFE5F2"/>
<path d="M57.6932 0.406127V46.867L45.3864 34.5478L33.0796 46.867V0H53.5819C54.9884 0 56.3678 0.135376 57.6932 0.406127Z" fill="#FF7B02"/>
<path d="M57.6933 0.406127V46.867L45.3865 34.5478V0H53.582C54.9885 0 56.3679 0.135376 57.6933 0.406127Z" fill="#BF5C02"/>
<g clip-path="url(#clip1_945_361)">
<path d="M110.992 44.9619C111.003 45.1068 111.022 45.2349 111.022 45.362C111.024 47.629 111.025 49.8951 111.022 52.1621C111.022 52.8959 110.781 53.1293 110.034 53.1302C108.794 53.1322 107.553 53.1302 106.246 53.1302C106.246 53.8631 106.246 54.5512 106.246 55.2404C106.246 55.9245 106.186 55.9881 105.518 55.9911C105.037 55.9931 104.555 55.9831 104.075 55.995C103.677 56.005 103.496 55.8302 103.501 55.432C103.509 54.6892 103.503 53.9455 103.503 53.167H90.5484C90.5484 53.9048 90.5285 54.6297 90.5553 55.3516C90.5733 55.8242 90.3921 56.0179 89.9193 55.998C89.4226 55.9762 88.9239 55.9722 88.4272 55.996C87.9634 56.0179 87.8141 55.8113 87.826 55.3724C87.8469 54.6485 87.832 53.9246 87.832 53.1312C87.1929 53.1312 86.6017 53.1312 86.0114 53.1312C85.2818 53.1312 84.5522 53.1352 83.8226 53.1283C83.3747 53.1233 83.0691 52.8909 83.0661 52.4431C83.0502 49.9626 83.0581 47.4831 83.0581 44.9628H110.992V44.9619Z" fill="#FFC107"/>
<path d="M83.0463 38.4806V34.5552C82.5825 34.5552 82.1465 34.6118 81.7354 34.5364C81.4248 34.4798 81.0685 34.3189 80.8694 34.0875C80.3966 33.5394 80.0054 32.9218 79.5117 32.2376C79.7795 32.184 79.9557 32.1184 80.1328 32.1164C81.1611 32.1065 82.1893 32.1115 83.2185 32.1125C93.4032 32.1125 103.588 32.1135 113.773 32.1194C113.96 32.1194 114.147 32.1869 114.334 32.2227C114.257 32.4084 114.209 32.6119 114.099 32.7758C113.814 33.2018 113.49 33.602 113.206 34.0299C112.952 34.4113 112.628 34.594 112.163 34.5612C111.804 34.5364 111.441 34.5562 111.023 34.5562V38.4806H83.0463Z" fill="#FFC107"/>
<path d="M97.0014 43.1079C90.3513 43.1079 83.7021 43.1079 77.052 43.1079C76.1343 43.1079 76.0009 42.9719 76.0009 42.0394C76.0009 41.7584 75.9989 41.4774 76.0009 41.1954C76.0049 40.5271 76.2139 40.3245 76.9007 40.3196C77.0172 40.3196 77.1326 40.3196 77.2491 40.3196C90.4657 40.3196 103.682 40.3196 116.899 40.3196C117.868 40.3196 117.996 40.4447 117.997 41.392C117.997 41.7396 118.007 42.0871 117.993 42.4337C117.976 42.8696 117.738 43.096 117.299 43.1059C117.133 43.1099 116.968 43.1079 116.801 43.1079C110.201 43.1079 103.602 43.1079 97.0014 43.1079Z" fill="#FFC107"/>
<path d="M89.7632 21.2392C90.877 20.8529 91.9371 20.4865 92.9962 20.1191C93.9189 19.7993 94.8386 19.4736 95.7644 19.1618C96.1834 19.0208 96.4701 19.2472 96.3835 19.6782C96.0122 21.5182 95.5115 23.3115 94.3519 24.8447C93.0808 26.5269 91.5151 27.7502 89.3561 28.0591C89.3272 28.063 89.3024 28.0918 89.2287 28.1395C89.5631 28.8217 89.9006 29.5088 90.2649 30.2536H85.28C85.5179 29.0759 85.7508 27.9151 85.9867 26.7553C86.1779 25.8169 86.366 24.8775 86.5671 23.9411C86.6258 23.667 86.6596 23.3602 86.8099 23.1398C87.1961 22.5767 87.2369 21.9968 87.1742 21.3335C87.0956 20.5033 87.3046 19.6891 87.7147 18.9483C87.8411 18.7199 87.9984 18.4955 88.1855 18.3158C88.6902 17.8312 89.2327 17.9335 89.5582 18.5591C89.9444 19.3018 89.8846 20.0962 89.809 20.8896C89.8 20.983 89.7841 21.0763 89.7632 21.2382V21.2392Z" fill="#FFC107"/>
<path d="M104.132 21.1984C104.174 20.4547 104.193 19.7506 104.266 19.0525C104.29 18.8192 104.423 18.5799 104.56 18.3803C104.858 17.9424 105.322 17.8659 105.705 18.2373C105.995 18.5183 106.256 18.8649 106.418 19.2323C106.805 20.1081 106.951 21.0336 106.776 21.9938C106.75 22.1348 106.711 22.3354 106.781 22.4218C107.363 23.1278 107.421 24.0007 107.596 24.8368C107.973 26.6301 108.348 28.4235 108.733 30.2625H103.722C104.085 29.5307 104.426 28.8435 104.791 28.1047C104.514 28.0481 104.274 28.0094 104.04 27.9498C101.698 27.353 100.14 25.8069 98.9724 23.7842C98.2398 22.5171 97.9353 21.111 97.6217 19.7079C97.5162 19.2363 97.8208 19.0108 98.3026 19.1777C100.053 19.7854 101.802 20.3991 103.553 21.0088C103.755 21.0793 103.959 21.1428 104.13 21.1984H104.132Z" fill="#FFC107"/>
</g>
</g>
<defs>
<clipPath id="clip0_945_361">
<rect width="140" height="90.3226" fill="white"/>
</clipPath>
<clipPath id="clip1_945_361">
<rect width="42" height="38" fill="white" transform="translate(76 18)"/>
</clipPath>
</defs>
</svg>
