<svg width="109" height="109" viewBox="0 0 109 109" fill="none" xmlns="http://www.w3.org/2000/svg">
<g clip-path="url(#clip0_945_511)">
<path d="M35.2053 67.6621V105.406H6.56689V78.0894L35.2053 67.6621Z" fill="#DFE5F2"/>
<path d="M102.028 78.0894V105.406H73.3899V67.6621L102.028 78.0894Z" fill="#C7CDDE"/>
<path d="M74.5438 65.184L72.2314 71.1056L104.048 83.5296L106.36 77.6079L74.5438 65.184Z" fill="#542501"/>
<path d="M34.0519 65.1849L2.23535 77.6089L4.54768 83.5305L36.3643 71.1066L34.0519 65.1849Z" fill="#542501"/>
<path d="M76.5787 57.2768V59.6056L54.2974 43.2828L32.0371 59.6056V57.2768L32.4148 55.7662L51.1084 23.9597L54.2974 21.8407L57.4865 23.9597L76.2011 55.7662L76.5787 57.2768Z" fill="#934403"/>
<path d="M63.8437 6.14728V12.5044H57.4866V23.9597H51.1086V12.5044H44.7515V6.14728H51.1086V0H57.4866V6.14728H63.8437Z" fill="#FFC107"/>
<path d="M76.5787 59.6055V105.406H32.0371V59.6055L54.2974 43.2827L76.5787 59.6055Z" fill="#F1F6FF"/>
<path d="M81.6351 59.3538L77.8796 64.494L54.2975 47.227L30.7155 64.494L26.96 59.3538L54.2975 39.3384L81.6351 59.3538Z" fill="#542501"/>
<path d="M54.2976 52.3463C49.0105 52.3463 44.7095 56.6473 44.7095 61.9344C44.7095 67.2215 49.0105 71.5225 54.2976 71.5225C59.5846 71.5225 63.8856 67.2215 63.8856 61.9344C63.8856 56.6473 59.5846 52.3463 54.2976 52.3463Z" fill="#3942FE"/>
<g style="mix-blend-mode:multiply">
<path d="M63.8857 61.9344C63.8857 67.2215 59.5847 71.5225 54.2976 71.5225V52.3463C59.5847 52.3463 63.8857 56.6473 63.8857 61.9344Z" fill="#3942FE"/>
</g>
<path d="M63.8437 86.7754V105.406H44.7515V86.7754C44.7515 81.5932 49.0315 77.3761 54.2976 77.3761C59.5637 77.3761 63.8437 81.5932 63.8437 86.7754Z" fill="#FFC107"/>
<path d="M57.4865 86.7753V105.406H51.1294V86.7753C51.1294 85.0969 52.5561 83.7542 54.3184 83.7542C56.0808 83.7542 57.5075 85.1179 57.5075 86.7753H57.4865Z" fill="#934403"/>
<g style="mix-blend-mode:multiply">
<path d="M57.4866 86.7753V105.406H54.2976V83.7332C56.06 83.7332 57.4866 85.0969 57.4866 86.7543V86.7753Z" fill="#934403"/>
</g>
<path d="M32.0373 92.9856V105.406H12.9451V92.9856C12.9451 87.8034 17.2251 83.5863 22.4912 83.5863C27.7573 83.5863 32.0373 87.8034 32.0373 92.9856Z" fill="#FFC107"/>
<path d="M25.6591 92.9855V105.406H19.302V92.9855C19.302 91.3071 20.7287 89.9644 22.491 89.9644C24.2534 89.9644 25.6801 91.3281 25.6801 92.9855H25.6591Z" fill="#934403"/>
<path d="M95.6501 92.9856V105.406H76.5579V92.9856C76.5579 87.8034 80.8379 83.5863 86.104 83.5863C91.3701 83.5863 95.6501 87.8034 95.6501 92.9856Z" fill="#FFC107"/>
<g style="mix-blend-mode:multiply">
<path d="M89.2929 92.9855V105.406H82.9358V92.9855C82.9358 91.3071 84.3625 89.9644 86.1248 89.9644C87.8872 89.9644 89.3139 91.3281 89.3139 92.9855H89.2929Z" fill="#934403"/>
</g>
<path d="M108.595 102.238H0V108.595H108.595V102.238Z" fill="#0F2651"/>
<g style="mix-blend-mode:multiply">
<path d="M108.595 102.238H54.2976V108.595H108.595V102.238Z" fill="#0F2651"/>
</g>
</g>
<defs>
<clipPath id="clip0_945_511">
<rect width="108.595" height="108.595" fill="white"/>
</clipPath>
</defs>
</svg>
