<svg xmlns="http://www.w3.org/2000/svg" xmlns:xlink="http://www.w3.org/1999/xlink" viewBox="0 0 238.87 258.96"><defs><style>.cls-1{isolation:isolate;}.cls-2{fill:#f4bca3;}.cls-3{fill:#9a2fe3;}.cls-4{fill:#6d6e71;}.cls-5{fill:#bcbec0;}.cls-6{fill:#58595b;}.cls-7,.cls-8,.cls-9{mix-blend-mode:screen;}.cls-7{fill:url(#radial-gradient);}.cls-8{fill:url(#radial-gradient-2);}.cls-9{fill:url(#radial-gradient-3);}</style><radialGradient id="radial-gradient" cx="108.64" cy="190.23" r="40.81" gradientTransform="translate(-52.97 12.65) scale(0.95 0.95)" gradientUnits="userSpaceOnUse"><stop offset="0" stop-color="#f9eba1"/><stop offset="1"/></radialGradient><radialGradient id="radial-gradient-2" cx="264.92" cy="190.23" r="40.81" xlink:href="#radial-gradient"/><radialGradient id="radial-gradient-3" cx="188.55" cy="223.66" r="52.61" xlink:href="#radial-gradient"/></defs><g class="cls-1"><g id="Layer_2" data-name="Layer 2"><circle class="cls-2" cx="119.43" cy="119.43" r="119.43"/><circle class="cls-3" cx="119.43" cy="119.43" r="96.71"/><path class="cls-4" d="M48.63,146l9.55,19.34,21.34,3.1a3.19,3.19,0,0,1,1.77,5.44L65.84,188.9l3.65,21.26a3.19,3.19,0,0,1-4.63,3.36l-19.09-10-19.08,10a3.19,3.19,0,0,1-4.63-3.36L25.7,188.9,10.26,173.85A3.19,3.19,0,0,1,12,168.41l21.34-3.1L42.91,146A3.19,3.19,0,0,1,48.63,146Z"/><path class="cls-5" d="M66.35,211.41a.68.68,0,0,1-.33-.09L45.77,200.68,25.53,211.32a.68.68,0,0,1-.33.09.73.73,0,0,1-.55-.27.63.63,0,0,1-.15-.56L28.37,188,12,172.07a.68.68,0,0,1-.18-.73.66.66,0,0,1,.57-.48L35,167.57l10.12-20.51a.71.71,0,0,1,1.27,0l10.12,20.51,22.63,3.29a.69.69,0,0,1,.58.48.68.68,0,0,1-.18.73L63.18,188l3.87,22.54a.66.66,0,0,1-.15.56A.73.73,0,0,1,66.35,211.41Z"/><path class="cls-6" d="M25.7,188.9,10.26,173.85a3.15,3.15,0,0,1-.94-2.59h0s0,5.78,0,5.78h0a3.12,3.12,0,0,0,.94,2.58l14.59,14.22Z"/><path class="cls-6" d="M69.52,211a3.2,3.2,0,0,1-4.66,2.48l-19.09-10-19.08,10A3.2,3.2,0,0,1,22,211.1v5.1a3.19,3.19,0,0,0,4.66,3.1l18.64-9.8.55-.18,19,10a3.18,3.18,0,0,0,4.65-3.1Z"/><path class="cls-6" d="M82.23,171.26a3.15,3.15,0,0,1-.94,2.59L65.84,188.9l.85,4.95,14.6-14.22a3.13,3.13,0,0,0,.94-2.57l0,0v-5.78Z"/><path class="cls-7" d="M79.74,171.34a.69.69,0,0,0-.58-.48l-22.63-3.29L46.41,147.06a.71.71,0,0,0-1.27,0L35,167.57l-22.64,3.29a.66.66,0,0,0-.57.48.68.68,0,0,0,.18.73l5.35,5.22c8.81-4.14,20.61-4.79,32.37-.94A49.85,49.85,0,0,1,66,185.26l13.54-13.19A.68.68,0,0,0,79.74,171.34Z"/><path class="cls-6" d="M79.56,172.07a.68.68,0,0,0,.18-.73.69.69,0,0,0-.58-.48l-22.63-3.29L46.41,147.06a.71.71,0,0,0-1.27,0L35,167.57l-22.64,3.29a.66.66,0,0,0-.57.48.68.68,0,0,0,.18.73l16.38,16L24.5,210.58a.63.63,0,0,0,.15.56.73.73,0,0,0,.55.27.68.68,0,0,0,.33-.09l20.24-10.64L66,211.32a.68.68,0,0,0,.33.09.73.73,0,0,0,.55-.27.66.66,0,0,0,.15-.56L63.18,188ZM66.43,210.74a.12.12,0,0,1-.08,0L45.77,200,25.2,210.79s-.05,0-.09-.11L29,187.82,12.42,171.63s0,0,0-.09,0-.06.07-.07l23-3.33,10.26-20.8c0-.05,0-.05.08-.05s.06,0,.09.05l10.26,20.8,22.95,3.33c.05,0,.06,0,.08.07s0,.06,0,.09l-16.6,16.19Z"/><path class="cls-4" d="M197.66,146l9.54,19.34,21.34,3.1a3.19,3.19,0,0,1,1.77,5.44L214.87,188.9l3.64,21.26a3.19,3.19,0,0,1-4.62,3.36l-19.09-10-19.09,10a3.19,3.19,0,0,1-4.63-3.36l3.65-21.26-15.45-15.05a3.19,3.19,0,0,1,1.77-5.44l21.34-3.1L191.94,146A3.19,3.19,0,0,1,197.66,146Z"/><path class="cls-5" d="M215.37,211.41a.68.68,0,0,1-.33-.09L194.8,200.68l-20.25,10.64a.68.68,0,0,1-.33.09.73.73,0,0,1-.55-.27.66.66,0,0,1-.15-.56L177.39,188l-16.38-16a.68.68,0,0,1-.18-.73.69.69,0,0,1,.58-.48L184,167.57l10.12-20.51a.71.71,0,0,1,1.27,0l10.13,20.51,22.63,3.29a.66.66,0,0,1,.57.48.68.68,0,0,1-.18.73L212.2,188l3.87,22.54a.63.63,0,0,1-.15.56A.73.73,0,0,1,215.37,211.41Z"/><path class="cls-6" d="M174.73,188.9l-15.45-15.05a3.15,3.15,0,0,1-.94-2.59h0s0,5.78,0,5.78h0a3.12,3.12,0,0,0,.94,2.58l14.6,14.22Z"/><path class="cls-6" d="M218.54,211a3.19,3.19,0,0,1-4.65,2.48l-19.09-10-19.09,10a3.19,3.19,0,0,1-4.65-2.42v5.1a3.18,3.18,0,0,0,4.65,3.1l18.64-9.8.56-.18,19,10a3.18,3.18,0,0,0,4.65-3.1Z"/><path class="cls-6" d="M231.25,171.26a3.15,3.15,0,0,1-.94,2.59L214.87,188.9l.85,4.95,14.59-14.22a3.14,3.14,0,0,0,.95-2.57l0,0v-5.78Z"/><path class="cls-8" d="M228.76,171.34a.66.66,0,0,0-.57-.48l-22.63-3.29-10.13-20.51a.71.71,0,0,0-1.27,0L184,167.57l-22.63,3.29a.69.69,0,0,0-.58.48.68.68,0,0,0,.18.73l5.35,5.22c8.81-4.14,20.61-4.79,32.37-.94a49.8,49.8,0,0,1,16.32,8.91l13.53-13.19A.68.68,0,0,0,228.76,171.34Z"/><path class="cls-6" d="M228.58,172.07a.68.68,0,0,0,.18-.73.66.66,0,0,0-.57-.48l-22.63-3.29-10.13-20.51a.71.71,0,0,0-1.27,0L184,167.57l-22.63,3.29a.69.69,0,0,0-.58.48.68.68,0,0,0,.18.73l16.38,16-3.87,22.54a.66.66,0,0,0,.15.56.73.73,0,0,0,.55.27.68.68,0,0,0,.33-.09l20.25-10.64L215,211.32a.68.68,0,0,0,.33.09.73.73,0,0,0,.55-.27.63.63,0,0,0,.15-.56L212.2,188Zm-13.13,38.67a.12.12,0,0,1-.08,0L194.8,200l-20.58,10.81s-.05,0-.09-.11l3.92-22.86-16.6-16.19s0,0,0-.09,0-.06.08-.07l22.95-3.33,10.27-20.8c0-.05,0-.05.08-.05s.06,0,.08.05l10.26,20.8,23,3.33c.05,0,.05,0,.07.07s0,.06,0,.09l-16.61,16.19Z"/><path class="cls-4" d="M124.25,164l12.31,24.93,27.51,4a4.12,4.12,0,0,1,2.28,7l-19.91,19.4,4.7,27.4a4.11,4.11,0,0,1-6,4.33l-24.6-12.93L96,251a4.11,4.11,0,0,1-6-4.33l4.7-27.4-19.9-19.4a4.12,4.12,0,0,1,2.27-7l27.52-4L116.88,164A4.11,4.11,0,0,1,124.25,164Z"/><path class="cls-5" d="M147.09,248.31a1,1,0,0,1-.43-.11l-26.09-13.72L94.47,248.2a.94.94,0,0,1-.42.11,1,1,0,0,1-.72-.35.85.85,0,0,1-.19-.73l5-29L77,197.6a.87.87,0,0,1-.24-.94.86.86,0,0,1,.74-.62l29.18-4.24,13-26.44a.88.88,0,0,1,.83-.51.87.87,0,0,1,.82.51l13,26.44L163.61,196a.86.86,0,0,1,.74.62.88.88,0,0,1-.23.94L143,218.18l5,29a.82.82,0,0,1-.19.73A.94.94,0,0,1,147.09,248.31Z"/><path class="cls-6" d="M94.69,219.29l-19.9-19.4a4,4,0,0,1-1.22-3.34h0s0,7.45,0,7.45h0a4,4,0,0,0,1.22,3.33L93.6,225.68Z"/><path class="cls-6" d="M151.17,247.82a4.1,4.1,0,0,1-6,3.2l-24.6-12.93L96,251a4.11,4.11,0,0,1-6-3.11v6.57a4.11,4.11,0,0,0,6,4l24-12.64.72-.22,24.46,12.86a4.11,4.11,0,0,0,6-4Z"/><path class="cls-6" d="M167.56,196.55a4,4,0,0,1-1.21,3.34l-19.91,19.4,1.09,6.39,18.82-18.34a4,4,0,0,0,1.21-3.31l0,0v-7.45Z"/><path class="cls-9" d="M164.35,196.66a.86.86,0,0,0-.74-.62l-29.18-4.24-13-26.44a.87.87,0,0,0-.82-.51.88.88,0,0,0-.83.51l-13,26.44L77.52,196a.86.86,0,0,0-.74.62.87.87,0,0,0,.24.94l6.89,6.72c11.36-5.33,26.57-6.17,41.73-1.2a64,64,0,0,1,21,11.48l17.45-17A.88.88,0,0,0,164.35,196.66Z"/><path class="cls-6" d="M164.12,197.6a.88.88,0,0,0,.23-.94.86.86,0,0,0-.74-.62l-29.18-4.24-13-26.44a.87.87,0,0,0-.82-.51.88.88,0,0,0-.83.51l-13,26.44L77.52,196a.86.86,0,0,0-.74.62.87.87,0,0,0,.24.94l21.11,20.58-5,29a.85.85,0,0,0,.19.73,1,1,0,0,0,.72.35.94.94,0,0,0,.42-.11l26.1-13.72,26.09,13.72a1,1,0,0,0,.43.11.94.94,0,0,0,.71-.35.82.82,0,0,0,.19-.73l-5-29Zm-16.93,49.85a.16.16,0,0,1-.1.06l-26.52-13.93L94.05,247.51s-.07,0-.12-.14l5-29.47L77.57,197c0-.05,0-.05,0-.12s0-.07.1-.08l29.59-4.3,13.23-26.82c0-.05,0-.06.11-.06s.07,0,.1.06l13.23,26.82,29.59,4.3c.07,0,.08,0,.1.08s0,.07,0,.12L142.15,217.9Z"/></g></g></svg>